<svg width="67" height="103" viewBox="0 0 67 103" fill="none" xmlns="http://www.w3.org/2000/svg">
<path d="M50.8821 10.8975C50.8821 10.8975 47.6208 10.8779 47.0038 15.4532C46.3868 20.0285 47.2683 22.0565 45.0451 24.1238C42.8219 26.191 46.4652 27.347 49.4523 25.3876C52.4491 23.4281 50.8821 10.8975 50.8821 10.8975Z" fill="#3B2645"/>
<path d="M50.882 10.8975C50.882 10.8975 47.8852 12.5238 47.8264 17.0991C47.7774 21.1454 48.8156 24.2805 47.229 26.2987C47.9439 26.1616 48.7176 25.8677 49.4522 25.3876C52.449 23.4281 50.882 10.8975 50.882 10.8975Z" fill="#3B2645"/>
<path d="M54.7605 21.3705L53.7126 25.7107L47.0039 25.1915C47.0039 25.1915 48.708 22.5266 49.609 17.9121L54.7605 21.3705Z" fill="#FFEDE5"/>
<path d="M50.7842 19.8813L54.1532 23.908L54.7604 21.3705L50.7842 19.8813Z" fill="#DF845C"/>
<path d="M58.335 12.2202C58.335 12.2202 59.6278 14.0327 59.0598 15.904C58.4917 17.7753 58.5211 18.0986 58.4232 18.7942C58.3252 19.48 56.6603 22.6249 55.867 22.7425C55.0737 22.86 50.2552 20.9692 49.3053 18.3043C48.3553 15.6395 54.6232 8.23274 58.335 12.2202Z" fill="#FFEDE5"/>
<path d="M49.3348 19.1862L50.6471 17.0993L51.2446 17.3345C51.2446 17.3345 51.744 17.1973 51.9497 15.3064C51.9497 15.3064 53.4481 14.6696 53.7321 13.2196C53.7321 13.2196 58.7465 9.88857 59.2068 15.0223C59.2068 15.0223 59.9609 12.671 57.6986 11.074C55.4362 9.47708 52.5863 9.01661 50.7843 10.3588C48.9822 11.7011 46.1127 16.3646 49.3348 19.1862Z" fill="#3B2645"/>
<path d="M50.7432 18.4448C51.2995 18.1786 51.4098 17.2505 50.9896 16.3719C50.5694 15.4933 49.7778 14.9968 49.2215 15.2631C48.6653 15.5293 48.555 16.4574 48.9752 17.336C49.3954 18.2146 50.187 18.711 50.7432 18.4448Z" fill="#FFEDE5"/>
<path d="M50.5394 17.6279C50.51 17.6279 50.4806 17.6181 50.461 17.5887L49.8342 16.7265C49.8048 16.6873 49.8146 16.6187 49.8538 16.5894C49.893 16.56 49.9615 16.5698 49.9909 16.6089L50.6177 17.4711C50.6471 17.5103 50.6373 17.5789 50.5981 17.6083C50.5785 17.6181 50.559 17.6279 50.5394 17.6279Z" fill="#472938"/>
<path d="M54.7212 19.5977C54.7212 19.5977 55.5145 20.1463 56.7779 20.1953C56.7779 20.1953 55.4067 20.4794 54.7212 19.5977Z" fill="#472938"/>
<path d="M56.7878 19.1467C56.5724 19.1467 56.3667 19.1173 56.2002 19.0291C56.1512 18.9997 56.1316 18.9409 56.161 18.9017C56.1904 18.8528 56.2492 18.8332 56.2883 18.8626C56.6997 19.0683 57.493 18.892 57.5909 18.7744C57.6007 18.6764 57.4538 18.2355 57.3559 17.9514C57.2677 17.6967 57.1894 17.4616 57.16 17.295C57.0522 16.8345 57.5223 16.2663 57.5419 16.2369C57.5811 16.1977 57.6399 16.1879 57.679 16.2271C57.7182 16.2663 57.728 16.3251 57.6888 16.3643C57.5713 16.5112 57.2775 16.9521 57.3461 17.2558C57.3852 17.4126 57.4636 17.6575 57.5419 17.8926C57.7378 18.4707 57.8162 18.7352 57.7672 18.8528C57.7378 18.9213 57.6693 18.9703 57.5321 19.0291C57.3754 19.0879 57.0816 19.1467 56.7878 19.1467Z" fill="#472938"/>
<path d="M58.9425 16.3348C58.9425 16.3348 59.2266 16.0899 58.9621 15.9332C58.6977 15.7764 58.2374 15.8156 58.1786 15.9625C58.1199 16.1095 58.1003 16.1977 58.2961 16.2075C58.5018 16.2173 58.9132 16.1095 58.9425 16.3348Z" fill="#472938"/>
<path d="M53.7322 15.5215C53.7322 15.5215 54.5059 15.1198 55.0641 15.2864C55.6224 15.4529 55.7497 15.688 56.0239 15.6195C56.2981 15.5411 56.0533 15.1002 55.4461 14.9337C54.8389 14.7671 53.9966 15.0218 53.7322 15.5215Z" fill="#472938"/>
<path d="M54.7704 16.9031C54.6529 16.8836 54.5745 16.7758 54.5843 16.6582L54.6137 16.4917C54.6333 16.3741 54.741 16.2957 54.8585 16.3055C54.9761 16.3251 55.0544 16.4329 55.0446 16.5504L55.0152 16.717C54.9957 16.8346 54.8879 16.9227 54.7704 16.9031Z" fill="#472938"/>
<path d="M57.9727 17.2946C57.8747 17.2848 57.816 17.1966 57.8258 17.0987L57.8453 16.9615C57.8551 16.8635 57.9433 16.8047 58.0412 16.8145C58.1392 16.8243 58.1979 16.9125 58.1881 17.0105L58.1685 17.1476C58.1588 17.2456 58.0706 17.3044 57.9727 17.2946Z" fill="#472938"/>
<path d="M63.1045 97.1032C63.5256 97.4559 64.0643 97.9163 64.4952 97.1815C64.4462 96.7113 64.505 95.2417 64.505 95.2417L60.803 95.4474L61.0086 96.9856C61.0086 96.9758 62.6834 96.7505 63.1045 97.1032Z" fill="#FFEDE5"/>
<path d="M64.2114 101.228C64.8088 101.012 66.1015 99.7092 66.366 99.4348C66.2778 99.0038 66.0722 98.5727 65.7979 98.5237C65.3964 98.4649 64.5443 97.6419 64.4954 97.1717C64.0547 97.9163 63.5258 97.4558 63.1047 97.0933C62.6835 96.7406 61.0088 96.9659 61.0088 96.9659C61.0088 96.9659 60.4604 99.7777 60.4016 101.238C61.2341 101.296 63.6629 101.433 64.2114 101.228Z" fill="#3B2645"/>
<path d="M60.5094 102.08C60.9305 102.443 63.947 102.335 64.2603 102.247C64.5737 102.159 66.1016 100.65 66.3268 100.287C66.4248 100.131 66.4345 99.778 66.3562 99.4351C66.0918 99.7094 64.799 101.012 64.2016 101.228C63.6531 101.424 61.2145 101.297 60.3918 101.248C60.3918 101.688 60.4114 102.002 60.5094 102.08Z" fill="#E5E5E5"/>
<path d="M39.8545 97.064C40.8045 97.1914 41.0395 97.7498 41.3333 97.7204C41.6271 97.691 42.3029 97.1032 42.3029 97.1032C42.3029 96.6721 42.7338 95.2417 42.7338 95.2417L38.8262 95.3691L38.405 97.3089C38.4148 97.3089 38.9143 96.9366 39.8545 97.064Z" fill="#FFEDE5"/>
<path d="M42.5184 100.003C42.9004 99.8564 43.2431 99.533 43.4586 99.3175C43.4488 98.9648 43.3509 98.5631 43.0766 98.4064C42.6065 98.1418 42.3127 97.1033 42.3127 97.1033C42.3127 97.1033 41.637 97.6814 41.3432 97.7206C41.0493 97.7597 40.8045 97.2013 39.8643 97.0641C38.9143 96.9368 38.4246 97.3091 38.4246 97.3091C38.0721 98.328 37.9252 99.9053 37.886 100.816C38.3659 100.914 39.1494 101.032 40.2365 101.032C42.205 101.022 41.9112 100.229 42.5184 100.003Z" fill="#3B2645"/>
<path d="M37.8761 101.492C37.9251 101.649 38.072 102.08 40.2657 102.08C42.4595 102.08 42.391 100.993 42.5379 100.64C42.6946 100.278 43.2822 100.052 43.3801 99.8758C43.4193 99.7974 43.4585 99.5721 43.4487 99.3174C43.243 99.5329 42.8904 99.8562 42.5085 100.003C41.9013 100.229 42.2049 101.032 40.2168 101.032C39.1297 101.032 38.3462 100.914 37.8663 100.816C37.8565 101.189 37.8565 101.453 37.8761 101.492Z" fill="#E5E5E5"/>
<path d="M60.5779 44.4724C60.5779 44.4724 63.2516 50.5859 63.9665 55.416C64.6815 60.246 63.1536 73.3351 63.3789 74.452C63.6042 75.5689 64.8577 78.9979 65.0438 83.6026C65.2201 88.2074 64.5052 95.232 64.5052 95.232C64.5052 95.232 62.331 96.2019 60.8032 95.4377C60.8032 95.4377 59.6181 87.9526 58.962 84.8077C58.3058 81.6628 58.3058 77.979 57.581 76.2547C56.8563 74.5304 54.9759 62.4112 54.4373 60.4615C54.4373 60.4615 52.4492 70.2 50.6079 74.5696C48.7667 78.9392 48.2575 79.3996 47.6992 81.9175C47.141 84.4354 43.2039 93.5469 42.7436 95.2418C42.7436 95.2418 40.6184 96.3195 38.8359 95.3691C38.8359 95.3691 39.8839 84.2395 41.7643 79.8307C43.6446 75.4219 43.8699 75.3044 44.291 72.0909C44.7121 68.8774 42.9787 54.8379 47.6796 45.8636C47.6698 45.8538 54.261 44.4234 60.5779 44.4724Z" fill="#AB8DA8"/>
<path d="M54.4373 44.8055C54.8682 46.6866 60.5583 55.2494 60.5583 55.2494L57.2383 44.5508L54.4373 44.8055Z" fill="#543753"/>
<path d="M51.9497 58.0225C51.9497 58.0225 52.8115 60.0603 57.1012 59.7762C57.1012 59.7762 54.7507 60.2954 54.9661 63.068L54.4373 60.4718L53.8399 63.215C53.8399 63.215 53.9966 60.4914 50.9312 59.5508L52.9389 59.6096C52.9486 59.5998 51.9595 58.8944 51.9497 58.0225Z" fill="#543753"/>
<path d="M45.6035 25.4951C45.6035 25.4951 44.154 26.7002 39.8938 33.2447C35.6335 39.7893 36.7304 40.142 37.4258 41.1021C38.1113 42.0623 43.2726 47.4704 43.6545 47.9602C44.0365 48.4599 45.4468 49.9491 46.2009 49.3514C46.955 48.7538 46.7102 47.0393 47.5524 46.3927C48.3947 45.7362 49.0998 45.0798 49.1684 44.7271C49.2369 44.3744 49.0607 44.0805 48.9823 44.0805C48.904 44.0805 48.0519 44.8153 47.5328 45.07C47.0138 45.3248 45.7994 46.2065 45.7798 46.2065C45.7602 46.2065 41.1474 39.2505 41.1474 39.2505L46.2793 33.1272L45.6035 25.4951Z" fill="#FFEDE5"/>
<path d="M45.7013 27.7095C45.7013 27.7095 43.8013 30.0314 44.3106 35.5571L46.2987 33.1959L45.7013 27.7095Z" fill="#DF845C"/>
<path d="M40.4715 44.5021L42.4009 41.122L41.2158 39.3193L40.1875 44.1984L40.4715 44.5021Z" fill="#DF845C"/>
<path d="M52.5765 24.3392C53.8301 24.6429 57.1306 26.4848 59.2069 30.3449C61.2831 34.205 60.5486 34.8909 59.7553 35.9979L59.4517 40.9554L60.7836 45.0996L47.6797 45.8638C47.6797 45.8638 48.6982 41.5922 48.1694 40.2402C47.6405 38.8881 41.9014 31.2463 45.0844 26.1811C46.7003 23.5848 52.5765 24.3392 52.5765 24.3392Z" fill="#FFEDE5"/>
<path d="M59.4515 40.9456L59.7551 35.9882C60.5484 34.8909 61.2927 34.1953 59.2067 30.3351C58.6974 29.3946 58.1196 28.5716 57.5124 27.8564C57.4046 29.3652 57.0913 31.1679 56.3567 33.0392C54.7016 37.2814 48.0615 37.0267 46.2888 36.8797C47.1409 38.5061 47.9635 39.7503 48.1496 40.2206C48.2476 40.4655 48.2965 40.8084 48.3063 41.2003C53.3305 41.6804 59.4515 40.9456 59.4515 40.9456Z" fill="#AB8DA8"/>
<path d="M52.6842 24.3684C52.645 24.3586 52.6058 24.3488 52.5765 24.339C52.5765 24.339 52.4883 24.3292 52.3414 24.3096C50.1966 24.8974 48.5219 26.2298 47.4054 28.2481C47.0332 26.9352 46.8276 25.7106 46.9549 24.7798C46.9353 24.7896 46.9157 24.7994 46.8961 24.7994C46.8471 24.819 46.7982 24.8386 46.7492 24.8582C46.5729 24.9268 46.4064 25.0052 46.2497 25.0934C45.1528 26.2788 44.7709 28.493 45.1137 31.7065C45.2704 33.1467 45.5446 34.5281 45.7894 35.5862C45.7894 35.6842 45.7894 35.7821 45.7894 35.8801C45.8384 35.9781 45.8776 36.0663 45.9265 36.1642C45.9461 36.2132 45.9755 36.2622 45.9951 36.3112C46.1126 36.5463 46.2301 36.7717 46.3477 36.997C46.2595 36.6737 46.1224 36.174 45.9853 35.5666C45.9853 34.4203 46.0832 32.7842 46.5142 31.1089C46.7296 30.2467 47.0136 29.4727 47.3564 28.7673C48.5121 32.5197 50.8821 36.7325 51.0291 36.9872L51.3131 37.4869L51.2151 36.9186C51.2053 36.8598 50.177 31.0697 50.8919 27.6602C51.3424 25.5146 52.028 24.7504 52.4589 24.4761C52.5765 24.4467 52.6842 24.4173 52.8017 24.3977C52.7625 24.388 52.7234 24.3782 52.6842 24.3684ZM46.3183 31.0697C45.9755 32.3923 45.8482 33.6953 45.809 34.7534C45.1528 31.6281 44.5456 26.6511 46.7492 24.917C46.6513 25.9065 46.8863 27.1704 47.2781 28.5126C46.8765 29.2768 46.5631 30.1291 46.3183 31.0697ZM50.6863 27.6308C50.0987 30.4426 50.6765 34.8416 50.9213 36.3994C50.2358 35.1159 48.4141 31.6085 47.4837 28.5126C48.5023 26.5629 50.0007 25.2697 51.9692 24.6231C51.5383 25.0738 51.0388 25.9457 50.6863 27.6308Z" fill="#AB8DA8"/>
<path d="M53.1153 40.6417H48.2478C48.1891 40.6417 48.1499 40.6026 48.1499 40.5438C48.1499 40.485 48.1891 40.4458 48.2478 40.4458H53.1153C53.1741 40.4458 53.2132 40.485 53.2132 40.5438C53.2132 40.6026 53.1643 40.6417 53.1153 40.6417Z" fill="#472938"/>
<path d="M54.6136 45.4521L57.4145 45.2855L55.9749 41.2393C55.2893 41.2784 54.545 41.3176 53.7517 41.3372C54.0161 42.9146 54.3002 44.3744 54.6136 45.4521Z" fill="#DF845C"/>
<path d="M52.606 31.7554C52.606 31.7554 52.7724 33.656 53.0467 36.1151C53.3699 35.9878 53.6931 35.8408 53.9967 35.6645L52.606 31.7554Z" fill="#DF845C"/>
<path d="M53.0564 36.1157C53.2425 37.742 53.4775 39.6035 53.7615 41.3474C54.545 41.3278 55.2991 41.2886 55.9847 41.2494L54.0064 35.6748C53.693 35.8414 53.3796 35.9883 53.0564 36.1157Z" fill="#543753"/>
<path d="M48.3262 45.8149L48.6004 45.7953C48.6004 45.7953 49.0411 45.4132 49.1292 44.9136C49.0117 45.1487 48.7081 45.472 48.3262 45.8149Z" fill="#DF845C"/>
<path d="M52.792 24.3979C52.792 24.3979 56.9151 25.2307 57.5028 27.2196C58.1002 29.2084 58.5409 40.9455 58.5409 40.9455C58.5409 40.9455 62.664 52.6532 63.1048 54.4363C63.5455 56.2194 64.4661 59.09 64.5248 59.6681C64.5836 60.2461 64.0156 61.5785 63.8197 61.7941C63.6238 62.0096 62.4486 62.4505 62.1842 62.5093C61.9197 62.568 60.3234 61.5197 60.4017 61.3042C60.4801 61.0887 61.1166 60.7066 61.1166 60.7066L61.2342 59.913C61.2342 59.913 60.0883 57.6792 60.1667 56.5427C60.245 55.416 60.0687 54.6813 59.6868 53.9954C59.3048 53.3096 54.7116 43.0421 54.2415 41.2492C53.7714 39.4563 52.4101 31.452 52.4394 29.9432C52.4688 28.4344 52.792 24.3979 52.792 24.3979Z" fill="#FFEDE5"/>
<path d="M27.0541 10.3291L27.8768 14.875C27.9845 15.4727 28.3959 15.9723 28.9639 16.1977L30.7855 16.9129C30.7855 16.9129 28.866 19.7834 25.0171 20.5966C21.1681 21.4 19.0625 17.9122 19.0625 17.9122L20.6883 16.6973C21.0506 16.423 21.2465 15.9919 21.2171 15.5412L20.9233 11.3186L27.0541 10.3291Z" fill="#FFEDE5"/>
<path d="M21.1486 14.4831C21.1486 14.4831 25.7614 17.2068 27.0542 10.3291L20.9331 11.3088L21.1486 14.4831Z" fill="#DF845C"/>
<path d="M28.38 8.88576C28.5539 8.14846 28.3534 7.4702 27.9322 7.37081C27.5111 7.27142 27.0287 7.78855 26.8548 8.52585C26.681 9.26314 26.8815 9.94141 27.3026 10.0408C27.7238 10.1402 28.2061 9.62306 28.38 8.88576Z" fill="#FFEDE5"/>
<path d="M20.2974 10.8885C20.6722 10.6721 20.669 9.96484 20.2904 9.30882C19.9118 8.65281 19.301 8.29646 18.9263 8.5129C18.5516 8.72933 18.5547 9.43659 18.9334 10.0926C19.312 10.7486 19.9227 11.105 20.2974 10.8885Z" fill="#DF845C"/>
<path d="M27.3676 9.11468C27.348 9.11468 27.3382 9.11468 27.3186 9.10488C27.2696 9.07549 27.25 9.0167 27.2794 8.97751L27.6222 8.3113C27.6516 8.26231 27.7104 8.24272 27.7495 8.27211C27.7985 8.3015 27.8181 8.36028 27.7887 8.39947L27.4459 9.06569C27.4361 9.09508 27.4067 9.11468 27.3676 9.11468Z" fill="#472938"/>
<path d="M19.993 10.0352C19.9735 10.0352 19.9441 10.0254 19.9245 10.0058L19.2585 9.38861C19.2193 9.34942 19.2193 9.29064 19.2487 9.25145C19.2879 9.21226 19.3467 9.21226 19.3858 9.24165L20.0518 9.85888C20.091 9.89807 20.091 9.95685 20.0616 9.99604C20.042 10.0254 20.0126 10.0352 19.993 10.0352Z" fill="#472938"/>
<path d="M18.5436 5.7835C18.5436 5.7835 20.1498 11.7598 20.757 12.622C21.3544 13.4743 23.2054 14.2679 23.5188 14.3169C23.8322 14.3659 25.076 14.2385 25.3601 13.9936C25.6441 13.7487 27.1719 12.1321 27.4069 11.0838C27.6322 10.0355 27.6909 4.50006 26.7214 3.49094C25.742 2.48182 18.054 3.30479 18.5436 5.7835Z" fill="#FFEDE5"/>
<path d="M23.5775 10.0353C23.3326 10.0353 22.9017 9.90798 22.8429 9.87859C22.7646 9.8394 22.7548 9.8394 22.7842 8.11509C22.7842 7.99752 22.7842 7.90934 22.7842 7.87995C22.7744 7.80157 22.5393 7.39989 22.3337 7.06678C22.3043 7.01779 22.3141 6.95901 22.363 6.92962C22.412 6.90023 22.4708 6.91002 22.5002 6.95901C22.6764 7.24313 22.9898 7.73299 22.9898 7.87015C22.9898 7.89955 22.9898 7.98772 22.9898 8.10529C22.98 8.45799 22.9703 9.46711 22.98 9.70224C23.0976 9.74143 23.4306 9.8296 23.597 9.81981C23.7342 9.81001 23.9496 9.64346 24.0476 9.54549C24.0867 9.5063 24.1455 9.5063 24.1847 9.54549C24.2238 9.58467 24.2238 9.64346 24.1847 9.68265C24.1553 9.71204 23.8517 10.006 23.6068 10.0158C23.5971 10.0353 23.5873 10.0353 23.5775 10.0353Z" fill="#472938"/>
<path d="M22.363 11.074L25.0857 10.7017C25.0857 10.7017 24.88 11.9557 23.9104 12.1712C22.9409 12.3868 22.363 11.074 22.363 11.074Z" fill="white"/>
<path d="M25.0661 7.58584C24.8996 7.60544 24.7527 7.48787 24.7331 7.32132L24.7136 7.09598C24.694 6.92943 24.8115 6.78247 24.978 6.76287C25.1445 6.74328 25.2914 6.86085 25.311 7.0274L25.3306 7.25274C25.3599 7.41929 25.2326 7.56625 25.0661 7.58584Z" fill="#472938"/>
<path d="M21.2562 8.27164C21.0897 8.30103 20.933 8.19326 20.9036 8.02671L20.8644 7.80137C20.8351 7.63482 20.9428 7.47806 21.1093 7.44867C21.2758 7.41928 21.4325 7.52705 21.4619 7.6936L21.501 7.91894C21.5304 8.08549 21.4227 8.24225 21.2562 8.27164Z" fill="#472938"/>
<path d="M24.0476 6.20428C24.0476 6.20428 25.4579 5.70462 26.212 6.14549C26.212 6.14549 26.0847 5.52827 25.311 5.55766C24.5373 5.58705 24.0378 5.69482 23.9594 5.88097C23.8811 6.06711 24.0476 6.20428 24.0476 6.20428Z" fill="#472938"/>
<path d="M21.9517 6.58684C21.9517 6.58684 20.4631 6.44968 19.8461 7.06691C19.8461 7.06691 19.8167 6.43009 20.5708 6.27333C21.3249 6.11657 21.8342 6.09698 21.9517 6.25374C22.0791 6.42029 21.9517 6.58684 21.9517 6.58684Z" fill="#472938"/>
<path d="M19.4935 9.10441L19.2095 6.6355C19.2095 6.6355 21.5501 6.88043 23.313 5.09733C25.0759 3.31423 26.3001 4.31355 26.3001 4.31355L27.5243 7.65441L27.8181 7.3507C27.8181 7.3507 27.8866 4.23517 27.8181 4.1274C27.7495 4.01963 27.2305 3.69632 27.2305 3.69632C27.2305 3.69632 27.064 0.659171 23.2934 0.0615383C19.5228 -0.536094 18.5239 3.4122 17.427 3.56896L17.8677 4.1274C17.8677 4.1274 17.7208 4.57807 17.7306 5.13652C17.7404 5.69496 18.9352 8.51657 18.9352 8.51657L19.4935 9.10441Z" fill="#3B2645"/>
<path d="M14.2636 19.5381C14.2636 19.5381 12.0405 20.175 12.1384 24.8091C12.1384 24.8091 9.93484 28.1205 9.69 32.0786C9.69 32.0786 4.30347 27.131 4.11739 26.5236C3.92152 25.9064 4.02925 23.7412 3.90193 23.2121C3.77462 22.6831 3.30452 22.1246 3.36328 21.38C3.42204 20.6354 3.54936 19.5871 3.4808 19.4794C3.41225 19.3716 2.38391 19.4892 2.20763 20.3415C2.03134 21.1939 1.98237 22.1638 1.98237 22.1638C1.98237 22.1638 0.327239 22.5753 0.121572 22.879C-0.0840953 23.1827 0.0334294 23.9861 0.0334294 23.9861C0.0334294 23.9861 0.0726039 26.6901 0.346827 26.9939C0.62105 27.2976 1.9334 27.9638 2.20763 28.1499C2.48185 28.3361 5.57665 35.4587 6.91839 37.0752C8.26012 38.6918 9.50392 39.1424 10.6694 38.7604C11.8348 38.3783 15.0569 34.0283 16.0951 32.01C17.1332 29.9918 16.7512 19.7733 14.2636 19.5381Z" fill="#FFEDE5"/>
<path d="M16.5847 26.2692C15.3997 25.9752 14.626 26.1516 14.626 26.1516C14.626 26.1516 16.2028 31.8536 13.7642 35.557C14.7239 34.2833 15.625 32.9117 16.0853 32.0201C16.526 31.1482 16.7121 28.7381 16.5847 26.2692Z" fill="#DF845C"/>
<path d="M9.68018 32.079L10.6008 32.755L9.71935 31.6577L9.68018 32.079Z" fill="#DF845C"/>
<path d="M0.807126 22.8301C0.807126 22.8301 2.48184 22.9574 2.56999 23.0554C2.65813 23.1534 2.79524 26.6118 2.48184 26.8469C2.15865 27.0919 0.55249 27.0527 0.55249 27.0527C0.55249 27.0527 2.47205 27.229 2.67772 27.1409C2.88339 27.0527 3.25555 25.8378 3.3241 25.2108C3.39266 24.5838 3.00091 22.928 2.854 22.8889C2.7071 22.8497 0.807126 22.8301 0.807126 22.8301Z" fill="#DF845C"/>
<path d="M35.5453 92.234C35.6139 90.0786 35.8391 86.9141 35.7999 83.9848C35.7412 79.7719 35.3201 75.0301 35.1144 73.6487C34.8989 72.2672 35.3984 65.8696 35.3984 65.8696L26.5449 67.1041C26.7604 67.7899 28.3665 73.8054 28.4351 76.4311C28.5134 79.0567 31.7356 91.2837 31.8629 92.2634C31.8825 92.3908 31.8923 92.528 31.9119 92.6651C32.7247 92.7631 34.2819 92.8415 35.5453 92.234Z" fill="#FFEDE5"/>
<path d="M32.803 95.3592C32.803 95.3592 32.7051 94.3109 33.8803 94.0562C35.0556 93.8014 35.5942 94.3893 35.5942 94.3893C35.5257 93.9288 35.5257 93.1744 35.5551 92.2339C34.2917 92.8413 32.7345 92.7629 31.9314 92.665C32.0097 93.4292 32.0293 94.3403 31.951 95.0849C32.0783 95.418 32.803 95.3592 32.803 95.3592Z" fill="white"/>
<path d="M31.5692 99.8272C32.8228 100.484 32.4604 101.953 34.0274 102.316C35.33 102.619 37.3083 102.443 38.082 102.355C38.2877 102.335 38.4541 102.169 38.4933 101.963C38.5129 101.816 38.5325 101.62 38.5227 101.414C37.5433 101.502 35.2418 101.679 34.3212 101.453C33.146 101.169 32.862 99.9643 32.2743 99.6312C31.8336 99.3863 31.5496 99.063 31.4321 98.916C31.4125 99.1218 31.3831 99.2981 31.3733 99.4255C31.3341 99.6018 31.4223 99.7586 31.5692 99.8272Z" fill="#3B2645"/>
<path d="M38.082 100.101C37.847 99.7681 37.5042 99.0529 37.1516 98.2397C36.946 98.9745 34.5955 98.6316 34.2919 98.5532C33.9883 98.4748 32.813 95.3593 32.813 95.3593C32.813 95.3593 32.0883 95.4083 31.9512 95.0752C31.9316 95.2417 31.912 95.4083 31.8826 95.5553C31.7651 96.1823 31.5497 97.8968 31.4321 98.9157C31.5497 99.0627 31.8337 99.3762 32.2744 99.6309C32.8718 99.964 33.146 101.169 34.3213 101.453C35.2419 101.679 37.5434 101.502 38.5227 101.414C38.4934 101.022 38.3954 100.552 38.082 100.101Z" fill="#AB8DA8"/>
<path d="M34.2819 98.5536C34.5855 98.632 36.936 98.9749 37.1416 98.2401C36.3973 96.5354 35.5845 94.3898 35.5845 94.3898C35.5845 94.3898 35.0458 93.802 33.8706 94.0567C32.6953 94.3114 32.7933 95.3597 32.7933 95.3597C32.7933 95.3597 33.9783 98.4851 34.2819 98.5536Z" fill="#3B2645"/>
<path d="M32.3464 73.9559C33.2763 73.8113 34.0013 73.5077 33.9655 73.2778C33.9298 73.0479 33.147 72.9788 32.217 73.1234C31.2871 73.268 30.5622 73.5716 30.5979 73.8015C30.6336 74.0314 31.4164 74.1006 32.3464 73.9559Z" fill="#E0855C"/>
<path d="M10.4541 92.4008C10.4639 90.2356 10.5814 87.0907 10.7185 84.1613C10.9634 78.959 12.0994 74.3837 12.0994 73.8252C12.0994 71.611 12.3541 64.7432 12.4912 64.9097L20.6885 66.8986C20.4534 67.5746 18.2107 73.257 18.0442 75.8826C17.8777 78.5083 14.2932 91.5876 14.1267 92.5576C14.1071 92.6849 14.0876 92.8123 14.068 92.9592C13.2551 93.018 11.6979 93.0474 10.4541 92.4008Z" fill="#FFEDE5"/>
<path d="M13.0885 95.6144C13.0885 95.6144 13.2256 94.5661 12.0601 94.2722C10.8947 93.9783 10.3364 94.5465 10.3364 94.5465C10.4246 94.0861 10.4539 93.3317 10.4539 92.3911C11.6977 93.0377 13.2549 93.0083 14.0678 92.9398C13.9699 93.6942 13.9111 94.6053 13.9699 95.3597C13.8034 95.6928 13.0885 95.6144 13.0885 95.6144Z" fill="white"/>
<path d="M14.1657 100.121C12.8827 100.738 13.2059 102.217 11.6292 102.521C10.3168 102.776 8.34827 102.541 7.57457 102.423C7.3689 102.394 7.20241 102.227 7.18282 102.011C7.16324 101.865 7.15344 101.669 7.17303 101.463C8.1524 101.58 10.4441 101.835 11.3745 101.649C12.5596 101.404 12.8827 100.209 13.4802 99.8953C13.9307 99.6601 14.2245 99.3564 14.3518 99.2095C14.3714 99.4152 14.3812 99.5916 14.391 99.7287C14.4106 99.8953 14.3126 100.052 14.1657 100.121Z" fill="#3B2645"/>
<path d="M7.65299 100.18C7.89783 99.8563 8.26999 99.1509 8.65194 98.3475C8.83802 99.0921 11.1885 98.8276 11.5019 98.759C11.8153 98.6904 13.0885 95.6141 13.0885 95.6141C13.0885 95.6141 13.8034 95.6925 13.9601 95.3594C13.9699 95.5259 13.9895 95.6925 14.0091 95.8394C14.107 96.4763 14.2637 98.1908 14.3519 99.2097C14.2245 99.3567 13.9307 99.6604 13.4802 99.8955C12.873 100.209 12.5596 101.394 11.3746 101.649C10.454 101.845 8.15246 101.59 7.1731 101.463C7.20248 101.081 7.3298 100.611 7.65299 100.18Z" fill="#AB8DA8"/>
<path d="M11.4921 98.759C11.1787 98.8276 8.82817 99.0921 8.64209 98.3475C9.44517 96.6624 10.3266 94.5462 10.3266 94.5462C10.3266 94.5462 10.8848 93.978 12.0503 94.2719C13.2157 94.5658 13.0786 95.6141 13.0786 95.6141C13.0786 95.6141 11.8054 98.6904 11.4921 98.759Z" fill="#3B2645"/>
<path d="M16.0094 74.6616C16.0528 74.4331 15.3385 74.1053 14.4139 73.9295C13.4893 73.7537 12.7046 73.7965 12.6611 74.0251C12.6177 74.2537 13.332 74.5815 14.2566 74.7572C15.1812 74.933 15.9659 74.8902 16.0094 74.6616Z" fill="#E0855C"/>
<path d="M34.3211 47.196C34.3211 47.196 35.9664 57.6203 35.3984 65.8696C35.3984 65.8696 32.2154 68.2503 24.782 66.8297L23.6362 60.2753L21.7558 66.8689C21.7558 66.8689 14.0482 67.3294 11.9817 64.3412C11.9817 64.3412 13.0884 51.9771 15.4291 46.9805C17.7698 41.9839 33.5572 43.1008 34.3211 47.196Z" fill="#3B2645"/>
<path d="M23.6363 60.2752C23.6363 60.2752 22.7156 59.4621 22.6177 59.3837C22.5198 59.3053 21.6677 55.9351 21.6677 55.9351L22.6079 63.8806L23.6363 60.2752Z" fill="#3B2645"/>
<path d="M27.8476 66.0461C26.1924 66.0461 24.9976 65.9188 24.9682 65.9188C24.9389 65.9188 24.9193 65.8894 24.9291 65.86C24.9291 65.8306 24.9584 65.811 24.9878 65.8208C25.0564 65.8306 31.6279 66.5262 35.4573 64.5961C35.4769 64.5863 35.5062 64.5961 35.5258 64.6157C35.5356 64.6353 35.5258 64.6647 35.5062 64.6843C33.2635 65.811 30.1197 66.0461 27.8476 66.0461Z" fill="white"/>
<path d="M22.0596 65.8504C22.0498 65.8504 22.0596 65.8504 22.0596 65.8504C14.9298 65.2528 12.0994 63.2639 12.07 63.2443C12.0504 63.2247 12.0407 63.1953 12.0602 63.1757C12.0798 63.1562 12.1092 63.1464 12.1288 63.166C12.1582 63.1855 14.969 65.1548 22.0694 65.7524C22.0988 65.7524 22.1183 65.7818 22.1183 65.8014C22.0988 65.8308 22.0792 65.8504 22.0596 65.8504Z" fill="white"/>
<path d="M29.5418 16.4229C29.5418 16.4229 28.0336 19.4502 24.5764 19.6755C21.1192 19.9009 19.7775 17.3928 19.7775 17.3928L14.2637 19.5482C14.2637 19.5482 15.2626 23.0948 14.626 26.1613C14.626 26.1613 16.0853 31.3735 16.0853 32.0299C16.0853 32.6863 17.3095 35.4687 17.3879 36.1251C17.4662 36.7815 15.4291 46.9903 15.4291 46.9903C15.4291 46.9903 25.164 49.8511 27.4264 49.7531C29.6887 49.6551 34.3211 47.196 34.3211 47.196C34.3211 47.196 33.8608 38.643 34.3211 36.5366C34.7814 34.4302 36.5051 28.7968 36.5051 28.7968C36.5051 28.7968 35.0459 21.4195 35.4572 18.4803L29.5418 16.4229Z" fill="#AB8DA8"/>
<path d="M35.3887 28.6795C35.3398 28.6795 35.3006 28.6501 35.2908 28.6011C34.4289 25.0741 34.2625 18.167 34.2625 18.0985C34.2625 18.0397 34.3016 18.0005 34.3604 18.0005C34.4192 18.0005 34.4583 18.0397 34.4583 18.0985C34.4583 18.167 34.6248 25.0545 35.4867 28.5619C35.4965 28.6109 35.4671 28.6697 35.4181 28.6795C35.3985 28.6795 35.3887 28.6795 35.3887 28.6795Z" fill="#472938"/>
<path d="M14.9492 27.4154C14.9296 27.4154 14.9003 27.4056 14.8807 27.3958C14.8415 27.3566 14.8317 27.2978 14.8709 27.2586C16.5946 25.3089 15.008 19.3032 14.9884 19.2444C14.9786 19.1955 15.008 19.1367 15.057 19.1269C15.1059 19.1171 15.1647 19.1465 15.1745 19.1955C15.243 19.4502 16.8002 25.3579 15.008 27.386C14.9982 27.4056 14.9688 27.4154 14.9492 27.4154Z" fill="#472938"/>
<path d="M24.0476 20.7436C20.6198 20.7436 18.8471 17.8044 18.8275 17.7652C18.7981 17.7162 18.8177 17.6574 18.8667 17.628C18.9157 17.5986 18.9744 17.6182 19.0038 17.6672C19.0234 17.6966 20.8744 20.773 24.4491 20.528C27.348 20.3321 28.915 18.4706 29.4341 17.8534C29.6104 17.6378 29.6593 17.5888 29.7377 17.6084C29.7769 17.6182 29.8062 17.6476 29.816 17.6868C29.8356 17.7358 29.8062 17.7946 29.7475 17.8044C29.7377 17.8044 29.7377 17.8044 29.7279 17.8044C29.6985 17.8338 29.6397 17.9122 29.581 17.9807C29.0521 18.6078 27.446 20.5182 24.4589 20.724C24.3218 20.7436 24.1847 20.7436 24.0476 20.7436Z" fill="#472938"/>
<path d="M35.4572 18.4803C35.4572 18.4803 39.0221 18.2844 39.7763 23.908C39.7763 23.908 43.4391 30.864 43.8602 33.088C44.2814 35.312 43.5272 38.4471 42.6066 40.0539C41.686 41.6606 38.6206 46.8532 38.0624 47.6467C37.5041 48.4403 37.5923 48.6461 36.133 48.7538C36.133 48.7538 35.0557 48.9498 34.8402 49.0477C34.6248 49.1457 33.3222 49.8413 33.0578 49.7434C32.7934 49.6552 32.5387 49.3025 32.5877 49.2339C32.6465 49.1555 34.0078 48.4207 34.0078 48.4207C34.0078 48.4207 31.814 48.793 31.6083 48.7832C31.4027 48.7734 31.0991 48.3129 31.0991 48.3129C31.0991 48.3129 30.3841 47.9896 30.296 47.7349C30.2078 47.4802 30.9913 46.9707 30.9913 46.9707C30.9913 46.9707 30.5212 46.8532 30.3547 46.6082C30.1882 46.3633 33.097 44.8055 33.4495 44.8251C33.8021 44.8447 36.1918 45.1484 36.1918 45.1484C36.1918 45.1484 39.3649 34.9397 39.3943 34.3029C39.4237 33.6661 36.8773 31.011 36.4856 28.7968C36.5052 28.7968 34.8696 21.0962 35.4572 18.4803Z" fill="#FFEDE5"/>
<path d="M30.9619 48.3424C30.9227 48.3424 30.8933 48.3228 30.8737 48.2836C30.8541 48.2346 30.8737 48.1759 30.9227 48.1563L33.1361 47.1472C33.185 47.1276 33.2438 47.1472 33.2634 47.1961C33.283 47.2451 33.2634 47.3039 33.2144 47.3235L31.001 48.3326C30.9912 48.3424 30.9814 48.3424 30.9619 48.3424Z" fill="#472938"/>
<path d="M31.0109 47.0787C30.9717 47.0787 30.9423 47.0591 30.9227 47.0297C30.8934 46.9807 30.9129 46.9219 30.9619 46.8925L33.1263 45.7365C33.1753 45.7071 33.234 45.7267 33.2634 45.7757C33.2928 45.8246 33.2732 45.8834 33.2242 45.9128L31.0599 47.0689C31.0403 47.0689 31.0207 47.0787 31.0109 47.0787Z" fill="#472938"/>
</svg>
