<svg width="30" height="10" viewBox="0 0 30 10" fill="none" xmlns="http://www.w3.org/2000/svg">
<path d="M6.51 4.88912C7.06067 4.99179 7.51333 5.26712 7.868 5.71512C8.22267 6.16312 8.4 6.67646 8.4 7.25512C8.4 7.77779 8.26933 8.23979 8.008 8.64112C7.756 9.03312 7.38733 9.34112 6.902 9.56512C6.41667 9.78912 5.84267 9.90112 5.18 9.90112H0.966V0.129123H4.998C5.66067 0.129123 6.23 0.236456 6.706 0.451123C7.19133 0.66579 7.55533 0.964456 7.798 1.34712C8.05 1.72979 8.176 2.16379 8.176 2.64912C8.176 3.21846 8.022 3.69446 7.714 4.07712C7.41533 4.45979 7.014 4.73046 6.51 4.88912ZM2.926 4.16112H4.718C5.18467 4.16112 5.544 4.05846 5.796 3.85312C6.048 3.63846 6.174 3.33512 6.174 2.94312C6.174 2.55112 6.048 2.24779 5.796 2.03312C5.544 1.81846 5.18467 1.71112 4.718 1.71112H2.926V4.16112ZM4.9 8.30512C5.376 8.30512 5.74467 8.19312 6.006 7.96912C6.27667 7.74512 6.412 7.42779 6.412 7.01712C6.412 6.59712 6.272 6.27046 5.992 6.03712C5.712 5.79446 5.334 5.67312 4.858 5.67312H2.926V8.30512H4.9ZM17.0881 3.15312C17.0881 3.67579 16.9621 4.16579 16.7101 4.62312C16.4674 5.08046 16.0801 5.44912 15.5481 5.72912C15.0254 6.00912 14.3628 6.14912 13.5601 6.14912H11.9221V9.90112H9.96209V0.129123H13.5601C14.3161 0.129123 14.9601 0.25979 15.4921 0.521123C16.0241 0.782456 16.4208 1.14179 16.6821 1.59912C16.9528 2.05646 17.0881 2.57446 17.0881 3.15312ZM13.4761 4.56712C14.0174 4.56712 14.4188 4.44579 14.6801 4.20312C14.9414 3.95112 15.0721 3.60112 15.0721 3.15312C15.0721 2.20112 14.5401 1.72512 13.4761 1.72512H11.9221V4.56712H13.4761ZM29.1337 0.129123V9.90112H27.1737V3.54512L24.5557 9.90112H23.0717L20.4397 3.54512V9.90112H18.4797V0.129123H20.7057L23.8137 7.39512L26.9217 0.129123H29.1337Z" fill="#7B6F72"/>
</svg>
