<svg width="67" height="44" viewBox="0 0 67 44" fill="none" xmlns="http://www.w3.org/2000/svg">
<path d="M21.1698 41.8491H66.3036C66.7441 41.8491 67.0511 41.4959 66.9924 41.0578L62.4301 7.51804C62.3714 7.07987 61.971 6.72668 61.5385 6.72668H17.0186C16.5862 6.72668 16.2765 7.07987 16.3272 7.51804L20.2808 41.0578C20.3342 41.4959 20.732 41.8491 21.1698 41.8491Z" fill="#3B2645"/>
<path d="M20.7291 41.8491H65.8629C66.3033 41.8491 66.6103 41.4959 66.5516 41.0578L61.9867 7.51804C61.928 7.07987 61.5275 6.72668 61.0951 6.72668H16.578C16.1455 6.72668 15.8358 7.07987 15.8865 7.51804L19.8401 41.0578C19.8935 41.4959 20.2913 41.8491 20.7291 41.8491Z" fill="url(#paint0_linear_923_3455)"/>
<path opacity="0.3" d="M64.1171 23.1701L59.4614 41.8493H46.677L62.0776 8.17676L64.1171 23.1701Z" fill="#543753"/>
<path d="M57.3898 41.8491H12.256C11.8155 41.8491 11.5085 41.4959 11.5673 41.0578L16.1295 7.51804C16.1882 7.07987 16.5886 6.72668 17.0211 6.72668H61.5382C61.9707 6.72668 62.2804 7.07987 62.2297 7.51804L58.2761 41.0578C58.2254 41.4959 57.8276 41.8491 57.3898 41.8491Z" fill="#3B2645"/>
<path d="M56.9468 41.8491H11.8156C11.3751 41.8491 11.0681 41.4959 11.1268 41.0578L15.6891 7.51804C15.7478 7.07987 16.1482 6.72668 16.5807 6.72668H61.0979C61.5304 6.72668 61.84 7.07987 61.7893 7.51804L57.8357 41.0578C57.785 41.4959 57.3872 41.8491 56.9468 41.8491Z" fill="url(#paint1_linear_923_3455)"/>
<path d="M56.2685 40.9888H12.7284C12.6163 40.9888 12.5148 40.9463 12.4454 40.8667C12.376 40.787 12.344 40.6808 12.36 40.5666L16.0894 13.055C16.1187 12.8319 16.3269 12.6487 16.5485 12.6487H59.6134C59.7229 12.6487 59.8243 12.6912 59.8937 12.7708C59.9658 12.8505 59.9978 12.9567 59.9845 13.0709L56.7277 40.5799C56.701 40.8056 56.4954 40.9888 56.2685 40.9888ZM16.5485 12.7682C16.383 12.7682 16.2282 12.9036 16.2068 13.0709L12.4775 40.5825C12.4668 40.6595 12.4881 40.7339 12.5335 40.787C12.5816 40.8401 12.6483 40.8693 12.7257 40.8693H56.2658C56.434 40.8693 56.5862 40.7339 56.6049 40.5666L59.8617 13.0576C59.8724 12.978 59.8483 12.9063 59.8003 12.8505C59.7522 12.7974 59.6855 12.7682 59.6107 12.7682H16.5485Z" fill="white"/>
<path d="M48.0064 11.6927H29.9523C29.6694 11.6927 29.4157 11.5812 29.2369 11.382C29.0554 11.1749 28.9753 10.9013 29.0126 10.6066C29.0901 10.017 29.6293 9.53638 30.2166 9.53638H48.2573C48.5403 9.53638 48.7966 9.64791 48.9728 9.84708C49.157 10.0542 49.237 10.3277 49.2023 10.6198C49.1303 11.212 48.5937 11.6927 48.0064 11.6927ZM30.2166 9.65322C29.688 9.65322 29.2022 10.0861 29.1301 10.6198C29.0954 10.8774 29.1648 11.1217 29.325 11.2997C29.4798 11.4749 29.7014 11.5705 29.9497 11.5705H48.0037C48.5323 11.5705 49.0155 11.1377 49.0822 10.6039C49.1142 10.3463 49.0422 10.102 48.882 9.92409C48.7272 9.74882 48.5029 9.65322 48.2547 9.65322H30.2166Z" fill="white"/>
<path d="M39.5841 18.5784H35.0886L35.5424 15.0226H40.0326L39.5841 18.5784Z" fill="#F2F9FF"/>
<path d="M45.361 18.5784H40.8628L41.3113 15.0226H45.8014L45.361 18.5784Z" fill="#F2F9FF"/>
<path d="M51.1378 18.5784H46.6396L47.0774 15.0226H51.5702L51.1378 18.5784Z" fill="#F2F9FF"/>
<path d="M56.9147 18.5784H52.4165L52.8463 15.0226H57.3365L56.9147 18.5784Z" fill="url(#paint2_radial_923_3455)"/>
<path d="M21.5647 23.7832H17.0586L17.5364 20.2274H22.0373L21.5647 23.7832Z" fill="#F2F9FF"/>
<path d="M27.3524 23.7832H22.8462L23.316 20.2274H27.8169L27.3524 23.7832Z" fill="#F2F9FF"/>
<path d="M33.1397 23.7832H28.6335L29.0954 20.2274H33.5962L33.1397 23.7832Z" fill="#F2F9FF"/>
<path d="M38.9273 23.7832H34.4211L34.875 20.2274H39.3758L38.9273 23.7832Z" fill="#F2F9FF"/>
<path d="M44.7176 23.7832H40.2087L40.6572 20.2274H45.1554L44.7176 23.7832Z" fill="#F2F9FF"/>
<path d="M50.5052 23.7832H45.9963L46.4368 20.2274H50.9376L50.5052 23.7832Z" fill="#F2F9FF"/>
<path d="M56.2926 23.7832H51.7864L52.2162 20.2274H56.717L56.2926 23.7832Z" fill="url(#paint3_radial_923_3455)"/>
<path d="M20.8733 28.991H16.3564L16.8343 25.4352H21.3458L20.8733 28.991Z" fill="#F2F9FF"/>
<path d="M26.6714 28.991H22.1572L22.6271 25.4352H27.1359L26.6714 28.991Z" fill="#F2F9FF"/>
<path d="M32.4724 28.991H27.9556L28.4201 25.4352H32.9289L32.4724 28.991Z" fill="#F2F9FF"/>
<path d="M38.2705 28.991H33.7563L34.2102 25.4352H38.719L38.2705 28.991Z" fill="#F2F9FF"/>
<path d="M44.0715 28.991H39.5547L40.0032 25.4352H44.512L44.0715 28.991Z" fill="#F2F9FF"/>
<path d="M49.8725 28.991H45.3557L45.7935 25.4352H50.305L49.8725 28.991Z" fill="#F2F9FF"/>
<path d="M55.6707 28.991H51.1538L51.5863 25.4352H56.0951L55.6707 28.991Z" fill="url(#paint4_radial_923_3455)"/>
<path d="M20.1818 34.1986H15.6543L16.1348 30.6428H20.6543L20.1818 34.1986Z" fill="#F2F9FF"/>
<path d="M25.9933 34.1986H21.4658L21.9383 30.6428H26.4578L25.9933 34.1986Z" fill="#F2F9FF"/>
<path d="M31.8051 34.1986H27.2776L27.7421 30.6428H32.2616L31.8051 34.1986Z" fill="#F2F9FF"/>
<path d="M37.6166 34.1986H33.0891L33.5456 30.6428H38.0625L37.6166 34.1986Z" fill="#F2F9FF"/>
<path d="M43.4255 34.1986H38.9006L39.3491 30.6428H43.866L43.4255 34.1986Z" fill="#F2F9FF"/>
<path d="M49.237 34.1986H44.7122L45.1526 30.6428H49.6695L49.237 34.1986Z" fill="#F2F9FF"/>
<path d="M55.0488 34.1986H50.5239L50.9564 30.6428H55.4733L55.0488 34.1986Z" fill="url(#paint5_radial_923_3455)"/>
<path d="M19.4877 39.4036H14.9548L15.4327 35.8478H19.9602L19.4877 39.4036Z" fill="#F2F9FF"/>
<path d="M25.3129 39.4036H20.7773L21.2499 35.8478H25.7774L25.3129 39.4036Z" fill="#F2F9FF"/>
<path d="M31.1349 39.4036H26.6021L27.0639 35.8478H31.5914L31.1349 39.4036Z" fill="#F2F9FF"/>
<path d="M36.9599 39.4036H32.4243L32.8781 35.8478H37.4083L36.9599 39.4036Z" fill="#F2F9FF"/>
<path d="M42.7821 39.4036H38.2466L38.6951 35.8478H43.2226L42.7821 39.4036Z" fill="#FDF8EE"/>
<path d="M57.4805 13.9976H52.9904C52.8916 13.9976 52.8115 13.9179 52.8115 13.8196C52.8115 13.7214 52.8916 13.6417 52.9904 13.6417H57.4805C57.5793 13.6417 57.6594 13.7214 57.6594 13.8196C57.6594 13.9179 57.5793 13.9976 57.4805 13.9976Z" fill="#F2F9FF"/>
<path d="M51.7144 13.9976H47.2243C47.1255 13.9976 47.0454 13.9179 47.0454 13.8196C47.0454 13.7214 47.1255 13.6417 47.2243 13.6417H51.7144C51.8132 13.6417 51.8933 13.7214 51.8933 13.8196C51.8933 13.9179 51.8132 13.9976 51.7144 13.9976Z" fill="url(#paint6_radial_923_3455)"/>
<path d="M45.951 13.9976H41.4608C41.3621 13.9976 41.282 13.9179 41.282 13.8196C41.282 13.7214 41.3621 13.6417 41.4608 13.6417H45.951C46.0498 13.6417 46.1299 13.7214 46.1299 13.8196C46.1299 13.9179 46.0498 13.9976 45.951 13.9976Z" fill="url(#paint7_radial_923_3455)"/>
<path d="M40.1846 13.9976H35.6945C35.5957 13.9976 35.5156 13.9179 35.5156 13.8196C35.5156 13.7214 35.5957 13.6417 35.6945 13.6417H40.1846C40.2834 13.6417 40.3635 13.7214 40.3635 13.8196C40.3635 13.9179 40.2834 13.9976 40.1846 13.9976Z" fill="url(#paint8_radial_923_3455)"/>
<path d="M34.4186 13.9976H29.9284C29.8296 13.9976 29.7495 13.9179 29.7495 13.8196C29.7495 13.7214 29.8296 13.6417 29.9284 13.6417H34.4186C34.5173 13.6417 34.5974 13.7214 34.5974 13.8196C34.5974 13.9179 34.5173 13.9976 34.4186 13.9976Z" fill="url(#paint9_radial_923_3455)"/>
<path d="M28.6549 13.9976H24.1647C24.0659 13.9976 23.9858 13.9179 23.9858 13.8196C23.9858 13.7214 24.0659 13.6417 24.1647 13.6417H28.6549C28.7536 13.6417 28.8337 13.7214 28.8337 13.8196C28.8337 13.9179 28.7536 13.9976 28.6549 13.9976Z" fill="url(#paint10_radial_923_3455)"/>
<path d="M22.8887 13.9976H18.3986C18.2998 13.9976 18.2197 13.9179 18.2197 13.8196C18.2197 13.7214 18.2998 13.6417 18.3986 13.6417H22.8887C22.9875 13.6417 23.0676 13.7214 23.0676 13.8196C23.0676 13.9179 22.9875 13.9976 22.8887 13.9976Z" fill="url(#paint11_radial_923_3455)"/>
<path d="M20.6037 8.17682C20.5716 8.41847 20.3501 8.61498 20.1098 8.61498C19.8695 8.61498 19.7014 8.41847 19.7334 8.17682C19.7654 7.93516 19.987 7.73865 20.2273 7.73865C20.4675 7.73865 20.6384 7.93516 20.6037 8.17682Z" fill="#3B2645"/>
<path d="M20.4142 5.05371C20.0324 5.05371 19.64 5.18649 19.3117 5.42815C18.8685 5.75212 18.5749 6.23544 18.5055 6.75062C18.38 7.68538 19.0314 8.44752 19.9604 8.44752C20.0164 8.44752 20.0725 8.44487 20.1285 8.43956C20.2727 8.42628 20.3955 8.29616 20.4008 8.15276C20.4062 8.00935 20.2941 7.90313 20.1472 7.91641C20.1099 7.91907 20.0698 7.92172 20.0324 7.92172C19.3917 7.92172 18.9406 7.39592 19.0287 6.75062C19.0767 6.39477 19.2796 6.06017 19.5866 5.8371C19.8162 5.66715 20.0805 5.57951 20.3474 5.57951C20.9801 5.57951 21.4259 6.09204 21.3539 6.72937H21.8744C21.9812 5.80258 21.3325 5.05371 20.4142 5.05371Z" fill="#5080C0"/>
<path d="M20.6037 8.17682C20.5716 8.41847 20.3501 8.61498 20.1098 8.61498C19.8695 8.61498 19.7014 8.41847 19.7334 8.17682C19.7654 7.93516 19.987 7.73865 20.2273 7.73865C20.4675 7.73865 20.6384 7.93516 20.6037 8.17682Z" fill="#3B2645"/>
<path d="M20.4142 5.05371C20.0324 5.05371 19.64 5.18649 19.3117 5.42815C18.8685 5.75212 18.5749 6.23544 18.5055 6.75062C18.38 7.68538 19.0314 8.44752 19.9604 8.44752C20.0164 8.44752 20.0725 8.44487 20.1285 8.43956C20.2727 8.42628 20.3955 8.29616 20.4008 8.15276C20.4062 8.00935 20.2941 7.90313 20.1472 7.91641C20.1099 7.91907 20.0698 7.92172 20.0324 7.92172C19.3917 7.92172 18.9406 7.39592 19.0287 6.75062C19.0767 6.39477 19.2796 6.06017 19.5866 5.8371C19.8162 5.66715 20.0805 5.57951 20.3474 5.57951C20.9801 5.57951 21.4259 6.09204 21.3539 6.72937H21.8744C21.9812 5.80258 21.3325 5.05371 20.4142 5.05371Z" fill="url(#paint12_linear_923_3455)"/>
<path d="M25.3048 8.17682C25.2728 8.41847 25.0512 8.61498 24.811 8.61498C24.5707 8.61498 24.4025 8.41847 24.4346 8.17682C24.4666 7.93516 24.6882 7.73865 24.9284 7.73865C25.1687 7.73865 25.3369 7.93516 25.3048 8.17682Z" fill="#3B2645"/>
<path d="M25.1073 5.05371C24.7255 5.05371 24.3331 5.18649 24.0047 5.42815C23.5616 5.75212 23.2679 6.23544 23.1985 6.75062C23.0731 7.68538 23.7271 8.44752 24.6561 8.44752C24.7122 8.44752 24.7682 8.44487 24.8243 8.43956C24.9684 8.42628 25.0912 8.29616 25.0966 8.15276C25.1019 8.00935 24.9871 7.90313 24.843 7.91641C24.8056 7.91907 24.7655 7.92172 24.7282 7.92172C24.0875 7.92172 23.6363 7.39592 23.7218 6.75062C23.7698 6.39477 23.9727 6.06017 24.277 5.8371C24.5066 5.66715 24.7709 5.57951 25.0378 5.57951C25.6705 5.57951 26.119 6.09204 26.0469 6.72937H26.5675C26.6769 5.80258 26.0282 5.05371 25.1073 5.05371Z" fill="url(#paint13_linear_923_3455)"/>
<path d="M30.0057 8.17682C29.9736 8.41847 29.7547 8.61498 29.5145 8.61498C29.2742 8.61498 29.106 8.41847 29.1354 8.17682C29.1674 7.93516 29.3863 7.73865 29.6266 7.73865C29.8695 7.73865 30.0377 7.93516 30.0057 8.17682Z" fill="#3B2645"/>
<path d="M29.8029 5.05371C29.4212 5.05371 29.0288 5.18649 28.7004 5.42815C28.2573 5.75212 27.9663 6.23544 27.8969 6.75062C27.7741 7.68538 28.4281 8.44752 29.3571 8.44752C29.4132 8.44752 29.4692 8.44487 29.5253 8.43956C29.6695 8.42628 29.7923 8.29616 29.7949 8.15276C29.8003 8.00935 29.6855 7.90313 29.5413 7.91641C29.504 7.91907 29.4639 7.92172 29.4265 7.92172C28.7859 7.92172 28.332 7.39592 28.4175 6.75062C28.4655 6.39477 28.6657 6.06017 28.9727 5.8371C29.2023 5.66715 29.4666 5.57951 29.7335 5.57951C30.3662 5.57951 30.8147 6.09204 30.7453 6.72937H31.2658C31.3726 5.80258 30.7213 5.05371 29.8029 5.05371Z" fill="url(#paint14_linear_923_3455)"/>
<path d="M34.7069 8.17682C34.6748 8.41847 34.4559 8.61498 34.2157 8.61498C33.9754 8.61498 33.8046 8.41847 33.8366 8.17682C33.8687 7.93516 34.0876 7.73865 34.3278 7.73865C34.5681 7.73865 34.7389 7.93516 34.7069 8.17682Z" fill="#3B2645"/>
<path d="M34.4986 5.05371C34.1169 5.05371 33.7271 5.18649 33.3988 5.42815C32.9583 5.75212 32.6647 6.23544 32.5979 6.75062C32.4778 7.68538 33.1345 8.44752 34.0608 8.44752C34.1169 8.44752 34.1729 8.44487 34.229 8.43956C34.3732 8.42628 34.496 8.29616 34.4986 8.15276C34.504 8.00935 34.3892 7.90313 34.245 7.91641C34.2077 7.91907 34.1676 7.92172 34.1302 7.92172C33.4895 7.92172 33.0357 7.39592 33.1185 6.75062C33.1639 6.39477 33.3667 6.06017 33.6711 5.8371C33.9007 5.66715 34.1649 5.57951 34.4319 5.57951C35.0646 5.57951 35.5131 6.09204 35.4436 6.72937H35.9642C36.0683 5.80258 35.417 5.05371 34.4986 5.05371Z" fill="url(#paint15_linear_923_3455)"/>
<path d="M39.4078 8.17682C39.3785 8.41847 39.1569 8.61498 38.9166 8.61498C38.6764 8.61498 38.5055 8.41847 38.5376 8.17682C38.5696 7.93516 38.7885 7.73865 39.0288 7.73865C39.269 7.73865 39.4372 7.93516 39.4078 8.17682Z" fill="#3B2645"/>
<path d="M39.1917 5.05371C38.8099 5.05371 38.4202 5.18649 38.0919 5.42815C37.6514 5.75212 37.3604 6.23544 37.2937 6.75062C37.1735 7.68538 37.8329 8.44752 38.7619 8.44752C38.818 8.44752 38.874 8.44487 38.9301 8.43956C39.0742 8.42628 39.197 8.29616 39.1997 8.15276C39.205 8.00935 39.0902 7.90313 38.9461 7.91641C38.9087 7.91907 38.8687 7.92172 38.8313 7.92172C38.1906 7.92172 37.7368 7.39592 37.8169 6.75062C37.8623 6.39477 38.0625 6.06017 38.3668 5.8371C38.5964 5.66715 38.858 5.57951 39.1276 5.57951C39.7603 5.57951 40.2114 6.09204 40.142 6.72937H40.6626C40.7667 5.80258 40.1127 5.05371 39.1917 5.05371Z" fill="url(#paint16_linear_923_3455)"/>
<path d="M44.109 8.17682C44.0796 8.41847 43.8607 8.61498 43.6178 8.61498C43.3775 8.61498 43.2067 8.41847 43.2387 8.17682C43.2681 7.93516 43.4897 7.73865 43.7299 7.73865C43.9702 7.73865 44.1384 7.93516 44.109 8.17682Z" fill="#3B2645"/>
<path d="M43.8875 5.05371C43.5057 5.05371 43.1159 5.18649 42.7876 5.42815C42.3471 5.75212 42.0561 6.23544 41.9921 6.75062C41.8746 7.68538 42.534 8.44752 43.463 8.44752C43.5191 8.44752 43.5751 8.44487 43.6312 8.43956C43.7753 8.42628 43.8955 8.29616 43.9008 8.15276C43.9035 8.00935 43.7913 7.90313 43.6445 7.91641C43.6071 7.91907 43.5671 7.92172 43.5297 7.92172C42.889 7.92172 42.4325 7.39592 42.5153 6.75062C42.5607 6.39477 42.7609 6.06017 43.0652 5.8371C43.2948 5.66715 43.5564 5.57951 43.8234 5.57951C44.4561 5.57951 44.9072 6.09204 44.8405 6.72937H45.361C45.4625 5.80258 44.8058 5.05371 43.8875 5.05371Z" fill="url(#paint17_linear_923_3455)"/>
<path d="M48.8074 8.17682C48.778 8.41847 48.5591 8.61498 48.3189 8.61498C48.0786 8.61498 47.9078 8.41847 47.9371 8.17682C47.9665 7.93516 48.1854 7.73865 48.4257 7.73865C48.6686 7.73865 48.8394 7.93516 48.8074 8.17682Z" fill="#3B2645"/>
<path d="M48.5805 5.05371C48.1988 5.05371 47.809 5.18649 47.4806 5.42815C47.0402 5.75212 46.7519 6.23544 46.6878 6.75062C46.573 7.68538 47.2324 8.44752 48.1614 8.44752C48.2174 8.44752 48.2735 8.44487 48.3296 8.43956C48.4737 8.42628 48.5938 8.29616 48.5992 8.15276C48.6019 8.00935 48.4897 7.90313 48.3429 7.91641C48.3055 7.91907 48.2655 7.92172 48.2281 7.92172C47.5874 7.92172 47.1309 7.39592 47.211 6.75062C47.2564 6.39477 47.4539 6.06017 47.7583 5.8371C47.9879 5.66715 48.2495 5.57951 48.5164 5.57951C49.1491 5.57951 49.6029 6.09204 49.5362 6.72937H50.0568C50.1582 5.80258 49.5015 5.05371 48.5805 5.05371Z" fill="url(#paint18_linear_923_3455)"/>
<path d="M53.5083 8.17682C53.4789 8.41847 53.26 8.61498 53.0198 8.61498C52.7795 8.61498 52.6087 8.41847 52.638 8.17682C52.6674 7.93516 52.8863 7.73865 53.1266 7.73865C53.3668 7.73865 53.5377 7.93516 53.5083 8.17682Z" fill="#3B2645"/>
<path d="M53.2763 5.05371C52.8945 5.05371 52.5048 5.18649 52.1791 5.42815C51.7413 5.75212 51.453 6.23544 51.3889 6.75062C51.2741 7.68538 51.9362 8.44752 52.8652 8.44752C52.9212 8.44752 52.9773 8.44487 53.0333 8.43956C53.1775 8.42628 53.2976 8.29616 53.3003 8.15276C53.303 8.00935 53.1882 7.90313 53.044 7.91641C53.0066 7.91907 52.9666 7.92172 52.9292 7.92172C52.2885 7.92172 51.8294 7.39592 51.9095 6.75062C51.9522 6.39477 52.1524 6.06017 52.4567 5.8371C52.6863 5.66715 52.9479 5.57951 53.2149 5.57951C53.8475 5.57951 54.3013 6.09204 54.2373 6.72937H54.7578C54.8539 5.80258 54.1972 5.05371 53.2763 5.05371Z" fill="url(#paint19_linear_923_3455)"/>
<path d="M58.2095 8.17682C58.1801 8.41847 57.9612 8.61498 57.721 8.61498C57.4807 8.61498 57.3099 8.41847 57.3392 8.17682C57.3686 7.93516 57.5875 7.73865 57.8277 7.73865C58.068 7.73865 58.2388 7.93516 58.2095 8.17682Z" fill="#3B2645"/>
<path d="M57.972 5.05371C57.5902 5.05371 57.2005 5.18649 56.8748 5.42815C56.437 5.75212 56.1487 6.23544 56.0873 6.75062C55.9752 7.68538 56.6399 8.44752 57.5662 8.44752C57.6223 8.44752 57.6783 8.44487 57.7344 8.43956C57.8786 8.42628 57.9987 8.29616 58.0013 8.15276C58.004 8.00935 57.8892 7.90313 57.7451 7.91641C57.7077 7.91907 57.6677 7.92172 57.6303 7.92172C56.9896 7.92172 56.5304 7.39592 56.6078 6.75062C56.6506 6.39477 56.8481 6.06017 57.1524 5.8371C57.382 5.66715 57.6436 5.57951 57.9106 5.57951C58.5433 5.57951 58.9971 6.09204 58.933 6.72937H59.4536C59.5497 5.80258 58.8903 5.05371 57.972 5.05371Z" fill="url(#paint20_linear_923_3455)"/>
<path d="M26.2499 23.2284C26.2018 23.2284 26.1537 23.2098 26.119 23.1727L24.1436 21.0615C24.0768 20.9898 24.0795 20.8783 24.1516 20.8092C24.2237 20.7428 24.3358 20.7455 24.4052 20.8172L26.3807 22.9284C26.4474 23.0001 26.4447 23.1116 26.3727 23.1806C26.3353 23.2125 26.2926 23.2284 26.2499 23.2284Z" fill="#3B2645"/>
<path d="M24.0875 23.2284C24.0368 23.2284 23.9861 23.2071 23.9514 23.1646C23.8873 23.0903 23.8953 22.9787 23.9728 22.915L26.4634 20.8038C26.5382 20.7401 26.6503 20.7481 26.7144 20.8251C26.7784 20.8994 26.7704 21.011 26.693 21.0747L24.2023 23.1859C24.1703 23.2151 24.1303 23.2284 24.0875 23.2284Z" fill="#3B2645"/>
<path d="M37.0322 28.1598C36.9841 28.1598 36.9361 28.1412 36.9014 28.1041L35.1875 26.2744C35.1208 26.2027 35.1235 26.0912 35.1955 26.0221C35.2676 25.9557 35.3797 25.9584 35.4491 26.0301L37.163 27.8597C37.2297 27.9314 37.227 28.043 37.155 28.112C37.1176 28.1439 37.0749 28.1598 37.0322 28.1598Z" fill="#3B2645"/>
<path d="M35.1581 28.1598C35.1074 28.1598 35.0567 28.1385 35.022 28.0961C34.9579 28.0217 34.9659 27.9102 35.0433 27.8464L37.203 26.0167C37.2777 25.953 37.3898 25.961 37.4539 26.038C37.518 26.1123 37.51 26.2239 37.4325 26.2876L35.2729 28.1173C35.2409 28.1465 35.1981 28.1598 35.1581 28.1598Z" fill="#3B2645"/>
<path d="M42.7048 17.8985L41.9387 16.7779C41.8639 16.669 41.8933 16.5229 42.0027 16.4486C42.1122 16.3742 42.259 16.4034 42.3337 16.5123L42.8063 17.2027L44.7363 15.6333C44.8378 15.551 44.9873 15.5643 45.0727 15.6678C45.1555 15.7687 45.1421 15.9175 45.038 16.0024L42.7048 17.8985Z" fill="#3B2645"/>
<path d="M41.0176 33.16L40.481 32.374C40.4249 32.2917 40.4463 32.1828 40.529 32.127C40.6118 32.0713 40.7212 32.0925 40.7773 32.1748L41.095 32.6396L42.4191 31.5641C42.4965 31.503 42.6086 31.5136 42.67 31.588C42.7314 31.665 42.7208 31.7765 42.646 31.8376L41.0176 33.16Z" fill="#3B2645"/>
<path d="M40.6597 33.9303C39.9977 33.9303 39.7254 33.6542 39.616 33.4098C39.3116 32.73 39.9336 31.6518 40.7051 30.9348C40.7772 30.8685 40.8893 30.8711 40.9587 30.9428C41.0255 31.0145 41.0228 31.126 40.9507 31.1951C40.1979 31.8935 39.7468 32.8203 39.9443 33.2638C40.0805 33.5665 40.5236 33.5931 40.8706 33.5639C41.9865 33.4656 42.8381 32.6955 43.1024 31.9865C43.2038 31.7156 43.2012 31.4792 43.097 31.373C42.7607 31.0304 41.6982 31.4527 41.3538 31.6279C41.2657 31.6731 41.1589 31.6386 41.1136 31.5509C41.0682 31.4633 41.1029 31.3571 41.191 31.3119C41.3512 31.2296 42.7714 30.5338 43.3533 31.126C43.5615 31.3385 43.5936 31.697 43.4387 32.1113C43.1451 32.9026 42.2268 33.8055 40.9027 33.9197C40.8146 33.9277 40.7345 33.9303 40.6597 33.9303Z" fill="#3B2645"/>
<path d="M30.9133 33.4733L30.27 31.8375L29.4237 32.7457L29.1434 32.3819L28.2251 33.4707L30.9133 33.4733Z" fill="url(#paint21_radial_923_3455)"/>
<path d="M29.8669 31.6012C29.891 31.4711 29.8002 31.3676 29.6667 31.3676C29.5332 31.3676 29.4078 31.4738 29.3837 31.6012C29.3597 31.7314 29.4505 31.8349 29.584 31.8349C29.7174 31.8349 29.8429 31.7314 29.8669 31.6012Z" fill="url(#paint22_radial_923_3455)"/>
<path d="M38.6257 17.7367L37.9824 16.1008L37.1334 17.0117L36.8558 16.6452L35.9348 17.734L38.6257 17.7367Z" fill="#3B2645"/>
<path d="M37.5793 15.867C37.6033 15.7369 37.5126 15.6333 37.3791 15.6333C37.2456 15.6333 37.1202 15.7395 37.0961 15.867C37.0721 15.9971 37.1629 16.1007 37.2963 16.1007C37.4271 16.1007 37.5553 15.9945 37.5793 15.867Z" fill="#3B2645"/>
<path opacity="0.3" d="M26.538 25.8733C26.538 25.8733 26.3858 28.8236 25.964 29.9921H21.917C21.917 29.9921 22.7419 27.9446 23.0195 26.1096L26.538 25.8733Z" fill="#543753"/>
<path d="M26.5381 25.8731C26.5381 25.8731 26.4179 28.2446 25.4115 29.4369L21.2844 29.3413C21.2844 29.3413 22.5071 27.8781 22.8861 25.8705H26.5381V25.8731Z" fill="url(#paint23_radial_923_3455)"/>
<path d="M25.6572 26.9885H23.3614C23.3267 26.9885 23.3 26.9619 23.3 26.9274C23.3 26.8929 23.3267 26.8663 23.3614 26.8663H25.6572C25.692 26.8663 25.7186 26.8929 25.7186 26.9274C25.716 26.9593 25.6893 26.9885 25.6572 26.9885Z" fill="#3B2645"/>
<path d="M25.4595 27.4427H23.1637C23.129 27.4427 23.1023 27.4162 23.1023 27.3816C23.1023 27.3471 23.129 27.3206 23.1637 27.3206H25.4595C25.4942 27.3206 25.5209 27.3471 25.5209 27.3816C25.5182 27.4162 25.4915 27.4427 25.4595 27.4427Z" fill="#3B2645"/>
<path d="M25.2461 27.8994H22.9503C22.9156 27.8994 22.8889 27.8728 22.8889 27.8383C22.8889 27.8038 22.9156 27.7772 22.9503 27.7772H25.2461C25.2808 27.7772 25.3075 27.8038 25.3075 27.8383C25.3075 27.8728 25.2808 27.8994 25.2461 27.8994Z" fill="#3B2645"/>
<path d="M25.0298 28.3723H22.734C22.6993 28.3723 22.6726 28.3457 22.6726 28.3112C22.6726 28.2767 22.6993 28.2501 22.734 28.2501H25.0298C25.0645 28.2501 25.0912 28.2767 25.0912 28.3112C25.0912 28.3457 25.0645 28.3723 25.0298 28.3723Z" fill="#3B2645"/>
<path opacity="0.3" d="M44.8191 20.5542C44.8191 20.5542 44.6536 23.7781 44.1917 25.0527H39.771C39.771 25.0527 40.6706 22.8141 40.975 20.8118L44.8191 20.5542Z" fill="#543753"/>
<path d="M44.8191 20.5542C44.8191 20.5542 44.6883 23.146 43.5885 24.4473L39.0796 24.3437C39.0796 24.3437 40.4144 22.745 40.8282 20.5542H44.8191Z" fill="url(#paint24_radial_923_3455)"/>
<path d="M43.8581 21.7705H41.3487C41.3113 21.7705 41.282 21.7413 41.282 21.7041C41.282 21.6669 41.3113 21.6377 41.3487 21.6377H43.8581C43.8955 21.6377 43.9248 21.6669 43.9248 21.7041C43.9248 21.7413 43.8928 21.7705 43.8581 21.7705Z" fill="#3B2645"/>
<path d="M43.642 22.2698H41.1327C41.0953 22.2698 41.0659 22.2405 41.0659 22.2034C41.0659 22.1662 41.0953 22.137 41.1327 22.137H43.642C43.6794 22.137 43.7087 22.1662 43.7087 22.2034C43.7087 22.2405 43.6767 22.2698 43.642 22.2698Z" fill="#3B2645"/>
<path d="M43.4096 22.7688H40.9002C40.8629 22.7688 40.8335 22.7396 40.8335 22.7024C40.8335 22.6652 40.8629 22.636 40.9002 22.636H43.4096C43.447 22.636 43.4763 22.6652 43.4763 22.7024C43.4763 22.7396 43.447 22.7688 43.4096 22.7688Z" fill="#3B2645"/>
<path d="M43.1748 23.2842H40.6654C40.628 23.2842 40.5986 23.255 40.5986 23.2178C40.5986 23.1806 40.628 23.1514 40.6654 23.1514H43.1748C43.2122 23.1514 43.2415 23.1806 43.2415 23.2178C43.2415 23.255 43.2095 23.2842 43.1748 23.2842Z" fill="#3B2645"/>
<path d="M10.099 27.6099L6.1534 26.9407C6.1534 26.9407 5.48602 29.6148 5.30449 30.1406C5.12296 30.6664 4.38617 31.6224 3.72947 34.0629C3.07543 36.5007 2.01562 38.58 2.01562 38.58C2.01562 38.58 2.46144 38.5189 2.66432 38.9252C2.86721 39.3315 3.15552 40.3539 3.77218 39.9237C3.77218 39.9237 7.43478 33.5185 8.39581 31.7207C9.35685 29.9202 10.099 27.6099 10.099 27.6099Z" fill="#FFEDE5"/>
<path d="M6.15324 26.9431C6.15324 26.9431 5.97439 27.6628 5.77417 28.4276C6.8847 28.8551 8.99897 28.9162 9.63165 28.9242C9.92263 28.1567 10.0962 27.6123 10.0962 27.6123L6.15324 26.9431Z" fill="#DD825C"/>
<path d="M2.66696 38.925C2.46407 38.5187 2.01826 38.5798 2.01826 38.5798C2.01826 38.5798 0.568703 39.2304 0.0694994 40.0749C-0.28021 40.6644 0.838326 42.348 1.54308 43.3067C1.86343 43.7422 2.37064 43.9998 2.91255 43.9998H5.01348C5.05352 43.9998 5.08823 43.9653 5.08556 43.9254C5.0642 42.6083 4.5036 42.1117 4.06313 41.9948C3.61464 41.8753 3.39574 41.2008 3.66536 40.5927C3.93766 39.9846 3.77482 39.9235 3.77482 39.9235C3.15548 40.3537 2.86984 39.3313 2.66696 38.925Z" fill="#3B2645"/>
<path d="M6.68182 19.7573C6.68182 19.7573 5.59532 22.466 6.22266 23.9213L5.73413 27.5382C5.73413 27.5382 8.44905 28.9376 10.4565 28.5074C10.4565 28.5074 11.8527 24.0195 11.4149 20.4026C10.9771 16.7858 6.90072 18.5225 6.68182 19.7573Z" fill="#3B2645"/>
<path opacity="0.5" d="M9.81592 22.6467L10.7049 27.61C10.9158 26.7761 11.2121 25.4457 11.3776 23.9745L9.81592 22.6467Z" fill="#3B2645"/>
<path d="M3.17148 42.5926C2.54147 41.6127 1.33751 39.4245 0.49127 39.5679C0.323089 39.7246 0.170926 39.8972 0.0668138 40.0777C-0.282895 40.6673 0.83564 42.3509 1.5404 43.3096C1.86074 43.7451 2.36795 44.0027 2.90987 44.0027H5.01079C5.05084 44.0027 5.08554 43.9682 5.08287 43.9283C5.0802 43.8115 5.07486 43.7 5.06418 43.5964C4.73316 43.5858 3.7401 43.4769 3.17148 42.5926Z" fill="#E5E5E5"/>
<path d="M1.5404 43.3094C1.86074 43.7449 2.36795 44.0025 2.90987 44.0025H4.75185C4.28468 43.976 3.29161 43.7874 2.70164 42.7252C1.90879 41.3018 0.60606 39.5013 0.0668138 40.0776C-0.282895 40.6671 0.83564 42.3508 1.5404 43.3094Z" fill="#AFAFAF"/>
<path d="M17.6991 41.4348C17.9928 41.4773 17.9741 40.8798 17.9741 40.8798C17.9741 40.8798 16.2496 30.8789 16.02 29.9229C15.7904 28.9669 15.2058 26.0166 15.2058 26.0166L11.8208 27.5382C11.8208 27.5382 12.6831 29.8114 12.7391 30.3239C12.7952 30.8364 13.1849 33.5929 13.7696 34.7985C14.3542 36.0042 15.7904 39.2333 15.9559 41.1852C16.7808 40.5558 17.4055 41.3923 17.6991 41.4348Z" fill="#FFEDE5"/>
<path d="M15.6648 43.9125C15.6702 43.9629 15.7156 44.0028 15.7663 44.0028H21.0306C21.092 44.0028 21.1401 43.9523 21.1374 43.8939C21.1267 43.6044 21.0626 42.8343 20.6916 42.683C20.2324 42.4971 18.6974 42.1917 18.2356 41.087C18.0888 40.7338 17.982 40.8692 17.974 40.8799C17.974 40.8799 17.9927 41.4774 17.699 41.4349C17.4054 41.3924 16.7807 40.5559 15.9585 41.1852C15.9585 41.1852 15.5554 42.9618 15.6648 43.9125Z" fill="#3B2645"/>
<path d="M15.7666 44.0001H21.0309C21.0923 44.0001 21.1404 43.9496 21.1377 43.8912C21.1351 43.8169 21.1297 43.7133 21.1137 43.5964H15.6465C15.6465 43.708 15.6545 43.8142 15.6652 43.9125C15.6705 43.9629 15.7132 44.0001 15.7666 44.0001Z" fill="#E5E5E5"/>
<path d="M12.352 28.9988C12.352 28.9988 14.1006 29.336 15.5421 27.6763L15.2084 26.0166L11.8208 27.5382L12.352 28.9988Z" fill="#DD825C"/>
<path d="M14.3702 20.092C14.3702 20.092 15.374 24.3489 16.02 27.2196C16.02 27.2196 14.4663 29.1342 11.7781 28.5659C11.7781 28.5659 10.697 25.2544 10.5261 24.9225C10.3553 24.5906 8.36378 21.9562 9.22871 19.8929C10.0936 17.8295 13.5774 18.3101 14.3702 20.092Z" fill="#3B2645"/>
<path d="M12.9954 7.79669C12.9954 7.79669 10.6249 7.17529 9.81603 7.19122C9.00717 7.2045 7.78185 8.23751 7.43481 10.4257C7.08777 12.6139 7.25328 15.5377 7.08777 16.4671C6.91959 17.3965 6.29492 20.0149 6.29492 20.0548C6.29492 20.0973 9.53573 21.0559 10.697 21.0347C11.8556 21.0134 12.1999 20.8169 12.1999 20.8169C12.1999 20.8169 12.7232 19.8822 12.7525 19.922C12.7846 19.9645 13.1182 20.7426 13.1182 20.7426L14.5464 20.5115C14.5464 20.5115 14.0739 17.7046 14.0873 17.3461C14.1006 16.9849 14.6506 11.464 14.7493 11.0338C14.8428 10.6063 14.5972 8.48448 12.9954 7.79669Z" fill="#7B6F72"/>
<path opacity="0.5" d="M12.3015 11.9234L14.0955 17.208C14.1702 16.2706 14.6561 11.4375 14.7468 11.0365C14.8456 10.6063 14.5973 8.48448 12.9956 7.79669C12.9956 7.79669 10.6251 7.17529 9.81619 7.19122C9.71475 7.19387 9.60797 7.20981 9.49585 7.24433L13.3053 9.44845L12.3015 11.9234Z" fill="#543753"/>
<path d="M15.3526 3.05902C15.3526 3.05902 14.9335 6.95473 13.6921 7.56817C12.4481 8.1816 11.3723 5.38529 11.4978 4.28324C11.6232 3.18118 13.6281 1.62502 15.3526 3.05902Z" fill="#FFEDE5"/>
<path d="M13.4786 5.16239C13.4786 5.16239 13.8977 5.09601 14.0258 4.32589C14.0258 4.32589 14.549 4.17984 14.4476 3.48939C14.4476 3.48939 15.163 3.86383 15.6756 3.5664C16.1881 3.26898 16.3136 2.54401 16.2228 2.42451C16.1348 2.30501 15.9666 2.38733 15.9666 2.38733C15.9666 2.38733 16.2015 1.53755 15.1684 1.52693C14.1353 1.51365 13.2837 0.995819 12.5683 0.812585C11.8528 0.629351 10.7556 1.16046 10.7556 2.18551C10.7556 2.18551 9.46092 2.66086 10.163 5.27127C10.8651 7.88169 12.9767 6.72652 12.9767 6.72652C12.9767 6.72652 12.8058 5.21285 13.4786 5.16239Z" fill="#3B2645"/>
<path d="M13.3432 5.91485C13.615 5.84146 13.7407 5.43543 13.6241 5.00797C13.5074 4.5805 13.1926 4.29347 12.9208 4.36687C12.649 4.44026 12.5233 4.84628 12.6399 5.27375C12.7566 5.70121 13.0715 5.98824 13.3432 5.91485Z" fill="#FFEDE5"/>
<path d="M22.635 13.27L25.5875 13.9179C25.6516 13.9312 25.6943 13.8542 25.6489 13.8064L23.3851 11.6129L22.635 13.27Z" fill="#F2F9FF"/>
<path d="M22.7152 12.311C22.5204 12.7784 22.4857 13.2086 22.6351 13.2697C22.7846 13.3307 23.0649 13.0041 23.2598 12.5341C23.4547 12.0667 23.4894 11.6365 23.3399 11.5754C23.1877 11.5143 22.9074 11.8436 22.7152 12.311Z" fill="url(#paint25_radial_923_3455)"/>
<path d="M22.6351 13.2698L0.261719 2.45902L1.28148 0.00793457L23.3399 11.5756L22.6351 13.2698Z" fill="url(#paint26_radial_923_3455)"/>
<path d="M25.0884 13.809C25.1685 13.655 25.2192 13.5275 25.2485 13.424L25.657 13.8196C25.6997 13.8621 25.6623 13.9365 25.6009 13.9232L25.0884 13.809Z" fill="#3B2645"/>
<path d="M3.61218 1.22966C3.70294 1.45539 3.6282 1.95729 3.40129 2.50168C3.14768 3.11246 2.79263 3.55859 2.56572 3.57452L1.271 2.94781L2.27741 0.53125L3.61218 1.22966Z" fill="#3B2645"/>
<path d="M2.42136 0.610655L2.58954 0.698288C2.70433 0.902767 2.63225 1.43653 2.39199 2.00748C2.13038 2.63685 1.76198 3.09095 1.53774 3.08033L1.4363 3.03253L0.259033 2.46158L1.2788 0.010498L2.42136 0.610655Z" fill="#EEEEEE"/>
<path d="M1.16405 1.39945C1.44602 0.721944 1.49792 0.0999519 1.27998 0.0101943C1.06203 -0.0795632 0.656775 0.396903 0.374807 1.07441C0.0928383 1.75192 0.0409358 2.37391 0.258879 2.46367C0.476823 2.55343 0.882081 2.07696 1.16405 1.39945Z" fill="#EEEEEE"/>
<path d="M10.6702 6.58583C10.6195 6.58583 10.5661 6.5752 10.518 6.54865L1.01179 1.69428C0.848951 1.6093 0.782213 1.41014 0.867638 1.24815C0.953063 1.08616 1.15328 1.01977 1.31612 1.10475L10.8223 5.95646C10.9852 6.04144 11.0519 6.2406 10.9665 6.40259C10.9078 6.51944 10.7903 6.58583 10.6702 6.58583Z" fill="#EEEEEE"/>
<path d="M21.7463 10.6809C21.709 10.4897 20.3155 9.78328 20.2274 9.73548C20.1393 9.68768 19.9951 9.82046 19.9951 9.82046L20.1206 9.88685C20.1206 9.88685 20.0432 10.2666 20.0058 10.4392C19.9684 10.6118 19.3624 11.2651 19.3624 11.2651C19.3624 11.2651 19.1836 11.1031 18.9754 10.8455C18.7671 10.5879 18.5269 10.6171 18.5109 10.6649C18.4948 10.7127 18.8339 11.4961 18.8819 11.5731C18.93 11.6501 19.1756 12.0989 19.1756 12.1813C19.1756 12.2636 17.2161 14.3801 17.2161 14.3801C17.0399 13.9897 16.7383 13.5197 16.4286 13.0709C15.8734 13.9605 14.7468 14.7837 14.0127 15.2591C14.5519 15.9017 16.2684 17.8589 17.1334 17.7447C18.1665 17.6092 20.4489 13.1771 20.5183 13.047C20.5851 12.9168 20.6865 12.8744 21.1003 12.5291C21.5141 12.1839 21.781 10.8747 21.7463 10.6809Z" fill="#FFEDE5"/>
<path d="M16.4259 13.0686C16.0014 12.4498 15.5663 11.8762 15.4435 11.616C15.2353 11.1672 14.7814 9.04538 13.5561 9.01617C12.3308 8.98962 11.9624 10.2085 11.9624 11.616C11.9624 13.0234 13.8418 15.0576 13.8418 15.0576C13.8418 15.0576 13.9032 15.1346 14.0073 15.2594C14.7414 14.7814 15.8679 13.9555 16.4259 13.0686Z" fill="#7B6F72"/>
<path opacity="0.5" d="M13.556 9.01303C13.273 9.00772 13.0381 9.06614 12.8406 9.18033L15.0109 10.4364C14.7146 9.74861 14.2661 9.02896 13.556 9.01303Z" fill="#543753"/>
<defs>
<linearGradient id="paint0_linear_923_3455" x1="66.5588" y1="41.8491" x2="-0.551917" y2="34.3561" gradientUnits="userSpaceOnUse">
<stop stop-color="#03989E"/>
<stop offset="1" stop-color="#62DBC8"/>
</linearGradient>
<linearGradient id="paint1_linear_923_3455" x1="61.7948" y1="41.8491" x2="-5.31264" y2="34.3569" gradientUnits="userSpaceOnUse">
<stop stop-color="#03989E"/>
<stop offset="1" stop-color="#03989E"/>
</linearGradient>
<radialGradient id="paint2_radial_923_3455" cx="0" cy="0" r="1" gradientUnits="userSpaceOnUse" gradientTransform="translate(45.8757 6.32481) scale(14.1396 14.0655)">
<stop offset="0.0747467" stop-color="#F99E96"/>
<stop offset="0.7122" stop-color="#F78F98"/>
<stop offset="1" stop-color="#F68699"/>
</radialGradient>
<radialGradient id="paint3_radial_923_3455" cx="0" cy="0" r="1" gradientUnits="userSpaceOnUse" gradientTransform="translate(45.8756 6.32474) scale(14.1396 14.0656)">
<stop offset="0.0747467" stop-color="#F99E96"/>
<stop offset="0.7122" stop-color="#F78F98"/>
<stop offset="1" stop-color="#F68699"/>
</radialGradient>
<radialGradient id="paint4_radial_923_3455" cx="0" cy="0" r="1" gradientUnits="userSpaceOnUse" gradientTransform="translate(45.8757 6.32484) scale(14.1396 14.0656)">
<stop offset="0.0747467" stop-color="#F99E96"/>
<stop offset="0.7122" stop-color="#F78F98"/>
<stop offset="1" stop-color="#F68699"/>
</radialGradient>
<radialGradient id="paint5_radial_923_3455" cx="0" cy="0" r="1" gradientUnits="userSpaceOnUse" gradientTransform="translate(45.8758 6.32504) scale(14.1397 14.0655)">
<stop offset="0.0747467" stop-color="#F99E96"/>
<stop offset="0.7122" stop-color="#F78F98"/>
<stop offset="1" stop-color="#F68699"/>
</radialGradient>
<radialGradient id="paint6_radial_923_3455" cx="0" cy="0" r="1" gradientUnits="userSpaceOnUse" gradientTransform="translate(45.8757 6.32485) scale(14.1396 14.0655)">
<stop offset="0.0747467" stop-color="#F99E96"/>
<stop offset="0.7122" stop-color="#F78F98"/>
<stop offset="1" stop-color="#F68699"/>
</radialGradient>
<radialGradient id="paint7_radial_923_3455" cx="0" cy="0" r="1" gradientUnits="userSpaceOnUse" gradientTransform="translate(45.8758 6.32485) scale(14.1396 14.0655)">
<stop offset="0.0747467" stop-color="#F99E96"/>
<stop offset="0.7122" stop-color="#F78F98"/>
<stop offset="1" stop-color="#F68699"/>
</radialGradient>
<radialGradient id="paint8_radial_923_3455" cx="0" cy="0" r="1" gradientUnits="userSpaceOnUse" gradientTransform="translate(45.8756 6.32485) scale(14.1395 14.0655)">
<stop offset="0.0747467" stop-color="#F99E96"/>
<stop offset="0.7122" stop-color="#F78F98"/>
<stop offset="1" stop-color="#F68699"/>
</radialGradient>
<radialGradient id="paint9_radial_923_3455" cx="0" cy="0" r="1" gradientUnits="userSpaceOnUse" gradientTransform="translate(45.8759 6.32485) scale(14.1397 14.0655)">
<stop offset="0.0747467" stop-color="#F99E96"/>
<stop offset="0.7122" stop-color="#F78F98"/>
<stop offset="1" stop-color="#F68699"/>
</radialGradient>
<radialGradient id="paint10_radial_923_3455" cx="0" cy="0" r="1" gradientUnits="userSpaceOnUse" gradientTransform="translate(45.8756 6.32485) scale(14.1396 14.0655)">
<stop offset="0.0747467" stop-color="#F99E96"/>
<stop offset="0.7122" stop-color="#F78F98"/>
<stop offset="1" stop-color="#F68699"/>
</radialGradient>
<radialGradient id="paint11_radial_923_3455" cx="0" cy="0" r="1" gradientUnits="userSpaceOnUse" gradientTransform="translate(45.8757 6.32485) scale(14.1396 14.0655)">
<stop offset="0.0747467" stop-color="#F99E96"/>
<stop offset="0.7122" stop-color="#F78F98"/>
<stop offset="1" stop-color="#F68699"/>
</radialGradient>
<linearGradient id="paint12_linear_923_3455" x1="21.8859" y1="8.44752" x2="17.3599" y2="8.09708" gradientUnits="userSpaceOnUse">
<stop stop-color="#03989E"/>
<stop offset="1" stop-color="#03989E"/>
</linearGradient>
<linearGradient id="paint13_linear_923_3455" x1="26.5795" y1="8.44752" x2="22.0528" y2="8.09697" gradientUnits="userSpaceOnUse">
<stop stop-color="#03989E"/>
<stop offset="1" stop-color="#03989E"/>
</linearGradient>
<linearGradient id="paint14_linear_923_3455" x1="31.2773" y1="8.44752" x2="26.7522" y2="8.09722" gradientUnits="userSpaceOnUse">
<stop stop-color="#03989E"/>
<stop offset="1" stop-color="#03989E"/>
</linearGradient>
<linearGradient id="paint15_linear_923_3455" x1="35.9751" y1="8.44752" x2="31.4551" y2="8.09801" gradientUnits="userSpaceOnUse">
<stop stop-color="#03989E"/>
<stop offset="1" stop-color="#03989E"/>
</linearGradient>
<linearGradient id="paint16_linear_923_3455" x1="40.6735" y1="8.44752" x2="36.1501" y2="8.09749" gradientUnits="userSpaceOnUse">
<stop stop-color="#03989E"/>
<stop offset="1" stop-color="#03989E"/>
</linearGradient>
<linearGradient id="paint17_linear_923_3455" x1="45.3714" y1="8.44752" x2="40.8494" y2="8.0977" gradientUnits="userSpaceOnUse">
<stop stop-color="#03989E"/>
<stop offset="1" stop-color="#03989E"/>
</linearGradient>
<linearGradient id="paint18_linear_923_3455" x1="50.0671" y1="8.44752" x2="45.5458" y2="8.09782" gradientUnits="userSpaceOnUse">
<stop stop-color="#03989E"/>
<stop offset="1" stop-color="#03989E"/>
</linearGradient>
<linearGradient id="paint19_linear_923_3455" x1="54.7672" y1="8.44752" x2="50.2474" y2="8.09805" gradientUnits="userSpaceOnUse">
<stop stop-color="#03989E"/>
<stop offset="1" stop-color="#03989E"/>
</linearGradient>
<linearGradient id="paint20_linear_923_3455" x1="59.4629" y1="8.44752" x2="54.9474" y2="8.09871" gradientUnits="userSpaceOnUse">
<stop stop-color="#03989E"/>
<stop offset="1" stop-color="#03989E"/>
</linearGradient>
<radialGradient id="paint21_radial_923_3455" cx="0" cy="0" r="1" gradientUnits="userSpaceOnUse" gradientTransform="translate(31.0632 30.9314) scale(5.0223 4.996)">
<stop offset="0.0747467" stop-color="#F99E96"/>
<stop offset="0.7122" stop-color="#F78F98"/>
<stop offset="1" stop-color="#F68699"/>
</radialGradient>
<radialGradient id="paint22_radial_923_3455" cx="0" cy="0" r="1" gradientUnits="userSpaceOnUse" gradientTransform="translate(31.0633 30.9315) scale(5.02238 4.99603)">
<stop offset="0.0747467" stop-color="#F99E96"/>
<stop offset="0.7122" stop-color="#F78F98"/>
<stop offset="1" stop-color="#F68699"/>
</radialGradient>
<radialGradient id="paint23_radial_923_3455" cx="0" cy="0" r="1" gradientUnits="userSpaceOnUse" gradientTransform="translate(27.2401 25.5071) scale(5.34045 5.31256)">
<stop offset="0.0747467" stop-color="#7B6F72"/>
<stop offset="0.7122" stop-color="#C4C4C4"/>
<stop offset="1" stop-color="#ADA4A5"/>
</radialGradient>
<radialGradient id="paint24_radial_923_3455" cx="0" cy="0" r="1" gradientUnits="userSpaceOnUse" gradientTransform="translate(45.4162 19.5842) scale(5.72865 5.69861)">
<stop offset="0.0747467" stop-color="#F99E96"/>
<stop offset="0.7122" stop-color="#F78F98"/>
<stop offset="1" stop-color="#F68699"/>
</radialGradient>
<radialGradient id="paint25_radial_923_3455" cx="0" cy="0" r="1" gradientUnits="userSpaceOnUse" gradientTransform="translate(27.616 11.1669) scale(17.7809 17.688)">
<stop offset="0.0747467" stop-color="#F99E96"/>
<stop offset="0.7122" stop-color="#F78F98"/>
<stop offset="1" stop-color="#F68699"/>
</radialGradient>
<radialGradient id="paint26_radial_923_3455" cx="0" cy="0" r="1" gradientUnits="userSpaceOnUse" gradientTransform="translate(27.616 11.1671) scale(17.7811 17.688)">
<stop offset="0.0747467" stop-color="#F99E96"/>
<stop offset="0.7122" stop-color="#F78F98"/>
<stop offset="1" stop-color="#F68699"/>
</radialGradient>
</defs>
</svg>
