<svg width="315" height="345" viewBox="0 0 315 345" fill="none" xmlns="http://www.w3.org/2000/svg">
<g filter="url(#filter0_d_982_4731)">
<rect x="1" width="314" height="310" rx="22" fill="url(#paint0_linear_982_4731)"/>
<g clip-path="url(#clip0_982_4731)">
<path d="M35.1831 28.175L31.3581 32L35.1831 35.825L33.9998 37L28.9998 32L33.9998 27L35.1831 28.175Z" fill="white"/>
<path d="M134.431 26.088V36H131.337V31.058L129.811 36H127.151L125.625 31.058V36H122.517V26.088H126.325L128.509 32.038L130.637 26.088H134.431ZM135.414 32.052C135.414 31.2213 135.554 30.5027 135.834 29.896C136.123 29.28 136.515 28.8133 137.01 28.496C137.504 28.1693 138.06 28.006 138.676 28.006C139.189 28.006 139.632 28.1133 140.006 28.328C140.379 28.5333 140.664 28.818 140.86 29.182V28.104H143.954V36H140.86V34.922C140.664 35.286 140.379 35.5753 140.006 35.79C139.632 35.9953 139.189 36.098 138.676 36.098C138.06 36.098 137.504 35.9393 137.01 35.622C136.515 35.2953 136.123 34.8287 135.834 34.222C135.554 33.606 135.414 32.8827 135.414 32.052ZM140.86 32.052C140.86 31.632 140.752 31.3053 140.538 31.072C140.323 30.8387 140.048 30.722 139.712 30.722C139.376 30.722 139.1 30.8387 138.886 31.072C138.671 31.3053 138.564 31.632 138.564 32.052C138.564 32.472 138.671 32.7987 138.886 33.032C139.1 33.2653 139.376 33.382 139.712 33.382C140.048 33.382 140.323 33.2653 140.538 33.032C140.752 32.7987 140.86 32.472 140.86 32.052ZM146.917 27.474C146.376 27.474 145.942 27.3293 145.615 27.04C145.289 26.7507 145.125 26.3867 145.125 25.948C145.125 25.5 145.289 25.1313 145.615 24.842C145.942 24.5433 146.376 24.394 146.917 24.394C147.449 24.394 147.879 24.5433 148.205 24.842C148.532 25.1313 148.695 25.5 148.695 25.948C148.695 26.3867 148.532 26.7507 148.205 27.04C147.879 27.3293 147.449 27.474 146.917 27.474ZM148.457 28.104V36H145.349V28.104H148.457ZM153.613 36.098C152.82 36.098 152.106 35.9347 151.471 35.608C150.836 35.2813 150.337 34.8147 149.973 34.208C149.618 33.592 149.441 32.8733 149.441 32.052C149.441 31.2307 149.618 30.5167 149.973 29.91C150.337 29.294 150.836 28.8227 151.471 28.496C152.106 28.1693 152.82 28.006 153.613 28.006C154.406 28.006 155.12 28.1693 155.755 28.496C156.39 28.8227 156.884 29.294 157.239 29.91C157.603 30.5167 157.785 31.2307 157.785 32.052C157.785 32.8733 157.603 33.592 157.239 34.208C156.884 34.8147 156.39 35.2813 155.755 35.608C155.12 35.9347 154.406 36.098 153.613 36.098ZM153.613 33.41C153.902 33.41 154.145 33.298 154.341 33.074C154.537 32.8407 154.635 32.5 154.635 32.052C154.635 31.604 154.537 31.268 154.341 31.044C154.145 30.8107 153.902 30.694 153.613 30.694C153.324 30.694 153.081 30.8107 152.885 31.044C152.689 31.268 152.591 31.604 152.591 32.052C152.591 32.5 152.684 32.8407 152.871 33.074C153.067 33.298 153.314 33.41 153.613 33.41ZM160.832 33.522C162.083 32.5887 163.072 31.744 163.8 30.988C164.528 30.2227 164.892 29.5087 164.892 28.846C164.892 28.622 164.841 28.4493 164.738 28.328C164.645 28.2067 164.519 28.146 164.36 28.146C164.174 28.146 164.024 28.244 163.912 28.44C163.81 28.6267 163.772 28.916 163.8 29.308H160.79C160.818 28.44 161.005 27.726 161.35 27.166C161.705 26.606 162.162 26.1953 162.722 25.934C163.282 25.6727 163.898 25.542 164.57 25.542C165.765 25.542 166.638 25.8313 167.188 26.41C167.748 26.9793 168.028 27.712 168.028 28.608C168.028 29.5507 167.725 30.4373 167.118 31.268C166.521 32.0893 165.77 32.7847 164.864 33.354H168.07V35.86H160.832V33.522ZM168.818 30.736C168.818 29.1213 169.159 27.852 169.84 26.928C170.531 26.004 171.59 25.542 173.018 25.542C174.437 25.542 175.491 26.0087 176.182 26.942C176.873 27.866 177.218 29.1307 177.218 30.736C177.218 32.3507 176.873 33.6247 176.182 34.558C175.491 35.482 174.437 35.944 173.018 35.944C171.59 35.944 170.531 35.482 169.84 34.558C169.159 33.6247 168.818 32.3507 168.818 30.736ZM174.152 30.736C174.152 29.9893 174.077 29.4293 173.928 29.056C173.779 28.6733 173.475 28.482 173.018 28.482C172.551 28.482 172.243 28.6733 172.094 29.056C171.945 29.4293 171.87 29.9893 171.87 30.736C171.87 31.492 171.945 32.0613 172.094 32.444C172.243 32.8173 172.551 33.004 173.018 33.004C173.475 33.004 173.779 32.8173 173.928 32.444C174.077 32.0613 174.152 31.492 174.152 30.736ZM178.032 33.522C179.282 32.5887 180.272 31.744 181 30.988C181.728 30.2227 182.092 29.5087 182.092 28.846C182.092 28.622 182.04 28.4493 181.938 28.328C181.844 28.2067 181.718 28.146 181.56 28.146C181.373 28.146 181.224 28.244 181.112 28.44C181.009 28.6267 180.972 28.916 181 29.308H177.99C178.018 28.44 178.204 27.726 178.55 27.166C178.904 26.606 179.362 26.1953 179.922 25.934C180.482 25.6727 181.098 25.542 181.77 25.542C182.964 25.542 183.837 25.8313 184.388 26.41C184.948 26.9793 185.228 27.712 185.228 28.608C185.228 29.5507 184.924 30.4373 184.318 31.268C183.72 32.0893 182.969 32.7847 182.064 33.354H185.27V35.86H178.032V33.522ZM186.199 28.972C186.227 27.8613 186.549 27.012 187.165 26.424C187.791 25.836 188.673 25.542 189.811 25.542C190.549 25.542 191.179 25.668 191.701 25.92C192.224 26.172 192.616 26.5127 192.877 26.942C193.148 27.3713 193.283 27.8567 193.283 28.398C193.283 29.0513 193.129 29.5647 192.821 29.938C192.513 30.302 192.168 30.5493 191.785 30.68V30.736C192.905 31.156 193.465 31.9353 193.465 33.074C193.465 33.6713 193.325 34.1987 193.045 34.656C192.765 35.1133 192.364 35.468 191.841 35.72C191.328 35.972 190.717 36.098 190.007 36.098C188.794 36.098 187.842 35.8087 187.151 35.23C186.461 34.6513 186.106 33.746 186.087 32.514H189.111C189.093 32.85 189.139 33.1067 189.251 33.284C189.373 33.452 189.578 33.536 189.867 33.536C190.035 33.536 190.175 33.4753 190.287 33.354C190.399 33.2233 190.455 33.0553 190.455 32.85C190.455 32.5887 190.367 32.3927 190.189 32.262C190.021 32.122 189.732 32.052 189.321 32.052H188.803V29.546H189.307C189.942 29.5833 190.259 29.3313 190.259 28.79C190.259 28.5567 190.208 28.384 190.105 28.272C190.012 28.16 189.891 28.104 189.741 28.104C189.396 28.104 189.223 28.3933 189.223 28.972H186.199Z" fill="#F7F8F8"/>
<path d="M280 35.825L283.825 32L280 28.175L281.183 27L286.183 32L281.183 37L280 35.825Z" fill="white"/>
</g>
<path d="M29.5379 68.92C30.2779 68.92 30.9246 69.07 31.4779 69.37C32.0379 69.67 32.4679 70.0867 32.7679 70.62C33.0679 71.1533 33.2179 71.76 33.2179 72.44C33.2179 73.1133 33.0679 73.72 32.7679 74.26C32.4679 74.8 32.0379 75.2267 31.4779 75.54C30.9246 75.8467 30.2779 76 29.5379 76H26.5879V68.92H29.5379ZM29.3379 74.02C29.8379 74.02 30.2346 73.8833 30.5279 73.61C30.8212 73.3367 30.9679 72.9467 30.9679 72.44C30.9679 71.9333 30.8212 71.5433 30.5279 71.27C30.2346 70.9967 29.8379 70.86 29.3379 70.86H28.8079V74.02H29.3379ZM38.9695 76.07C38.3029 76.07 37.6895 75.9133 37.1295 75.6C36.5762 75.2867 36.1362 74.8533 35.8095 74.3C35.4829 73.7467 35.3195 73.1233 35.3195 72.43C35.3195 71.7367 35.4829 71.1133 35.8095 70.56C36.1362 70.0067 36.5762 69.5767 37.1295 69.27C37.6895 68.9567 38.3029 68.8 38.9695 68.8C39.6362 68.8 40.2462 68.9567 40.7995 69.27C41.3529 69.5767 41.7895 70.0067 42.1095 70.56C42.4362 71.1133 42.5995 71.7367 42.5995 72.43C42.5995 73.1233 42.4362 73.7467 42.1095 74.3C41.7895 74.8533 41.3495 75.2867 40.7895 75.6C40.2362 75.9133 39.6295 76.07 38.9695 76.07ZM38.9695 74C39.4095 74 39.7495 73.86 39.9895 73.58C40.2295 73.2933 40.3495 72.91 40.3495 72.43C40.3495 71.9433 40.2295 71.56 39.9895 71.28C39.7495 70.9933 39.4095 70.85 38.9695 70.85C38.5229 70.85 38.1795 70.9933 37.9395 71.28C37.6995 71.56 37.5795 71.9433 37.5795 72.43C37.5795 72.91 37.6995 73.2933 37.9395 73.58C38.1795 73.86 38.5229 74 38.9695 74ZM53.4104 68.92V76H51.2004V72.47L50.1104 76H48.2104L47.1204 72.47V76H44.9004V68.92H47.6204L49.1804 73.17L50.7004 68.92H53.4104Z" fill="#F7F8F8"/>
<path d="M69.3569 76.07C68.5102 76.07 67.8102 75.8733 67.2569 75.48C66.7102 75.08 66.4136 74.4967 66.3669 73.73H68.7269C68.7602 74.1367 68.9402 74.34 69.2669 74.34C69.3869 74.34 69.4869 74.3133 69.5669 74.26C69.6536 74.2 69.6969 74.11 69.6969 73.99C69.6969 73.8233 69.6069 73.69 69.4269 73.59C69.2469 73.4833 68.9669 73.3633 68.5869 73.23C68.1336 73.07 67.7569 72.9133 67.4569 72.76C67.1636 72.6067 66.9102 72.3833 66.6969 72.09C66.4836 71.7967 66.3802 71.42 66.3869 70.96C66.3869 70.5 66.5036 70.11 66.7369 69.79C66.9769 69.4633 67.3002 69.2167 67.7069 69.05C68.1202 68.8833 68.5836 68.8 69.0969 68.8C69.9636 68.8 70.6502 69 71.1569 69.4C71.6702 69.8 71.9402 70.3633 71.9669 71.09H69.5769C69.5702 70.89 69.5202 70.7467 69.4269 70.66C69.3336 70.5733 69.2202 70.53 69.0869 70.53C68.9936 70.53 68.9169 70.5633 68.8569 70.63C68.7969 70.69 68.7669 70.7767 68.7669 70.89C68.7669 71.05 68.8536 71.1833 69.0269 71.29C69.2069 71.39 69.4902 71.5133 69.8769 71.66C70.3236 71.8267 70.6902 71.9867 70.9769 72.14C71.2702 72.2933 71.5236 72.5067 71.7369 72.78C71.9502 73.0533 72.0569 73.3967 72.0569 73.81C72.0569 74.2433 71.9502 74.6333 71.7369 74.98C71.5236 75.32 71.2136 75.5867 70.8069 75.78C70.4002 75.9733 69.9169 76.07 69.3569 76.07ZM76.5569 70.69V71.56H78.7569V73.23H76.5569V74.23H79.0569V76H74.3369V68.92H79.0569V70.69H76.5569ZM85.7336 71.34C85.6469 71.2 85.5236 71.0933 85.3636 71.02C85.2036 70.94 85.0102 70.9 84.7836 70.9C84.3569 70.9 84.0269 71.04 83.7936 71.32C83.5602 71.5933 83.4436 71.97 83.4436 72.45C83.4436 73.0033 83.5736 73.4167 83.8336 73.69C84.0936 73.9633 84.4936 74.1 85.0336 74.1C85.5469 74.1 85.9602 73.8933 86.2736 73.48H84.5036V71.91H88.1136V74.13C87.8069 74.6567 87.3836 75.11 86.8436 75.49C86.3036 75.8633 85.6202 76.05 84.7936 76.05C84.0602 76.05 83.4202 75.9 82.8736 75.6C82.3336 75.2933 81.9169 74.8667 81.6236 74.32C81.3369 73.7733 81.1936 73.15 81.1936 72.45C81.1936 71.75 81.3369 71.1267 81.6236 70.58C81.9169 70.0333 82.3336 69.61 82.8736 69.31C83.4136 69.0033 84.0469 68.85 84.7736 68.85C85.7002 68.85 86.4536 69.0733 87.0336 69.52C87.6202 69.9667 87.9669 70.5733 88.0736 71.34H85.7336Z" fill="#F7F8F8"/>
<path d="M111.351 68.92V70.68H109.471V76H107.251V70.68H105.391V68.92H111.351ZM115.673 70.69V71.56H117.873V73.23H115.673V74.23H118.173V76H113.453V68.92H118.173V70.69H115.673ZM124.07 76L122.74 73.46H122.73V76H120.51V68.92H123.81C124.383 68.92 124.873 69.0233 125.28 69.23C125.686 69.43 125.99 69.7067 126.19 70.06C126.396 70.4067 126.5 70.8 126.5 71.24C126.5 71.7133 126.366 72.1333 126.1 72.5C125.84 72.8667 125.463 73.13 124.97 73.29L126.51 76H124.07ZM122.73 71.98H123.61C123.823 71.98 123.983 71.9333 124.09 71.84C124.196 71.74 124.25 71.5867 124.25 71.38C124.25 71.1933 124.193 71.0467 124.08 70.94C123.973 70.8333 123.816 70.78 123.61 70.78H122.73V71.98Z" fill="#F7F8F8"/>
<path d="M146.259 77.15L145.579 76.03C145.425 76.0567 145.249 76.07 145.049 76.07C144.382 76.07 143.769 75.9133 143.209 75.6C142.655 75.2867 142.215 74.8533 141.889 74.3C141.562 73.7467 141.399 73.1233 141.399 72.43C141.399 71.7367 141.562 71.1133 141.889 70.56C142.215 70.0067 142.655 69.5767 143.209 69.27C143.769 68.9567 144.382 68.8 145.049 68.8C145.715 68.8 146.325 68.9567 146.879 69.27C147.432 69.5767 147.869 70.0067 148.189 70.56C148.515 71.1133 148.679 71.7367 148.679 72.43C148.679 72.9967 148.569 73.52 148.349 74C148.129 74.4733 147.825 74.8767 147.439 75.21L148.879 77.15H146.259ZM143.659 72.43C143.659 72.91 143.779 73.2933 144.019 73.58C144.259 73.86 144.602 74 145.049 74C145.489 74 145.829 73.86 146.069 73.58C146.309 73.2933 146.429 72.91 146.429 72.43C146.429 71.9433 146.309 71.56 146.069 71.28C145.829 70.9933 145.489 70.85 145.049 70.85C144.602 70.85 144.259 70.9933 144.019 71.28C143.779 71.56 143.659 71.9433 143.659 72.43ZM153.149 68.92V72.91C153.149 73.2367 153.219 73.4967 153.359 73.69C153.506 73.8767 153.739 73.97 154.059 73.97C154.379 73.97 154.616 73.8767 154.769 73.69C154.923 73.4967 154.999 73.2367 154.999 72.91V68.92H157.209V72.91C157.209 73.5833 157.069 74.16 156.789 74.64C156.509 75.1133 156.126 75.47 155.639 75.71C155.153 75.95 154.609 76.07 154.009 76.07C153.409 76.07 152.876 75.95 152.409 75.71C151.949 75.47 151.589 75.1133 151.329 74.64C151.069 74.1667 150.939 73.59 150.939 72.91V68.92H153.149ZM164.207 74.93H161.847L161.497 76H159.167L161.757 68.92H164.317L166.897 76H164.557L164.207 74.93ZM163.667 73.26L163.027 71.29L162.387 73.26H163.667Z" fill="#F7F8F8"/>
<path d="M186.514 77.15L185.834 76.03C185.681 76.0567 185.504 76.07 185.304 76.07C184.638 76.07 184.024 75.9133 183.464 75.6C182.911 75.2867 182.471 74.8533 182.144 74.3C181.818 73.7467 181.654 73.1233 181.654 72.43C181.654 71.7367 181.818 71.1133 182.144 70.56C182.471 70.0067 182.911 69.5767 183.464 69.27C184.024 68.9567 184.638 68.8 185.304 68.8C185.971 68.8 186.581 68.9567 187.134 69.27C187.688 69.5767 188.124 70.0067 188.444 70.56C188.771 71.1133 188.934 71.7367 188.934 72.43C188.934 72.9967 188.824 73.52 188.604 74C188.384 74.4733 188.081 74.8767 187.694 75.21L189.134 77.15H186.514ZM183.914 72.43C183.914 72.91 184.034 73.2933 184.274 73.58C184.514 73.86 184.858 74 185.304 74C185.744 74 186.084 73.86 186.324 73.58C186.564 73.2933 186.684 72.91 186.684 72.43C186.684 71.9433 186.564 71.56 186.324 71.28C186.084 70.9933 185.744 70.85 185.304 70.85C184.858 70.85 184.514 70.9933 184.274 71.28C184.034 71.56 183.914 71.9433 183.914 72.43ZM193.405 68.92V72.91C193.405 73.2367 193.475 73.4967 193.615 73.69C193.762 73.8767 193.995 73.97 194.315 73.97C194.635 73.97 194.872 73.8767 195.025 73.69C195.179 73.4967 195.255 73.2367 195.255 72.91V68.92H197.465V72.91C197.465 73.5833 197.325 74.16 197.045 74.64C196.765 75.1133 196.382 75.47 195.895 75.71C195.409 75.95 194.865 76.07 194.265 76.07C193.665 76.07 193.132 75.95 192.665 75.71C192.205 75.47 191.845 75.1133 191.585 74.64C191.325 74.1667 191.195 73.59 191.195 72.91V68.92H193.405ZM202.143 68.92V76H199.923V68.92H202.143Z" fill="#F7F8F8"/>
<path d="M222.048 76.07C221.202 76.07 220.502 75.8733 219.948 75.48C219.402 75.08 219.105 74.4967 219.058 73.73H221.418C221.452 74.1367 221.632 74.34 221.958 74.34C222.078 74.34 222.178 74.3133 222.258 74.26C222.345 74.2 222.388 74.11 222.388 73.99C222.388 73.8233 222.298 73.69 222.118 73.59C221.938 73.4833 221.658 73.3633 221.278 73.23C220.825 73.07 220.448 72.9133 220.148 72.76C219.855 72.6067 219.602 72.3833 219.388 72.09C219.175 71.7967 219.072 71.42 219.078 70.96C219.078 70.5 219.195 70.11 219.428 69.79C219.668 69.4633 219.992 69.2167 220.398 69.05C220.812 68.8833 221.275 68.8 221.788 68.8C222.655 68.8 223.342 69 223.848 69.4C224.362 69.8 224.632 70.3633 224.658 71.09H222.268C222.262 70.89 222.212 70.7467 222.118 70.66C222.025 70.5733 221.912 70.53 221.778 70.53C221.685 70.53 221.608 70.5633 221.548 70.63C221.488 70.69 221.458 70.7767 221.458 70.89C221.458 71.05 221.545 71.1833 221.718 71.29C221.898 71.39 222.182 71.5133 222.568 71.66C223.015 71.8267 223.382 71.9867 223.668 72.14C223.962 72.2933 224.215 72.5067 224.428 72.78C224.642 73.0533 224.748 73.3967 224.748 73.81C224.748 74.2433 224.642 74.6333 224.428 74.98C224.215 75.32 223.905 75.5867 223.498 75.78C223.092 75.9733 222.608 76.07 222.048 76.07ZM229.248 70.69V71.56H231.448V73.23H229.248V74.23H231.748V76H227.028V68.92H231.748V70.69H229.248ZM238.595 76L237.295 74.16L236.215 76H233.685L236.015 72.35L233.585 68.92H236.215L237.465 70.69L238.505 68.92H241.035L238.745 72.5L241.225 76H238.595Z" fill="#F7F8F8"/>
<path d="M259.36 76.07C258.513 76.07 257.813 75.8733 257.26 75.48C256.713 75.08 256.417 74.4967 256.37 73.73H258.73C258.763 74.1367 258.943 74.34 259.27 74.34C259.39 74.34 259.49 74.3133 259.57 74.26C259.657 74.2 259.7 74.11 259.7 73.99C259.7 73.8233 259.61 73.69 259.43 73.59C259.25 73.4833 258.97 73.3633 258.59 73.23C258.137 73.07 257.76 72.9133 257.46 72.76C257.167 72.6067 256.913 72.3833 256.7 72.09C256.487 71.7967 256.383 71.42 256.39 70.96C256.39 70.5 256.507 70.11 256.74 69.79C256.98 69.4633 257.303 69.2167 257.71 69.05C258.123 68.8833 258.587 68.8 259.1 68.8C259.967 68.8 260.653 69 261.16 69.4C261.673 69.8 261.943 70.3633 261.97 71.09H259.58C259.573 70.89 259.523 70.7467 259.43 70.66C259.337 70.5733 259.223 70.53 259.09 70.53C258.997 70.53 258.92 70.5633 258.86 70.63C258.8 70.69 258.77 70.7767 258.77 70.89C258.77 71.05 258.857 71.1833 259.03 71.29C259.21 71.39 259.493 71.5133 259.88 71.66C260.327 71.8267 260.693 71.9867 260.98 72.14C261.273 72.2933 261.527 72.5067 261.74 72.78C261.953 73.0533 262.06 73.3967 262.06 73.81C262.06 74.2433 261.953 74.6333 261.74 74.98C261.527 75.32 261.217 75.5867 260.81 75.78C260.403 75.9733 259.92 76.07 259.36 76.07ZM268.88 74.93H266.52L266.17 76H263.84L266.43 68.92H268.99L271.57 76H269.23L268.88 74.93ZM268.34 73.26L267.7 71.29L267.06 73.26H268.34ZM278.314 72.37C278.741 72.47 279.071 72.6767 279.304 72.99C279.544 73.2967 279.664 73.6533 279.664 74.06C279.664 74.68 279.458 75.16 279.044 75.5C278.638 75.8333 278.051 76 277.284 76H273.574V68.92H277.184C277.904 68.92 278.471 69.0767 278.884 69.39C279.298 69.7033 279.504 70.16 279.504 70.76C279.504 71.1733 279.394 71.5233 279.174 71.81C278.961 72.09 278.674 72.2767 278.314 72.37ZM275.794 71.68H276.654C276.854 71.68 277.001 71.64 277.094 71.56C277.194 71.48 277.244 71.3567 277.244 71.19C277.244 71.0167 277.194 70.89 277.094 70.81C277.001 70.7233 276.854 70.68 276.654 70.68H275.794V71.68ZM276.804 74.22C277.004 74.22 277.151 74.1833 277.244 74.11C277.344 74.03 277.394 73.9033 277.394 73.73C277.394 73.39 277.198 73.22 276.804 73.22H275.794V74.22H276.804Z" fill="#F7F8F8"/>
<path d="M31.7513 118.244C31.858 117.273 32.2313 116.511 32.8713 115.956C33.5113 115.401 34.37 115.124 35.4473 115.124C36.45 115.124 37.2286 115.385 37.7833 115.908C38.338 116.431 38.6153 117.097 38.6153 117.908C38.6153 118.591 38.3966 119.188 37.9593 119.7C37.522 120.201 36.8073 120.495 35.8153 120.58V120.676C36.7113 120.772 37.4366 121.076 37.9913 121.588C38.546 122.089 38.8233 122.772 38.8233 123.636C38.8233 124.5 38.5406 125.215 37.9753 125.78C37.41 126.335 36.562 126.612 35.4313 126.612C34.3753 126.612 33.506 126.329 32.8233 125.764C32.1513 125.188 31.7246 124.383 31.5433 123.348H31.8633C32.0233 124.223 32.4073 124.932 33.0153 125.476C33.634 126.02 34.4393 126.292 35.4313 126.292C36.434 126.292 37.1966 126.047 37.7193 125.556C38.242 125.055 38.5033 124.415 38.5033 123.636C38.5033 122.708 38.1353 122.004 37.3993 121.524C36.6633 121.033 35.634 120.788 34.3113 120.788H34.0393V120.484H34.3273C36.9726 120.484 38.2953 119.625 38.2953 117.908C38.2953 117.161 38.0446 116.559 37.5433 116.1C37.042 115.641 36.3433 115.412 35.4473 115.412C34.5726 115.412 33.8206 115.641 33.1913 116.1C32.562 116.559 32.1886 117.273 32.0713 118.244H31.7513ZM41.0184 120.836C41.0184 119.631 41.1144 118.617 41.3064 117.796C41.4984 116.975 41.8558 116.324 42.3784 115.844C42.9011 115.364 43.6424 115.124 44.6024 115.124C45.5518 115.124 46.2878 115.364 46.8104 115.844C47.3438 116.324 47.7064 116.98 47.8984 117.812C48.0904 118.633 48.1864 119.641 48.1864 120.836C48.1864 122.052 48.0904 123.076 47.8984 123.908C47.7064 124.74 47.3438 125.401 46.8104 125.892C46.2878 126.372 45.5518 126.612 44.6024 126.612C43.6424 126.612 42.9011 126.372 42.3784 125.892C41.8558 125.401 41.4984 124.74 41.3064 123.908C41.1144 123.076 41.0184 122.052 41.0184 120.836ZM47.8664 120.836C47.8664 119.684 47.7811 118.719 47.6104 117.94C47.4398 117.161 47.1144 116.548 46.6344 116.1C46.1651 115.641 45.4878 115.412 44.6024 115.412C43.7171 115.412 43.0344 115.641 42.5544 116.1C42.0851 116.548 41.7651 117.161 41.5944 117.94C41.4238 118.719 41.3384 119.684 41.3384 120.836C41.3384 121.999 41.4238 122.975 41.5944 123.764C41.7651 124.553 42.0851 125.177 42.5544 125.636C43.0344 126.095 43.7171 126.324 44.6024 126.324C45.4878 126.324 46.1651 126.095 46.6344 125.636C47.1144 125.177 47.4398 124.553 47.6104 123.764C47.7811 122.975 47.8664 121.999 47.8664 120.836Z" fill="#F7F8F8"/>
<path d="M75.9231 116.5V114.836H79.2511V126.5H77.4111V116.5H75.9231Z" fill="#F7F8F8"/>
<path d="M113.351 124.02C114.375 123.135 115.18 122.409 115.767 121.844C116.364 121.268 116.86 120.671 117.255 120.052C117.649 119.433 117.847 118.815 117.847 118.196C117.847 117.556 117.692 117.055 117.383 116.692C117.084 116.329 116.609 116.148 115.959 116.148C115.329 116.148 114.839 116.351 114.487 116.756C114.145 117.151 113.964 117.684 113.943 118.356H112.183C112.215 117.14 112.577 116.212 113.271 115.572C113.975 114.921 114.865 114.596 115.943 114.596C117.105 114.596 118.012 114.916 118.663 115.556C119.324 116.196 119.655 117.049 119.655 118.116C119.655 118.884 119.457 119.625 119.063 120.34C118.679 121.044 118.215 121.679 117.671 122.244C117.137 122.799 116.455 123.444 115.623 124.18L114.903 124.82H119.975V126.34H112.199V125.012L113.351 124.02Z" fill="#F7F8F8"/>
<path d="M150.178 117.716C150.242 116.724 150.621 115.951 151.314 115.396C152.018 114.841 152.914 114.564 154.002 114.564C154.749 114.564 155.394 114.697 155.938 114.964C156.482 115.231 156.893 115.593 157.17 116.052C157.447 116.511 157.586 117.028 157.586 117.604C157.586 118.265 157.41 118.831 157.058 119.3C156.706 119.769 156.285 120.084 155.794 120.244V120.308C156.423 120.5 156.914 120.852 157.266 121.364C157.618 121.865 157.794 122.511 157.794 123.3C157.794 123.929 157.65 124.489 157.362 124.98C157.074 125.471 156.647 125.86 156.082 126.148C155.517 126.425 154.839 126.564 154.05 126.564C152.898 126.564 151.949 126.271 151.202 125.684C150.466 125.087 150.071 124.233 150.018 123.124H151.778C151.821 123.689 152.039 124.153 152.434 124.516C152.829 124.868 153.362 125.044 154.034 125.044C154.685 125.044 155.186 124.868 155.538 124.516C155.89 124.153 156.066 123.689 156.066 123.124C156.066 122.377 155.826 121.849 155.346 121.54C154.877 121.22 154.151 121.06 153.17 121.06H152.754V119.556H153.186C154.05 119.545 154.706 119.401 155.154 119.124C155.613 118.847 155.842 118.409 155.842 117.812C155.842 117.3 155.677 116.895 155.346 116.596C155.015 116.287 154.546 116.132 153.938 116.132C153.341 116.132 152.877 116.287 152.546 116.596C152.215 116.895 152.018 117.268 151.954 117.716H150.178Z" fill="#F7F8F8"/>
<path d="M187.556 124.068V122.692L192.932 114.98H195.14V122.484H196.628V124.068H195.14V126.5H193.348V124.068H187.556ZM193.428 116.836L189.652 122.484H193.428V116.836Z" fill="#F7F8F8"/>
<path d="M233.371 116.404H228.011V119.588C228.235 119.289 228.565 119.039 229.003 118.836C229.451 118.633 229.925 118.532 230.427 118.532C231.323 118.532 232.048 118.724 232.603 119.108C233.168 119.492 233.568 119.977 233.803 120.564C234.048 121.151 234.171 121.769 234.171 122.42C234.171 123.209 234.016 123.913 233.707 124.532C233.408 125.14 232.955 125.62 232.347 125.972C231.749 126.324 231.013 126.5 230.139 126.5C228.976 126.5 228.043 126.212 227.339 125.636C226.635 125.06 226.213 124.297 226.075 123.348H227.851C227.968 123.849 228.229 124.249 228.635 124.548C229.04 124.836 229.547 124.98 230.155 124.98C230.912 124.98 231.477 124.751 231.851 124.292C232.235 123.833 232.427 123.225 232.427 122.468C232.427 121.7 232.235 121.113 231.851 120.708C231.467 120.292 230.901 120.084 230.155 120.084C229.632 120.084 229.189 120.217 228.827 120.484C228.475 120.74 228.219 121.092 228.059 121.54H226.331V114.804H233.371V116.404Z" fill="#F7F8F8"/>
<path d="M270.099 117.54C269.982 117.049 269.769 116.681 269.459 116.436C269.15 116.191 268.718 116.068 268.163 116.068C267.321 116.068 266.691 116.393 266.275 117.044C265.859 117.684 265.641 118.751 265.619 120.244C265.897 119.775 266.302 119.412 266.835 119.156C267.369 118.9 267.945 118.772 268.563 118.772C269.267 118.772 269.886 118.927 270.419 119.236C270.963 119.535 271.385 119.972 271.683 120.548C271.993 121.124 272.147 121.812 272.147 122.612C272.147 123.359 271.998 124.025 271.699 124.612C271.411 125.199 270.979 125.663 270.403 126.004C269.827 126.335 269.134 126.5 268.323 126.5C267.225 126.5 266.361 126.26 265.731 125.78C265.113 125.289 264.675 124.601 264.419 123.716C264.174 122.831 264.051 121.727 264.051 120.404C264.051 116.5 265.427 114.548 268.179 114.548C269.246 114.548 270.083 114.836 270.691 115.412C271.31 115.988 271.673 116.697 271.779 117.54H270.099ZM268.163 120.308C267.513 120.308 266.958 120.505 266.499 120.9C266.051 121.284 265.827 121.844 265.827 122.58C265.827 123.316 266.035 123.903 266.451 124.34C266.878 124.767 267.47 124.98 268.227 124.98C268.899 124.98 269.427 124.772 269.811 124.356C270.206 123.94 270.403 123.385 270.403 122.692C270.403 121.967 270.211 121.391 269.827 120.964C269.454 120.527 268.899 120.308 268.163 120.308Z" fill="#F7F8F8"/>
<path d="M43.8754 154.244L39.4274 164.5H37.5874L42.0834 154.436H36.1634V152.884H43.8754V154.244Z" fill="#F7F8F8"/>
<rect x="63" y="142" width="30" height="30" rx="15" fill="url(#paint1_linear_982_4731)"/>
<path d="M75.8264 158.404C74.7171 157.849 74.1624 156.975 74.1624 155.78C74.1624 155.204 74.3064 154.676 74.5944 154.196C74.8824 153.716 75.3144 153.337 75.8904 153.06C76.4664 152.772 77.1704 152.628 78.0024 152.628C78.8238 152.628 79.5224 152.772 80.0984 153.06C80.6851 153.337 81.1224 153.716 81.4104 154.196C81.6984 154.676 81.8424 155.204 81.8424 155.78C81.8424 156.377 81.6878 156.905 81.3784 157.364C81.0798 157.812 80.6798 158.159 80.1784 158.404C80.7864 158.628 81.2664 158.996 81.6184 159.508C81.9704 160.009 82.1464 160.601 82.1464 161.284C82.1464 161.977 81.9704 162.591 81.6184 163.124C81.2664 163.657 80.7758 164.068 80.1464 164.356C79.5171 164.644 78.8024 164.788 78.0024 164.788C77.2024 164.788 76.4878 164.644 75.8584 164.356C75.2398 164.068 74.7544 163.657 74.4024 163.124C74.0504 162.591 73.8744 161.977 73.8744 161.284C73.8744 160.591 74.0504 159.993 74.4024 159.492C74.7544 158.991 75.2291 158.628 75.8264 158.404ZM80.0984 156.004C80.0984 155.407 79.9118 154.948 79.5384 154.628C79.1651 154.308 78.6531 154.148 78.0024 154.148C77.3624 154.148 76.8558 154.308 76.4824 154.628C76.1091 154.948 75.9224 155.412 75.9224 156.02C75.9224 156.553 76.1144 156.991 76.4984 157.332C76.8931 157.663 77.3944 157.828 78.0024 157.828C78.6104 157.828 79.1118 157.657 79.5064 157.316C79.9011 156.975 80.0984 156.537 80.0984 156.004ZM78.0024 159.204C77.2984 159.204 76.7224 159.38 76.2744 159.732C75.8371 160.073 75.6184 160.569 75.6184 161.22C75.6184 161.828 75.8318 162.324 76.2584 162.708C76.6851 163.081 77.2664 163.268 78.0024 163.268C78.7278 163.268 79.2984 163.076 79.7144 162.692C80.1411 162.308 80.3544 161.817 80.3544 161.22C80.3544 160.58 80.1358 160.084 79.6984 159.732C79.2718 159.38 78.7064 159.204 78.0024 159.204Z" fill="#F7F8F8"/>
<path d="M114.154 161.332C114.261 161.865 114.49 162.271 114.842 162.548C115.194 162.825 115.669 162.964 116.266 162.964C117.023 162.964 117.578 162.665 117.93 162.068C118.282 161.471 118.458 160.452 118.458 159.012C118.202 159.375 117.839 159.657 117.37 159.86C116.911 160.052 116.41 160.148 115.866 160.148C115.173 160.148 114.543 160.009 113.978 159.732C113.413 159.444 112.965 159.023 112.634 158.468C112.314 157.903 112.154 157.22 112.154 156.42C112.154 155.247 112.495 154.313 113.178 153.62C113.871 152.916 114.821 152.564 116.026 152.564C117.477 152.564 118.506 153.049 119.114 154.02C119.733 154.98 120.042 156.457 120.042 158.452C120.042 159.828 119.925 160.953 119.69 161.828C119.466 162.703 119.071 163.364 118.506 163.812C117.941 164.26 117.157 164.484 116.154 164.484C115.013 164.484 114.133 164.185 113.514 163.588C112.895 162.991 112.549 162.239 112.474 161.332H114.154ZM116.186 158.612C116.826 158.612 117.327 158.415 117.69 158.02C118.063 157.615 118.25 157.081 118.25 156.42C118.25 155.684 118.053 155.113 117.658 154.708C117.274 154.292 116.746 154.084 116.074 154.084C115.402 154.084 114.869 154.297 114.474 154.724C114.09 155.14 113.898 155.689 113.898 156.372C113.898 157.023 114.085 157.561 114.458 157.988C114.842 158.404 115.418 158.612 116.186 158.612Z" fill="#F7F8F8"/>
<path d="M146.798 154.5V152.836H150.126V164.5H148.286V154.5H146.798ZM152.632 158.516C152.632 156.671 152.941 155.231 153.56 154.196C154.189 153.151 155.267 152.628 156.792 152.628C158.317 152.628 159.389 153.151 160.008 154.196C160.637 155.231 160.952 156.671 160.952 158.516C160.952 160.383 160.637 161.844 160.008 162.9C159.389 163.945 158.317 164.468 156.792 164.468C155.267 164.468 154.189 163.945 153.56 162.9C152.941 161.844 152.632 160.383 152.632 158.516ZM159.16 158.516C159.16 157.652 159.101 156.921 158.984 156.324C158.877 155.727 158.653 155.241 158.312 154.868C157.971 154.484 157.464 154.292 156.792 154.292C156.12 154.292 155.613 154.484 155.272 154.868C154.931 155.241 154.701 155.727 154.584 156.324C154.477 156.921 154.424 157.652 154.424 158.516C154.424 159.412 154.477 160.164 154.584 160.772C154.691 161.38 154.915 161.871 155.256 162.244C155.608 162.617 156.12 162.804 156.792 162.804C157.464 162.804 157.971 162.617 158.312 162.244C158.664 161.871 158.893 161.38 159 160.772C159.107 160.164 159.16 159.412 159.16 158.516Z" fill="#F7F8F8"/>
<path d="M187.126 154.5V152.836H190.454V164.5H188.614V154.5H187.126ZM192.72 154.5V152.836H196.048V164.5H194.208V154.5H192.72Z" fill="#F7F8F8"/>
<path d="M223.306 154.5V152.836H226.634V164.5H224.794V154.5H223.306ZM230.148 162.02C231.172 161.135 231.977 160.409 232.564 159.844C233.161 159.268 233.657 158.671 234.052 158.052C234.446 157.433 234.644 156.815 234.644 156.196C234.644 155.556 234.489 155.055 234.18 154.692C233.881 154.329 233.406 154.148 232.756 154.148C232.126 154.148 231.636 154.351 231.284 154.756C230.942 155.151 230.761 155.684 230.74 156.356H228.98C229.012 155.14 229.374 154.212 230.068 153.572C230.772 152.921 231.662 152.596 232.74 152.596C233.902 152.596 234.809 152.916 235.46 153.556C236.121 154.196 236.452 155.049 236.452 156.116C236.452 156.884 236.254 157.625 235.86 158.34C235.476 159.044 235.012 159.679 234.468 160.244C233.934 160.799 233.252 161.444 232.42 162.18L231.7 162.82H236.772V164.34H228.996V163.012L230.148 162.02Z" fill="#F7F8F8"/>
<path d="M261.173 154.5V152.836H264.501V164.5H262.661V154.5H261.173ZM266.975 155.716C267.039 154.724 267.418 153.951 268.111 153.396C268.815 152.841 269.711 152.564 270.799 152.564C271.546 152.564 272.191 152.697 272.735 152.964C273.279 153.231 273.69 153.593 273.967 154.052C274.244 154.511 274.383 155.028 274.383 155.604C274.383 156.265 274.207 156.831 273.855 157.3C273.503 157.769 273.082 158.084 272.591 158.244V158.308C273.22 158.5 273.711 158.852 274.063 159.364C274.415 159.865 274.591 160.511 274.591 161.3C274.591 161.929 274.447 162.489 274.159 162.98C273.871 163.471 273.444 163.86 272.879 164.148C272.314 164.425 271.636 164.564 270.847 164.564C269.695 164.564 268.746 164.271 267.999 163.684C267.263 163.087 266.868 162.233 266.815 161.124H268.575C268.618 161.689 268.836 162.153 269.231 162.516C269.626 162.868 270.159 163.044 270.831 163.044C271.482 163.044 271.983 162.868 272.335 162.516C272.687 162.153 272.863 161.689 272.863 161.124C272.863 160.377 272.623 159.849 272.143 159.54C271.674 159.22 270.948 159.06 269.967 159.06H269.551V157.556H269.983C270.847 157.545 271.503 157.401 271.951 157.124C272.41 156.847 272.639 156.409 272.639 155.812C272.639 155.3 272.474 154.895 272.143 154.596C271.812 154.287 271.343 154.132 270.735 154.132C270.138 154.132 269.674 154.287 269.343 154.596C269.012 154.895 268.815 155.268 268.751 155.716H266.975Z" fill="#F7F8F8"/>
<path d="M32.7434 192.5V190.836H36.0714V202.5H34.2314V192.5H32.7434ZM38.3532 200.068V198.692L43.7292 190.98H45.9372V198.484H47.4252V200.068H45.9372V202.5H44.1452V200.068H38.3532ZM44.2252 192.836L40.4492 198.484H44.2252V192.836Z" fill="#F7F8F8"/>
<path d="M70.8138 192.5V190.836H74.1418V202.5H72.3018V192.5H70.8138ZM84.1675 192.404H78.8075V195.588C79.0315 195.289 79.3622 195.039 79.7995 194.836C80.2475 194.633 80.7222 194.532 81.2235 194.532C82.1195 194.532 82.8448 194.724 83.3995 195.108C83.9648 195.492 84.3648 195.977 84.5995 196.564C84.8448 197.151 84.9675 197.769 84.9675 198.42C84.9675 199.209 84.8128 199.913 84.5035 200.532C84.2048 201.14 83.7515 201.62 83.1435 201.972C82.5462 202.324 81.8102 202.5 80.9355 202.5C79.7728 202.5 78.8395 202.212 78.1355 201.636C77.4315 201.06 77.0102 200.297 76.8715 199.348H78.6475C78.7648 199.849 79.0262 200.249 79.4315 200.548C79.8368 200.836 80.3435 200.98 80.9515 200.98C81.7088 200.98 82.2742 200.751 82.6475 200.292C83.0315 199.833 83.2235 199.225 83.2235 198.468C83.2235 197.7 83.0315 197.113 82.6475 196.708C82.2635 196.292 81.6982 196.084 80.9515 196.084C80.4288 196.084 79.9862 196.217 79.6235 196.484C79.2715 196.74 79.0155 197.092 78.8555 197.54H77.1275V190.804H84.1675V192.404Z" fill="#F7F8F8"/>
<path d="M108.79 192.5V190.836H112.118V202.5H110.278V192.5H108.79ZM120.896 193.54C120.779 193.049 120.565 192.681 120.256 192.436C119.947 192.191 119.515 192.068 118.96 192.068C118.117 192.068 117.488 192.393 117.072 193.044C116.656 193.684 116.437 194.751 116.416 196.244C116.693 195.775 117.099 195.412 117.632 195.156C118.165 194.9 118.741 194.772 119.36 194.772C120.064 194.772 120.683 194.927 121.216 195.236C121.76 195.535 122.181 195.972 122.48 196.548C122.789 197.124 122.944 197.812 122.944 198.612C122.944 199.359 122.795 200.025 122.496 200.612C122.208 201.199 121.776 201.663 121.2 202.004C120.624 202.335 119.931 202.5 119.12 202.5C118.021 202.5 117.157 202.26 116.528 201.78C115.909 201.289 115.472 200.601 115.216 199.716C114.971 198.831 114.848 197.727 114.848 196.404C114.848 192.5 116.224 190.548 118.976 190.548C120.043 190.548 120.88 190.836 121.488 191.412C122.107 191.988 122.469 192.697 122.576 193.54H120.896ZM118.96 196.308C118.309 196.308 117.755 196.505 117.296 196.9C116.848 197.284 116.624 197.844 116.624 198.58C116.624 199.316 116.832 199.903 117.248 200.34C117.675 200.767 118.267 200.98 119.024 200.98C119.696 200.98 120.224 200.772 120.608 200.356C121.003 199.94 121.2 199.385 121.2 198.692C121.2 197.967 121.008 197.391 120.624 196.964C120.251 196.527 119.696 196.308 118.96 196.308Z" fill="#F7F8F8"/>
<path d="M147.447 192.5V190.836H150.775V202.5H148.935V192.5H147.447ZM160.672 192.244L156.224 202.5H154.384L158.88 192.436H152.96V190.884H160.672V192.244Z" fill="#F7F8F8"/>
<path d="M184.822 192.5V190.836H188.15V202.5H186.31V192.5H184.822ZM192.623 196.404C191.514 195.849 190.959 194.975 190.959 193.78C190.959 193.204 191.103 192.676 191.391 192.196C191.679 191.716 192.111 191.337 192.687 191.06C193.263 190.772 193.967 190.628 194.799 190.628C195.621 190.628 196.319 190.772 196.895 191.06C197.482 191.337 197.919 191.716 198.207 192.196C198.495 192.676 198.639 193.204 198.639 193.78C198.639 194.377 198.485 194.905 198.175 195.364C197.877 195.812 197.477 196.159 196.975 196.404C197.583 196.628 198.063 196.996 198.415 197.508C198.767 198.009 198.943 198.601 198.943 199.284C198.943 199.977 198.767 200.591 198.415 201.124C198.063 201.657 197.573 202.068 196.943 202.356C196.314 202.644 195.599 202.788 194.799 202.788C193.999 202.788 193.285 202.644 192.655 202.356C192.037 202.068 191.551 201.657 191.199 201.124C190.847 200.591 190.671 199.977 190.671 199.284C190.671 198.591 190.847 197.993 191.199 197.492C191.551 196.991 192.026 196.628 192.623 196.404ZM196.895 194.004C196.895 193.407 196.709 192.948 196.335 192.628C195.962 192.308 195.45 192.148 194.799 192.148C194.159 192.148 193.653 192.308 193.279 192.628C192.906 192.948 192.719 193.412 192.719 194.02C192.719 194.553 192.911 194.991 193.295 195.332C193.69 195.663 194.191 195.828 194.799 195.828C195.407 195.828 195.909 195.657 196.303 195.316C196.698 194.975 196.895 194.537 196.895 194.004ZM194.799 197.204C194.095 197.204 193.519 197.38 193.071 197.732C192.634 198.073 192.415 198.569 192.415 199.22C192.415 199.828 192.629 200.324 193.055 200.708C193.482 201.081 194.063 201.268 194.799 201.268C195.525 201.268 196.095 201.076 196.511 200.692C196.938 200.308 197.151 199.817 197.151 199.22C197.151 198.58 196.933 198.084 196.495 197.732C196.069 197.38 195.503 197.204 194.799 197.204Z" fill="#F7F8F8"/>
<path d="M222.845 192.5V190.836H226.173V202.5H224.333V192.5H222.845ZM230.951 199.332C231.057 199.865 231.287 200.271 231.639 200.548C231.991 200.825 232.465 200.964 233.063 200.964C233.82 200.964 234.375 200.665 234.727 200.068C235.079 199.471 235.255 198.452 235.255 197.012C234.999 197.375 234.636 197.657 234.167 197.86C233.708 198.052 233.207 198.148 232.663 198.148C231.969 198.148 231.34 198.009 230.775 197.732C230.209 197.444 229.761 197.023 229.431 196.468C229.111 195.903 228.951 195.22 228.951 194.42C228.951 193.247 229.292 192.313 229.975 191.62C230.668 190.916 231.617 190.564 232.823 190.564C234.273 190.564 235.303 191.049 235.911 192.02C236.529 192.98 236.839 194.457 236.839 196.452C236.839 197.828 236.721 198.953 236.487 199.828C236.263 200.703 235.868 201.364 235.303 201.812C234.737 202.26 233.953 202.484 232.951 202.484C231.809 202.484 230.929 202.185 230.311 201.588C229.692 200.991 229.345 200.239 229.271 199.332H230.951ZM232.983 196.612C233.623 196.612 234.124 196.415 234.487 196.02C234.86 195.615 235.047 195.081 235.047 194.42C235.047 193.684 234.849 193.113 234.455 192.708C234.071 192.292 233.543 192.084 232.871 192.084C232.199 192.084 231.665 192.297 231.271 192.724C230.887 193.14 230.695 193.689 230.695 194.372C230.695 195.023 230.881 195.561 231.255 195.988C231.639 196.404 232.215 196.612 232.983 196.612Z" fill="white"/>
<path d="M260.226 200.02C261.25 199.135 262.055 198.409 262.642 197.844C263.239 197.268 263.735 196.671 264.13 196.052C264.524 195.433 264.722 194.815 264.722 194.196C264.722 193.556 264.567 193.055 264.258 192.692C263.959 192.329 263.484 192.148 262.834 192.148C262.204 192.148 261.714 192.351 261.362 192.756C261.02 193.151 260.839 193.684 260.818 194.356H259.058C259.09 193.14 259.452 192.212 260.146 191.572C260.85 190.921 261.74 190.596 262.818 190.596C263.98 190.596 264.887 190.916 265.538 191.556C266.199 192.196 266.53 193.049 266.53 194.116C266.53 194.884 266.332 195.625 265.938 196.34C265.554 197.044 265.09 197.679 264.546 198.244C264.012 198.799 263.33 199.444 262.498 200.18L261.778 200.82H266.85V202.34H259.074V201.012L260.226 200.02ZM268.452 196.516C268.452 194.671 268.762 193.231 269.38 192.196C270.01 191.151 271.087 190.628 272.612 190.628C274.138 190.628 275.21 191.151 275.828 192.196C276.458 193.231 276.772 194.671 276.772 196.516C276.772 198.383 276.458 199.844 275.828 200.9C275.21 201.945 274.138 202.468 272.612 202.468C271.087 202.468 270.01 201.945 269.38 200.9C268.762 199.844 268.452 198.383 268.452 196.516ZM274.98 196.516C274.98 195.652 274.922 194.921 274.804 194.324C274.698 193.727 274.474 193.241 274.132 192.868C273.791 192.484 273.284 192.292 272.612 192.292C271.94 192.292 271.434 192.484 271.092 192.868C270.751 193.241 270.522 193.727 270.404 194.324C270.298 194.921 270.244 195.652 270.244 196.516C270.244 197.412 270.298 198.164 270.404 198.772C270.511 199.38 270.735 199.871 271.076 200.244C271.428 200.617 271.94 200.804 272.612 200.804C273.284 200.804 273.791 200.617 274.132 200.244C274.484 199.871 274.714 199.38 274.82 198.772C274.927 198.164 274.98 197.412 274.98 196.516Z" fill="#F7F8F8"/>
<path d="M34.5539 238.02C35.5779 237.135 36.3833 236.409 36.9699 235.844C37.5673 235.268 38.0633 234.671 38.4579 234.052C38.8526 233.433 39.0499 232.815 39.0499 232.196C39.0499 231.556 38.8953 231.055 38.5859 230.692C38.2873 230.329 37.8126 230.148 37.1619 230.148C36.5326 230.148 36.0419 230.351 35.6899 230.756C35.3486 231.151 35.1673 231.684 35.1459 232.356H33.3859C33.4179 231.14 33.7806 230.212 34.4739 229.572C35.1779 228.921 36.0686 228.596 37.1459 228.596C38.3086 228.596 39.2153 228.916 39.8659 229.556C40.5273 230.196 40.8579 231.049 40.8579 232.116C40.8579 232.884 40.6606 233.625 40.2659 234.34C39.8819 235.044 39.4179 235.679 38.8739 236.244C38.3406 236.799 37.6579 237.444 36.8259 238.18L36.1059 238.82H41.1779V240.34H33.4019V239.012L34.5539 238.02ZM42.5403 230.5V228.836H45.8683V240.5H44.0283V230.5H42.5403Z" fill="#F7F8F8"/>
<path d="M70.7336 238.02C71.7576 237.135 72.563 236.409 73.1496 235.844C73.747 235.268 74.243 234.671 74.6376 234.052C75.0323 233.433 75.2296 232.815 75.2296 232.196C75.2296 231.556 75.075 231.055 74.7656 230.692C74.467 230.329 73.9923 230.148 73.3416 230.148C72.7123 230.148 72.2216 230.351 71.8696 230.756C71.5283 231.151 71.347 231.684 71.3256 232.356H69.5656C69.5976 231.14 69.9603 230.212 70.6536 229.572C71.3576 228.921 72.2483 228.596 73.3256 228.596C74.4883 228.596 75.395 228.916 76.0456 229.556C76.707 230.196 77.0376 231.049 77.0376 232.116C77.0376 232.884 76.8403 233.625 76.4456 234.34C76.0616 235.044 75.5976 235.679 75.0536 236.244C74.5203 236.799 73.8376 237.444 73.0056 238.18L72.2856 238.82H77.3576V240.34H69.5816V239.012L70.7336 238.02ZM79.968 238.02C80.992 237.135 81.7973 236.409 82.384 235.844C82.9813 235.268 83.4773 234.671 83.872 234.052C84.2667 233.433 84.464 232.815 84.464 232.196C84.464 231.556 84.3093 231.055 84 230.692C83.7013 230.329 83.2267 230.148 82.576 230.148C81.9467 230.148 81.456 230.351 81.104 230.756C80.7627 231.151 80.5813 231.684 80.56 232.356H78.8C78.832 231.14 79.1947 230.212 79.888 229.572C80.592 228.921 81.4827 228.596 82.56 228.596C83.7227 228.596 84.6293 228.916 85.28 229.556C85.9413 230.196 86.272 231.049 86.272 232.116C86.272 232.884 86.0747 233.625 85.68 234.34C85.296 235.044 84.832 235.679 84.288 236.244C83.7547 236.799 83.072 237.444 82.24 238.18L81.52 238.82H86.592V240.34H78.816V239.012L79.968 238.02Z" fill="#F7F8F8"/>
<path d="M108.601 238.02C109.625 237.135 110.43 236.409 111.017 235.844C111.614 235.268 112.11 234.671 112.505 234.052C112.899 233.433 113.097 232.815 113.097 232.196C113.097 231.556 112.942 231.055 112.633 230.692C112.334 230.329 111.859 230.148 111.209 230.148C110.579 230.148 110.089 230.351 109.737 230.756C109.395 231.151 109.214 231.684 109.193 232.356H107.433C107.465 231.14 107.827 230.212 108.521 229.572C109.225 228.921 110.115 228.596 111.193 228.596C112.355 228.596 113.262 228.916 113.913 229.556C114.574 230.196 114.905 231.049 114.905 232.116C114.905 232.884 114.707 233.625 114.313 234.34C113.929 235.044 113.465 235.679 112.921 236.244C112.387 236.799 111.705 237.444 110.873 238.18L110.153 238.82H115.225V240.34H107.449V239.012L108.601 238.02ZM116.795 231.716C116.859 230.724 117.238 229.951 117.931 229.396C118.635 228.841 119.531 228.564 120.619 228.564C121.366 228.564 122.011 228.697 122.555 228.964C123.099 229.231 123.51 229.593 123.787 230.052C124.065 230.511 124.203 231.028 124.203 231.604C124.203 232.265 124.027 232.831 123.675 233.3C123.323 233.769 122.902 234.084 122.411 234.244V234.308C123.041 234.5 123.531 234.852 123.883 235.364C124.235 235.865 124.411 236.511 124.411 237.3C124.411 237.929 124.267 238.489 123.979 238.98C123.691 239.471 123.265 239.86 122.699 240.148C122.134 240.425 121.457 240.564 120.667 240.564C119.515 240.564 118.566 240.271 117.819 239.684C117.083 239.087 116.689 238.233 116.635 237.124H118.395C118.438 237.689 118.657 238.153 119.051 238.516C119.446 238.868 119.979 239.044 120.651 239.044C121.302 239.044 121.803 238.868 122.155 238.516C122.507 238.153 122.683 237.689 122.683 237.124C122.683 236.377 122.443 235.849 121.963 235.54C121.494 235.22 120.769 235.06 119.787 235.06H119.371V233.556H119.803C120.667 233.545 121.323 233.401 121.771 233.124C122.23 232.847 122.459 232.409 122.459 231.812C122.459 231.3 122.294 230.895 121.963 230.596C121.633 230.287 121.163 230.132 120.555 230.132C119.958 230.132 119.494 230.287 119.163 230.596C118.833 230.895 118.635 231.268 118.571 231.716H116.795Z" fill="#F7F8F8"/>
<path d="M146.171 238.02C147.195 237.135 148 236.409 148.587 235.844C149.184 235.268 149.68 234.671 150.075 234.052C150.47 233.433 150.667 232.815 150.667 232.196C150.667 231.556 150.512 231.055 150.203 230.692C149.904 230.329 149.43 230.148 148.779 230.148C148.15 230.148 147.659 230.351 147.307 230.756C146.966 231.151 146.784 231.684 146.763 232.356H145.003C145.035 231.14 145.398 230.212 146.091 229.572C146.795 228.921 147.686 228.596 148.763 228.596C149.926 228.596 150.832 228.916 151.483 229.556C152.144 230.196 152.475 231.049 152.475 232.116C152.475 232.884 152.278 233.625 151.883 234.34C151.499 235.044 151.035 235.679 150.491 236.244C149.958 236.799 149.275 237.444 148.443 238.18L147.723 238.82H152.795V240.34H145.019V239.012L146.171 238.02ZM154.174 238.068V236.692L159.55 228.98H161.758V236.484H163.246V238.068H161.758V240.5H159.966V238.068H154.174ZM160.046 230.836L156.27 236.484H160.046V230.836Z" fill="#F7F8F8"/>
<path d="M184.241 238.02C185.265 237.135 186.071 236.409 186.657 235.844C187.255 235.268 187.751 234.671 188.145 234.052C188.54 233.433 188.737 232.815 188.737 232.196C188.737 231.556 188.583 231.055 188.273 230.692C187.975 230.329 187.5 230.148 186.849 230.148C186.22 230.148 185.729 230.351 185.377 230.756C185.036 231.151 184.855 231.684 184.833 232.356H183.073C183.105 231.14 183.468 230.212 184.161 229.572C184.865 228.921 185.756 228.596 186.833 228.596C187.996 228.596 188.903 228.916 189.553 229.556C190.215 230.196 190.545 231.049 190.545 232.116C190.545 232.884 190.348 233.625 189.953 234.34C189.569 235.044 189.105 235.679 188.561 236.244C188.028 236.799 187.345 237.444 186.513 238.18L185.793 238.82H190.865V240.34H183.089V239.012L184.241 238.02ZM199.988 230.404H194.628V233.588C194.852 233.289 195.182 233.039 195.62 232.836C196.068 232.633 196.542 232.532 197.044 232.532C197.94 232.532 198.665 232.724 199.22 233.108C199.785 233.492 200.185 233.977 200.42 234.564C200.665 235.151 200.788 235.769 200.788 236.42C200.788 237.209 200.633 237.913 200.324 238.532C200.025 239.14 199.572 239.62 198.964 239.972C198.366 240.324 197.63 240.5 196.756 240.5C195.593 240.5 194.66 240.212 193.956 239.636C193.252 239.06 192.83 238.297 192.692 237.348H194.468C194.585 237.849 194.846 238.249 195.252 238.548C195.657 238.836 196.164 238.98 196.772 238.98C197.529 238.98 198.094 238.751 198.468 238.292C198.852 237.833 199.044 237.225 199.044 236.468C199.044 235.7 198.852 235.113 198.468 234.708C198.084 234.292 197.518 234.084 196.772 234.084C196.249 234.084 195.806 234.217 195.444 234.484C195.092 234.74 194.836 235.092 194.676 235.54H192.948V228.804H199.988V230.404Z" fill="#F7F8F8"/>
<path d="M222.218 238.02C223.242 237.135 224.047 236.409 224.634 235.844C225.231 235.268 225.727 234.671 226.122 234.052C226.517 233.433 226.714 232.815 226.714 232.196C226.714 231.556 226.559 231.055 226.25 230.692C225.951 230.329 225.477 230.148 224.826 230.148C224.197 230.148 223.706 230.351 223.354 230.756C223.013 231.151 222.831 231.684 222.81 232.356H221.05C221.082 231.14 221.445 230.212 222.138 229.572C222.842 228.921 223.733 228.596 224.81 228.596C225.973 228.596 226.879 228.916 227.53 229.556C228.191 230.196 228.522 231.049 228.522 232.116C228.522 232.884 228.325 233.625 227.93 234.34C227.546 235.044 227.082 235.679 226.538 236.244C226.005 236.799 225.322 237.444 224.49 238.18L223.77 238.82H228.842V240.34H221.066V239.012L222.218 238.02ZM236.716 231.54C236.599 231.049 236.386 230.681 236.076 230.436C235.767 230.191 235.335 230.068 234.78 230.068C233.938 230.068 233.308 230.393 232.892 231.044C232.476 231.684 232.258 232.751 232.236 234.244C232.514 233.775 232.919 233.412 233.452 233.156C233.986 232.9 234.562 232.772 235.18 232.772C235.884 232.772 236.503 232.927 237.036 233.236C237.58 233.535 238.002 233.972 238.3 234.548C238.61 235.124 238.764 235.812 238.764 236.612C238.764 237.359 238.615 238.025 238.316 238.612C238.028 239.199 237.596 239.663 237.02 240.004C236.444 240.335 235.751 240.5 234.94 240.5C233.842 240.5 232.978 240.26 232.348 239.78C231.73 239.289 231.292 238.601 231.036 237.716C230.791 236.831 230.668 235.727 230.668 234.404C230.668 230.5 232.044 228.548 234.796 228.548C235.863 228.548 236.7 228.836 237.308 229.412C237.927 229.988 238.29 230.697 238.396 231.54H236.716ZM234.78 234.308C234.13 234.308 233.575 234.505 233.116 234.9C232.668 235.284 232.444 235.844 232.444 236.58C232.444 237.316 232.652 237.903 233.068 238.34C233.495 238.767 234.087 238.98 234.844 238.98C235.516 238.98 236.044 238.772 236.428 238.356C236.823 237.94 237.02 237.385 237.02 236.692C237.02 235.967 236.828 235.391 236.444 234.964C236.071 234.527 235.516 234.308 234.78 234.308Z" fill="#F7F8F8"/>
<path d="M260.874 238.02C261.898 237.135 262.704 236.409 263.29 235.844C263.888 235.268 264.384 234.671 264.778 234.052C265.173 233.433 265.37 232.815 265.37 232.196C265.37 231.556 265.216 231.055 264.906 230.692C264.608 230.329 264.133 230.148 263.482 230.148C262.853 230.148 262.362 230.351 262.01 230.756C261.669 231.151 261.488 231.684 261.466 232.356H259.706C259.738 231.14 260.101 230.212 260.794 229.572C261.498 228.921 262.389 228.596 263.466 228.596C264.629 228.596 265.536 228.916 266.186 229.556C266.848 230.196 267.178 231.049 267.178 232.116C267.178 232.884 266.981 233.625 266.586 234.34C266.202 235.044 265.738 235.679 265.194 236.244C264.661 236.799 263.978 237.444 263.146 238.18L262.426 238.82H267.498V240.34H259.722V239.012L260.874 238.02ZM276.493 230.244L272.045 240.5H270.205L274.701 230.436H268.781V228.884H276.493V230.244Z" fill="#F7F8F8"/>
<path d="M33.3811 269.716C33.4451 268.724 33.8238 267.951 34.5171 267.396C35.2211 266.841 36.1171 266.564 37.2051 266.564C37.9518 266.564 38.5971 266.697 39.1411 266.964C39.6851 267.231 40.0958 267.593 40.3731 268.052C40.6505 268.511 40.7891 269.028 40.7891 269.604C40.7891 270.265 40.6131 270.831 40.2611 271.3C39.9091 271.769 39.4878 272.084 38.9971 272.244V272.308C39.6265 272.5 40.1171 272.852 40.4691 273.364C40.8211 273.865 40.9971 274.511 40.9971 275.3C40.9971 275.929 40.8531 276.489 40.5651 276.98C40.2771 277.471 39.8505 277.86 39.2851 278.148C38.7198 278.425 38.0425 278.564 37.2531 278.564C36.1011 278.564 35.1518 278.271 34.4051 277.684C33.6691 277.087 33.2745 276.233 33.2211 275.124H34.9811C35.0238 275.689 35.2425 276.153 35.6371 276.516C36.0318 276.868 36.5651 277.044 37.2371 277.044C37.8878 277.044 38.3891 276.868 38.7411 276.516C39.0931 276.153 39.2691 275.689 39.2691 275.124C39.2691 274.377 39.0291 273.849 38.5491 273.54C38.0798 273.22 37.3545 273.06 36.3731 273.06H35.9571V271.556H36.3891C37.2531 271.545 37.9091 271.401 38.3571 271.124C38.8158 270.847 39.0451 270.409 39.0451 269.812C39.0451 269.3 38.8798 268.895 38.5491 268.596C38.2185 268.287 37.7491 268.132 37.1411 268.132C36.5438 268.132 36.0798 268.287 35.7491 268.596C35.4185 268.895 35.2211 269.268 35.1571 269.716H33.3811ZM42.6731 268.5V266.836H46.0011V278.5H44.1611V268.5H42.6731Z" fill="#F7F8F8"/>
<path d="M70.2727 276.02C71.2967 275.135 72.102 274.409 72.6887 273.844C73.286 273.268 73.782 272.671 74.1767 272.052C74.5714 271.433 74.7687 270.815 74.7687 270.196C74.7687 269.556 74.614 269.055 74.3047 268.692C74.006 268.329 73.5314 268.148 72.8807 268.148C72.2514 268.148 71.7607 268.351 71.4087 268.756C71.0674 269.151 70.886 269.684 70.8647 270.356H69.1047C69.1367 269.14 69.4994 268.212 70.1927 267.572C70.8967 266.921 71.7874 266.596 72.8647 266.596C74.0274 266.596 74.934 266.916 75.5847 267.556C76.246 268.196 76.5767 269.049 76.5767 270.116C76.5767 270.884 76.3794 271.625 75.9847 272.34C75.6007 273.044 75.1367 273.679 74.5927 274.244C74.0594 274.799 73.3767 275.444 72.5447 276.18L71.8247 276.82H76.8967V278.34H69.1207V277.012L70.2727 276.02ZM80.7711 275.332C80.8777 275.865 81.1071 276.271 81.4591 276.548C81.8111 276.825 82.2857 276.964 82.8831 276.964C83.6404 276.964 84.1951 276.665 84.5471 276.068C84.8991 275.471 85.0751 274.452 85.0751 273.012C84.8191 273.375 84.4564 273.657 83.9871 273.86C83.5284 274.052 83.0271 274.148 82.4831 274.148C81.7897 274.148 81.1604 274.009 80.5951 273.732C80.0297 273.444 79.5817 273.023 79.2511 272.468C78.9311 271.903 78.7711 271.22 78.7711 270.42C78.7711 269.247 79.1124 268.313 79.7951 267.62C80.4884 266.916 81.4377 266.564 82.6431 266.564C84.0937 266.564 85.1231 267.049 85.7311 268.02C86.3497 268.98 86.6591 270.457 86.6591 272.452C86.6591 273.828 86.5417 274.953 86.3071 275.828C86.0831 276.703 85.6884 277.364 85.1231 277.812C84.5577 278.26 83.7737 278.484 82.7711 278.484C81.6297 278.484 80.7497 278.185 80.1311 277.588C79.5124 276.991 79.1657 276.239 79.0911 275.332H80.7711ZM82.8031 272.612C83.4431 272.612 83.9444 272.415 84.3071 272.02C84.6804 271.615 84.8671 271.081 84.8671 270.42C84.8671 269.684 84.6697 269.113 84.2751 268.708C83.8911 268.292 83.3631 268.084 82.6911 268.084C82.0191 268.084 81.4857 268.297 81.0911 268.724C80.7071 269.14 80.5151 269.689 80.5151 270.372C80.5151 271.023 80.7017 271.561 81.0751 271.988C81.4591 272.404 82.0351 272.612 82.8031 272.612Z" fill="#F7F8F8"/>
<path d="M107.053 269.716C107.117 268.724 107.496 267.951 108.189 267.396C108.893 266.841 109.789 266.564 110.877 266.564C111.624 266.564 112.269 266.697 112.813 266.964C113.357 267.231 113.768 267.593 114.045 268.052C114.322 268.511 114.461 269.028 114.461 269.604C114.461 270.265 114.285 270.831 113.933 271.3C113.581 271.769 113.16 272.084 112.669 272.244V272.308C113.298 272.5 113.789 272.852 114.141 273.364C114.493 273.865 114.669 274.511 114.669 275.3C114.669 275.929 114.525 276.489 114.237 276.98C113.949 277.471 113.522 277.86 112.957 278.148C112.392 278.425 111.714 278.564 110.925 278.564C109.773 278.564 108.824 278.271 108.077 277.684C107.341 277.087 106.946 276.233 106.893 275.124H108.653C108.696 275.689 108.914 276.153 109.309 276.516C109.704 276.868 110.237 277.044 110.909 277.044C111.56 277.044 112.061 276.868 112.413 276.516C112.765 276.153 112.941 275.689 112.941 275.124C112.941 274.377 112.701 273.849 112.221 273.54C111.752 273.22 111.026 273.06 110.045 273.06H109.629V271.556H110.061C110.925 271.545 111.581 271.401 112.029 271.124C112.488 270.847 112.717 270.409 112.717 269.812C112.717 269.3 112.552 268.895 112.221 268.596C111.89 268.287 111.421 268.132 110.813 268.132C110.216 268.132 109.752 268.287 109.421 268.596C109.09 268.895 108.893 269.268 108.829 269.716H107.053ZM116.585 272.516C116.585 270.671 116.894 269.231 117.513 268.196C118.142 267.151 119.22 266.628 120.745 266.628C122.27 266.628 123.342 267.151 123.961 268.196C124.59 269.231 124.905 270.671 124.905 272.516C124.905 274.383 124.59 275.844 123.961 276.9C123.342 277.945 122.27 278.468 120.745 278.468C119.22 278.468 118.142 277.945 117.513 276.9C116.894 275.844 116.585 274.383 116.585 272.516ZM123.113 272.516C123.113 271.652 123.054 270.921 122.937 270.324C122.83 269.727 122.606 269.241 122.265 268.868C121.924 268.484 121.417 268.292 120.745 268.292C120.073 268.292 119.566 268.484 119.225 268.868C118.884 269.241 118.654 269.727 118.537 270.324C118.43 270.921 118.377 271.652 118.377 272.516C118.377 273.412 118.43 274.164 118.537 274.772C118.644 275.38 118.868 275.871 119.209 276.244C119.561 276.617 120.073 276.804 120.745 276.804C121.417 276.804 121.924 276.617 122.265 276.244C122.617 275.871 122.846 275.38 122.953 274.772C123.06 274.164 123.113 273.412 123.113 272.516Z" fill="#F7F8F8"/>
<path d="M147.381 269.716C147.445 268.724 147.824 267.951 148.517 267.396C149.221 266.841 150.117 266.564 151.205 266.564C151.952 266.564 152.597 266.697 153.141 266.964C153.685 267.231 154.096 267.593 154.373 268.052C154.65 268.511 154.789 269.028 154.789 269.604C154.789 270.265 154.613 270.831 154.261 271.3C153.909 271.769 153.488 272.084 152.997 272.244V272.308C153.626 272.5 154.117 272.852 154.469 273.364C154.821 273.865 154.997 274.511 154.997 275.3C154.997 275.929 154.853 276.489 154.565 276.98C154.277 277.471 153.85 277.86 153.285 278.148C152.72 278.425 152.042 278.564 151.253 278.564C150.101 278.564 149.152 278.271 148.405 277.684C147.669 277.087 147.274 276.233 147.221 275.124H148.981C149.024 275.689 149.242 276.153 149.637 276.516C150.032 276.868 150.565 277.044 151.237 277.044C151.888 277.044 152.389 276.868 152.741 276.516C153.093 276.153 153.269 275.689 153.269 275.124C153.269 274.377 153.029 273.849 152.549 273.54C152.08 273.22 151.354 273.06 150.373 273.06H149.957V271.556H150.389C151.253 271.545 151.909 271.401 152.357 271.124C152.816 270.847 153.045 270.409 153.045 269.812C153.045 269.3 152.88 268.895 152.549 268.596C152.218 268.287 151.749 268.132 151.141 268.132C150.544 268.132 150.08 268.287 149.749 268.596C149.418 268.895 149.221 269.268 149.157 269.716H147.381ZM156.673 268.5V266.836H160.001V278.5H158.161V268.5H156.673Z" fill="#F7F8F8"/>
<path d="M190.435 267.524V267.236H192.451V278.5H192.131V267.524H190.435Z" fill="#F7F8F8"/>
<path d="M226.261 278.324C228.341 276.98 229.989 275.615 231.205 274.228C232.421 272.841 233.029 271.519 233.029 270.26C233.029 269.428 232.805 268.745 232.357 268.212C231.909 267.679 231.173 267.412 230.149 267.412C229.114 267.412 228.32 267.727 227.765 268.356C227.221 268.975 226.912 269.796 226.837 270.82H226.517C226.602 269.668 226.96 268.767 227.589 268.116C228.229 267.455 229.082 267.124 230.149 267.124C231.056 267.124 231.813 267.375 232.421 267.876C233.04 268.377 233.349 269.172 233.349 270.26C233.349 271.209 233.013 272.191 232.341 273.204C231.669 274.217 230.837 275.161 229.845 276.036C228.853 276.9 227.861 277.625 226.869 278.212H233.733V278.5H226.261V278.324Z" fill="#F7F8F8"/>
<path d="M264.454 270.244C264.561 269.273 264.934 268.511 265.574 267.956C266.214 267.401 267.073 267.124 268.15 267.124C269.153 267.124 269.932 267.385 270.486 267.908C271.041 268.431 271.318 269.097 271.318 269.908C271.318 270.591 271.1 271.188 270.662 271.7C270.225 272.201 269.51 272.495 268.518 272.58V272.676C269.414 272.772 270.14 273.076 270.694 273.588C271.249 274.089 271.526 274.772 271.526 275.636C271.526 276.5 271.244 277.215 270.678 277.78C270.113 278.335 269.265 278.612 268.134 278.612C267.078 278.612 266.209 278.329 265.526 277.764C264.854 277.188 264.428 276.383 264.246 275.348H264.566C264.726 276.223 265.11 276.932 265.718 277.476C266.337 278.02 267.142 278.292 268.134 278.292C269.137 278.292 269.9 278.047 270.422 277.556C270.945 277.055 271.206 276.415 271.206 275.636C271.206 274.708 270.838 274.004 270.102 273.524C269.366 273.033 268.337 272.788 267.014 272.788H266.742V272.484H267.03C269.676 272.484 270.998 271.625 270.998 269.908C270.998 269.161 270.748 268.559 270.246 268.1C269.745 267.641 269.046 267.412 268.15 267.412C267.276 267.412 266.524 267.641 265.894 268.1C265.265 268.559 264.892 269.273 264.774 270.244H264.454Z" fill="#F7F8F8"/>
</g>
<defs>
<filter id="filter0_d_982_4731" x="-16" y="-3" width="352" height="348" filterUnits="userSpaceOnUse" color-interpolation-filters="sRGB">
<feFlood flood-opacity="0" result="BackgroundImageFix"/>
<feColorMatrix in="SourceAlpha" type="matrix" values="0 0 0 0 0 0 0 0 0 0 0 0 0 0 0 0 0 0 127 0" result="hardAlpha"/>
<feOffset dx="2" dy="16"/>
<feGaussianBlur stdDeviation="9.5"/>
<feColorMatrix type="matrix" values="0 0 0 0 0 0 0 0 0 0 0 0 0 0 0 0 0 0 0.09 0"/>
<feBlend mode="normal" in2="BackgroundImageFix" result="effect1_dropShadow_982_4731"/>
<feBlend mode="normal" in="SourceGraphic" in2="effect1_dropShadow_982_4731" result="shape"/>
</filter>
<linearGradient id="paint0_linear_982_4731" x1="0.999997" y1="155" x2="315" y2="155" gradientUnits="userSpaceOnUse">
<stop stop-color="#50BFA5"/>
<stop offset="1" stop-color="#16A6A7"/>
</linearGradient>
<linearGradient id="paint1_linear_982_4731" x1="93" y1="172" x2="53.0162" y2="168.906" gradientUnits="userSpaceOnUse">
<stop stop-color="#FC5E39"/>
<stop offset="1" stop-color="#FF967A"/>
</linearGradient>
<clipPath id="clip0_982_4731">
<rect width="266" height="16" fill="white" transform="translate(25 24)"/>
</clipPath>
</defs>
</svg>
