<svg width="55" height="46" viewBox="0 0 55 46" fill="none" xmlns="http://www.w3.org/2000/svg">
<path d="M0.0651572 36.408C0.626836 34.0194 6.11187 34.062 8.62902 35.5549C7.04106 34.9933 4.46844 32.9388 6.54873 31.5525C7.87318 30.6568 9.898 31.3037 11.4721 33.081C10.6168 32.2978 9.8785 31.39 9.28084 30.3867C8.32391 28.9933 8.12282 26.3132 10.4042 25.2113C12.3319 24.2729 15.2582 25.0264 16.6936 27.3084C17.5749 28.9064 18.0517 30.7052 18.0805 32.5407C18.0805 31.2895 18.1221 28.9009 20.6947 29.0928C23.3783 29.2919 22.7265 32.498 22.775 34.1189C22.775 34.1189 22.671 29.4696 25.6042 27.7208C26.2611 27.3017 27.0043 27.0455 27.7748 26.9727C28.5452 26.8999 29.3216 27.0124 30.0421 27.3013C30.8311 27.5493 31.4924 28.1069 31.8821 28.8526C32.2717 29.5983 32.3581 30.4717 32.1224 31.2824C31.5608 33.1876 29.4874 34.844 29.4874 34.844C30.5971 34.2598 31.758 33.7838 32.9546 33.4222C35.3191 32.9459 39.1538 32.8037 40.6724 34.844C42.191 36.8843 39.979 39.7706 35.6035 39.8985C32.7118 39.9838 8.12282 40.0763 5.22428 40.0763C2.93596 40.0692 -0.517324 38.9033 0.0651572 36.408Z" fill="url(#paint0_linear_923_3638)"/>
<path d="M53.9585 33.0027C53.4315 30.4719 48.2654 30.5075 45.8939 32.0928C47.3917 31.4885 49.7909 29.3132 47.8632 27.8274C46.622 26.8819 44.715 27.5643 43.2311 29.4482C44.0528 28.6065 44.7532 27.649 45.3114 26.6046C46.2059 25.133 46.3862 22.3392 44.2366 21.1164C42.4267 20.1141 39.6738 20.9174 38.3147 23.3416C37.4868 25.0729 37.0484 26.9727 37.0318 28.9008C37.0318 27.5714 36.9972 25.0335 34.5771 25.2397C32.0461 25.4529 32.6632 28.8582 32.6285 30.5786C32.6285 30.5786 32.7187 25.6022 29.9588 23.8108C29.3636 23.3708 28.6665 23.0979 27.9367 23.0194C27.2068 22.9408 26.4697 23.0592 25.7983 23.3629C25.0221 23.6982 24.3936 24.3149 24.0329 25.0951C23.6722 25.8754 23.6045 26.7646 23.8428 27.5928C24.2727 29.5833 26.2559 31.2895 26.2559 31.2895C25.2117 30.6806 24.1106 30.1804 22.9691 29.7966C20.7431 29.2989 17.1304 29.1496 15.7019 31.3108C14.2734 33.4719 16.3329 36.5501 20.4727 36.6852C23.1979 36.7705 46.3515 36.8772 49.0836 36.8772C51.2541 36.8985 54.5063 35.6544 53.9585 33.0027Z" fill="url(#paint1_linear_923_3638)"/>
<path d="M29.2725 0.720269C29.2725 0.720269 32.2819 -0.104379 33.3637 2.01411C33.1646 2.50836 32.8286 2.93199 32.3973 3.23268C31.966 3.53337 31.4582 3.69794 30.9367 3.70606C30.9367 3.70606 31.1517 1.16814 29.2725 0.720269Z" fill="#069FAD"/>
<path d="M34.5424 26.9026C31.7349 26.6039 29.0725 25.475 26.8792 23.6535C24.686 21.8319 23.0564 19.3961 22.1887 16.6424C21.3211 13.8888 21.2528 10.9359 21.9921 8.14316C22.7314 5.35041 24.2465 2.83813 26.353 0.911987C23.0279 1.06997 19.8103 2.16863 17.0567 4.08624C14.3032 6.00385 12.1213 8.66554 10.7527 11.7764C9.38415 14.8873 8.88236 18.3258 9.30295 21.7111C9.72355 25.0964 11.0501 28.2962 13.1356 30.956C15.2212 33.6158 17.9843 35.6317 21.1188 36.7805C24.2532 37.9292 27.6368 38.1659 30.8944 37.4643C34.152 36.7626 37.1566 35.1501 39.5752 32.8054C41.9938 30.4606 43.732 27.4752 44.5972 24.1798C41.6867 26.3253 38.1067 27.2947 34.5424 26.9026Z" fill="#BFBFBF"/>
<path d="M22.5323 14.5122C22.0619 12.7785 21.9276 10.9671 22.1371 9.1804C22.567 5.54058 24.8623 2.07137 29.7648 1.07611C29.8147 1.06064 29.8584 1.02913 29.8894 0.986244C29.9205 0.943356 29.9372 0.891364 29.9372 0.837955C29.9372 0.784545 29.9205 0.732553 29.8894 0.689665C29.8584 0.646777 29.8147 0.61527 29.7648 0.599802C20.9721 -2.12296 12.2488 4.9292 9.49585 11.5833C12.2072 16.4672 21.4991 15.4435 22.5323 14.5122Z" fill="#7B6F72"/>
<path d="M16.4232 18.6919H16.3053C15.6031 18.6165 14.9232 18.3955 14.3069 18.0423C13.6906 17.6891 13.1508 17.2112 12.7202 16.6374C12.6906 16.5991 12.6687 16.555 12.6561 16.5078C12.6435 16.4606 12.6403 16.4113 12.6468 16.3628C12.6533 16.3143 12.6693 16.2676 12.6938 16.2257C12.7184 16.1837 12.7509 16.1472 12.7896 16.1185C12.867 16.0585 12.9643 16.0323 13.0604 16.0456C13.1566 16.059 13.2437 16.1107 13.3027 16.1896C13.3027 16.1896 14.5856 17.8886 16.333 17.9455C17.4148 17.9455 18.4827 17.3768 19.502 16.1682C19.5672 16.0942 19.6579 16.0491 19.755 16.0425C19.8521 16.0358 19.9479 16.0682 20.0221 16.1327C20.0584 16.1647 20.0881 16.2037 20.1096 16.2476C20.131 16.2915 20.1437 16.3393 20.147 16.3883C20.1502 16.4373 20.1439 16.4864 20.1284 16.5328C20.1129 16.5793 20.0885 16.6221 20.0567 16.6588C18.9195 18.0095 17.6991 18.6919 16.4232 18.6919Z" fill="#4F4840"/>
<path d="M16.6591 18.436H16.2361V20.5972H16.6591V18.436Z" fill="#4F4840"/>
<path d="M17.1773 18.3031L16.7639 18.3951L17.2116 20.507L17.6249 20.4149L17.1773 18.3031Z" fill="#4F4840"/>
<path d="M17.7989 18.1221L17.396 18.2542L18.038 20.3126L18.4409 20.1806L17.7989 18.1221Z" fill="#4F4840"/>
<path d="M18.3376 17.8779L17.9548 18.0624L18.8517 20.0182L19.2345 19.8337L18.3376 17.8779Z" fill="#4F4840"/>
<path d="M18.8465 17.5586L18.4895 17.7911L19.62 19.6152L19.977 19.3827L18.8465 17.5586Z" fill="#4F4840"/>
<path d="M19.3313 17.139L18.99 17.3951L20.2353 19.1389L20.5766 18.8827L19.3313 17.139Z" fill="#4F4840"/>
<path d="M19.7785 16.758L19.459 17.0421L20.8403 18.6746L21.1598 18.3905L19.7785 16.758Z" fill="#4F4840"/>
<path d="M15.6942 18.3009L15.2466 20.4127L15.6599 20.5048L16.1076 18.3929L15.6942 18.3009Z" fill="#4F4840"/>
<path d="M15.0747 18.1141L14.4324 20.1725L14.8353 20.3046L15.4776 18.2462L15.0747 18.1141Z" fill="#4F4840"/>
<path d="M14.5397 17.8803L13.6428 19.8361L14.0256 20.0206L14.9225 18.0648L14.5397 17.8803Z" fill="#4F4840"/>
<path d="M14.0233 17.5565L12.8938 19.3812L13.2509 19.6136L14.3805 17.7889L14.0233 17.5565Z" fill="#4F4840"/>
<path d="M13.5412 17.1471L12.2959 18.8909L12.6372 19.147L13.8825 17.4033L13.5412 17.1471Z" fill="#4F4840"/>
<path d="M13.0966 16.7574L11.7156 18.3901L12.0352 18.6742L13.4162 17.0415L13.0966 16.7574Z" fill="#4F4840"/>
<path d="M30.1045 25.6874C28.7858 26.7387 27.1826 27.3469 25.514 27.4292C23.9608 27.3723 22.56 26.3415 21.5962 25.46C21.4039 25.6321 21.1974 25.7867 20.979 25.922C24.89 30.5785 29.8202 27.7349 31.4013 26.2135C30.9476 26.0997 30.5113 25.9227 30.1045 25.6874Z" fill="#4F4840"/>
<path d="M20.355 26.434C20.1646 26.4353 19.9752 26.4065 19.7933 26.3487C19.7588 26.3347 19.7274 26.3137 19.701 26.2871C19.6745 26.2604 19.6536 26.2285 19.6394 26.1934C19.6251 26.1583 19.6179 26.1206 19.6182 26.0825C19.6184 26.0445 19.6261 26.0069 19.6408 25.972C19.6686 25.9005 19.7228 25.8432 19.7917 25.8126C19.8605 25.7819 19.9384 25.7804 20.0083 25.8084C20.0568 25.8084 21.2079 26.2421 22.1648 24.4222C22.2029 24.3585 22.2632 24.3123 22.3335 24.2929C22.4038 24.2736 22.4787 24.2826 22.5427 24.3181C22.6067 24.3537 22.655 24.413 22.6776 24.484C22.7001 24.5549 22.6953 24.632 22.6641 24.6994C21.8944 26.171 20.9444 26.434 20.355 26.434Z" fill="#4F4840"/>
<path d="M52.1281 41.6479C51.5525 38.9322 45.8456 38.982 43.2313 40.6668C44.8817 40.027 47.5306 37.6952 45.4087 36.117C44.0219 35.1004 41.9416 35.8327 40.2912 37.8516C41.1908 36.9502 41.9592 35.9207 42.5726 34.7948C43.5642 33.2166 43.7584 30.1881 41.3868 28.9227C39.3897 27.8563 36.3456 28.7165 34.8547 31.3042C33.4262 33.7853 33.4678 37.2474 33.4678 37.2474C33.4678 35.8256 33.4193 33.117 30.7496 33.3303C27.9759 33.5578 28.6693 37.2047 28.6069 39.0175C28.6069 39.0175 28.7109 33.7355 25.6598 31.7734C24.9938 31.2994 24.221 31.007 23.4143 30.9236C22.6075 30.8403 21.7934 30.9688 21.0485 31.2971C20.2034 31.6405 19.5142 32.2956 19.1164 33.1336C18.7186 33.9716 18.641 34.9319 18.8989 35.8256C19.4259 37.9583 21.5824 39.8066 21.5824 39.8066C20.4299 39.1551 19.2174 38.6217 17.9627 38.2142C15.5011 37.6739 11.5208 37.5033 9.93975 39.828C8.35873 42.1526 10.6332 45.4299 15.2098 45.5721C18.2124 45.6716 43.7653 45.7782 46.7748 45.7782C49.1532 45.8067 52.7036 44.4844 52.1281 41.6479Z" fill="url(#paint2_linear_923_3638)"/>
<path d="M31.9422 14.9812L27.7816 15.2087L27.74 14.4125L30.3681 10.5807L27.8301 10.7229L27.74 9.84139L31.4984 9.64233L31.54 10.4172L28.905 14.2632L31.9006 14.1068L31.9422 14.9812Z" fill="#4F4840"/>
<path d="M32.9199 12.9268L32.594 12.0951L34.39 11.3842L34.7159 12.2515L32.9199 12.9268Z" fill="#4F4840"/>
<path d="M36.394 13.1468L36.0057 12.4999L36.283 9.28658L34.813 10.225L34.4177 9.56384L36.8655 8.00696L37.2608 8.66099L36.9834 11.8601L38.7309 10.7439L39.133 11.4122L36.394 13.1468Z" fill="#4F4840"/>
<path d="M39.2508 9.28716L38.5574 8.69711L39.7917 7.17578L40.4851 7.76583L39.2508 9.28716Z" fill="#4F4840"/>
<path d="M42.4059 7.45267L41.7124 7.13276L40.2562 4.27493L39.5281 5.89579L38.8347 5.56878L40.0552 2.88867L40.7486 3.21569L42.2256 6.0593L43.0854 4.13275L43.7789 4.46688L42.4059 7.45267Z" fill="#4F4840"/>
<path d="M8.18515 8.22775L6.88151 6.62111L4.85669 6.80595L5.94537 5.04291L5.14793 3.12347L7.11727 3.64243L8.64975 2.27039L8.7815 4.35333L10.5289 5.4268L8.63588 6.19457L8.18515 8.22775Z" fill="#BFBFBF"/>
<path d="M44.6737 17.3629L43.6266 15.3582L41.4146 15.1023L42.954 13.4601L42.5032 11.2278L44.5072 12.2231L46.435 11.0928L46.1368 13.3534L47.7802 14.889L45.589 15.2942L44.6737 17.3629Z" fill="#BFBFBF"/>
<path d="M35.2291 21.7284L34.2098 20.2994L32.4832 20.3492L33.4956 18.9132L32.92 17.2426L34.5634 17.7828L35.9295 16.7023L35.9364 18.4795L37.3649 19.4748L35.7215 20.0293L35.2291 21.7284Z" fill="#BFBFBF"/>
<defs>
<linearGradient id="paint0_linear_923_3638" x1="41.1502" y1="40.0763" x2="-11.7205" y2="29.0431" gradientUnits="userSpaceOnUse">
<stop stop-color="#03989E"/>
<stop offset="1" stop-color="#62DBC8"/>
</linearGradient>
<linearGradient id="paint1_linear_923_3638" x1="54.0197" y1="36.8774" x2="3.7658" y2="27.561" gradientUnits="userSpaceOnUse">
<stop stop-color="#03989E"/>
<stop offset="1" stop-color="#62DBC8"/>
</linearGradient>
<linearGradient id="paint2_linear_923_3638" x1="52.1902" y1="45.7787" x2="-3.10791" y2="35.2063" gradientUnits="userSpaceOnUse">
<stop stop-color="#03989E"/>
<stop offset="1" stop-color="#03989E"/>
</linearGradient>
</defs>
</svg>
