<svg width="31" height="31" viewBox="0 0 31 31" fill="none" xmlns="http://www.w3.org/2000/svg">
<path fill-rule="evenodd" clip-rule="evenodd" d="M9.46808 2.5835H21.5193C25.911 2.5835 28.4168 5.0635 28.4168 9.46808V21.5322C28.4168 25.911 25.9239 28.4168 21.5322 28.4168H9.46808C5.0635 28.4168 2.5835 25.911 2.5835 21.5322V9.46808C2.5835 5.0635 5.0635 2.5835 9.46808 2.5835ZM16.5593 16.5722H20.2277C20.8218 16.5593 21.2997 16.0814 21.2997 15.4872C21.2997 14.8931 20.8218 14.4152 20.2277 14.4152H16.5593V10.7727C16.5593 10.1785 16.0814 9.70058 15.4872 9.70058C14.8931 9.70058 14.4152 10.1785 14.4152 10.7727V14.4152H10.7597C10.4756 14.4152 10.2043 14.5314 9.99766 14.7252C9.80391 14.9318 9.68766 15.2018 9.68766 15.4872C9.68766 16.0814 10.1656 16.5593 10.7597 16.5722H14.4152V20.2277C14.4152 20.8218 14.8931 21.2997 15.4872 21.2997C16.0814 21.2997 16.5593 20.8218 16.5593 20.2277V16.5722Z" fill="#F7F8F8" fill-opacity="0.59"/>
</svg>
