<svg width="315" height="51" viewBox="0 0 315 51" fill="none" xmlns="http://www.w3.org/2000/svg">
<mask id="mask0_1106_794" style="mask-type:alpha" maskUnits="userSpaceOnUse" x="0" y="0" width="315" height="51">
<rect y="0.932373" width="315" height="50.0676" rx="12" fill="#C4C4C4"/>
</mask>
<g mask="url(#mask0_1106_794)">
<path opacity="0.3" d="M-57.2727 34.9526C-42.1345 25.3418 -4.95241 19.4443 54.0186 17.3006C120.647 14.8786 151.594 33.3952 213.992 28.8547C259.849 25.5178 249.037 17.0459 284.411 11.2026C314.11 6.29693 334.333 3.93301 372.273 0.932373" stroke="white"/>
<path opacity="0.3" d="M-57.2727 42.6554C-42.1345 33.0445 -4.95241 27.1471 54.0186 25.0034C120.647 22.5813 151.594 41.0979 213.992 36.5574C259.849 33.2205 249.037 24.7487 284.411 18.9054C314.11 13.9997 334.333 11.6358 372.273 8.63513" stroke="white"/>
<path opacity="0.3" d="M-57.2727 40.0878C-42.1345 30.4769 -4.95241 24.5794 54.0186 22.4357C120.647 20.0137 151.594 38.5303 213.992 33.9898C259.849 30.6529 249.037 22.1811 284.411 16.3378C314.11 11.4321 334.333 9.06815 372.273 6.0675" stroke="white"/>
<path opacity="0.3" d="M-57.2727 37.5203C-42.1345 27.9094 -4.95241 22.0119 54.0186 19.8682C120.647 17.4462 151.594 35.9628 213.992 31.4223C259.849 28.0854 249.037 19.6136 284.411 13.7703C314.11 8.86455 334.333 6.50064 372.273 3.5" stroke="white"/>
<path d="M-11.4546 13.1283C1.10774 22.7392 31.963 28.6366 80.8996 30.7803C136.19 33.2023 161.872 14.6858 213.652 19.2263C251.706 22.5632 242.734 31.035 272.089 36.8783C296.734 41.784 313.516 44.1479 345 47.1486" stroke="white" stroke-width="1.2"/>
<path d="M-11.4546 5.42553C1.10774 15.0364 31.963 20.9339 80.8996 23.0776C136.19 25.4996 161.872 6.98302 213.652 11.5235C251.706 14.8604 242.734 23.3322 272.089 29.1755C296.734 34.0812 313.516 36.4452 345 39.4458" stroke="white" stroke-width="1.2"/>
<path d="M-11.4546 7.99316C1.10774 17.604 31.963 23.5015 80.8996 25.6452C136.19 28.0672 161.872 9.55065 213.652 14.0911C251.706 17.428 242.734 25.8999 272.089 31.7432C296.734 36.6489 313.516 39.0128 345 42.0134" stroke="white" stroke-width="1.2"/>
<path d="M-11.4546 10.5607C1.10774 20.1715 31.963 26.069 80.8996 28.2127C136.19 30.6347 161.872 12.1182 213.652 16.6586C251.706 19.9955 242.734 28.4674 272.089 34.3107C296.734 39.2164 313.516 41.5803 345 44.5809" stroke="white" stroke-width="1.2"/>
</g>
</svg>
