<?xml version="1.0" standalone="no"?>
<!DOCTYPE svg PUBLIC "-//W3C//DTD SVG 20010904//EN"
 "http://www.w3.org/TR/2001/REC-SVG-20010904/DTD/svg10.dtd">
<svg version="1.0" xmlns="http://www.w3.org/2000/svg"
 width="1300.000000pt" height="1300.000000pt" viewBox="0 0 1300.000000 1300.000000"
 preserveAspectRatio="xMidYMid meet">

<g transform="translate(0.000000,1300.000000) scale(0.100000,-0.100000)"
fill="#000000" stroke="none">
<path d="M4571 10088 c-8 -13 -20 -43 -26 -68 -12 -43 -13 -44 -20 -17 -10 36
-21 34 -29 -5 -6 -29 -7 -30 -20 -13 -12 16 -14 14 -19 -22 -8 -45 -22 -61
-92 -96 -156 -78 -177 -170 -118 -499 10 -54 21 -98 25 -98 14 0 20 50 14 103
-12 97 26 260 63 272 10 3 47 -3 82 -14 121 -36 249 -35 360 3 40 14 42 14 64
-10 25 -27 25 -28 55 -184 27 -141 47 -159 61 -57 13 94 10 254 -7 322 -22 89
-64 135 -168 184 -98 47 -181 127 -191 185 -8 42 -15 45 -34 14z"/>
<path d="M10402 10013 c-29 -4 -32 -6 -20 -20 12 -14 11 -15 -8 -3 -17 10 -30
10 -80 -5 -74 -21 -150 -62 -175 -93 -11 -14 -19 -40 -19 -62 0 -20 -8 -52
-17 -71 -23 -44 -22 -167 1 -269 10 -41 23 -100 30 -130 12 -56 26 -51 26 10
0 55 58 90 152 90 27 0 58 -5 70 -11 40 -21 27 -2 -14 21 -57 32 -126 32 -169
1 l-32 -23 5 88 c4 92 24 149 55 161 8 3 59 -4 113 -17 82 -19 114 -22 211
-18 63 3 122 9 132 13 17 7 17 8 0 29 -10 11 -4 8 13 -7 26 -23 32 -26 37 -13
4 9 10 16 15 16 11 0 42 -55 42 -76 0 -9 8 -26 18 -37 10 -12 11 -17 3 -12
-12 7 -13 -11 -8 -120 8 -174 21 -181 51 -28 l17 86 -23 26 c-19 21 -19 23 -2
8 11 -9 24 -14 27 -10 13 13 7 202 -7 240 -8 21 -17 56 -21 77 -10 57 -56 99
-137 124 -64 20 -203 44 -236 40 -9 0 -32 -3 -50 -5z m43 -83 c21 -22 37 -40
34 -40 -3 0 -23 18 -44 40 -21 22 -37 40 -34 40 3 0 23 -18 44 -40z m120 -120
c38 -38 67 -70 64 -70 -2 0 -36 32 -74 70 -38 39 -67 70 -64 70 2 0 36 -31 74
-70z"/>
<path d="M1715 9708 c-97 -35 -201 -142 -269 -276 -30 -60 -103 -237 -135
-327 -59 -171 -43 -304 54 -451 44 -67 78 -197 73 -281 -2 -35 -1 -63 2 -63 3
1 34 7 70 15 107 23 100 29 100 -82 0 -137 -31 -299 -74 -380 -14 -29 -79 -93
-94 -93 -33 -1 -32 -19 11 -156 25 -76 48 -153 51 -170 7 -30 10 -32 79 -43
153 -24 273 -32 400 -27 123 4 243 21 259 35 12 11 109 346 101 348 -56 19
-122 97 -142 168 -25 87 -41 205 -41 308 0 59 1 107 3 107 1 0 37 -7 80 -15
43 -8 85 -15 93 -15 21 0 17 27 -13 111 -22 60 -27 90 -27 159 1 88 11 124 70
260 52 118 42 323 -23 481 -23 57 -102 211 -114 223 -5 6 -19 0 -36 -15 l-28
-24 28 31 27 30 -36 42 c-48 56 -65 64 -154 73 -41 4 -93 14 -115 22 -46 18
-155 21 -200 5z m415 -242 c0 -2 -8 -10 -17 -17 -16 -13 -17 -12 -4 4 13 16
21 21 21 13z m-82 -60 c8 -4 10 -17 7 -29 -4 -15 -3 -18 3 -9 11 15 45 -64 35
-82 -3 -6 -2 -8 2 -3 8 7 57 -94 50 -101 -2 -2 -13 2 -26 8 -33 18 -107 7
-133 -20 -20 -22 -20 -22 -1 -15 97 36 154 23 197 -47 31 -51 46 -51 62 0 9
27 32 29 46 3 15 -29 12 -81 -9 -126 -21 -47 -43 -67 -66 -63 -13 2 -20 -9
-30 -44 -15 -60 -46 -106 -135 -202 -52 -57 -70 -82 -64 -94 11 -26 25 -133
18 -143 -3 -5 0 -9 6 -9 5 0 18 -15 27 -34 16 -35 48 -56 83 -56 26 0 26 -31
0 -89 -24 -52 -37 -64 -108 -98 -49 -23 -62 -25 -156 -21 -94 3 -108 6 -152
34 -54 33 -71 60 -80 126 l-6 43 47 13 c40 11 49 18 65 55 10 23 22 66 26 95
3 28 10 52 15 52 5 0 9 15 9 33 0 26 -11 43 -60 91 -54 53 -120 137 -120 154
0 3 -7 25 -16 48 -12 32 -22 43 -43 47 -49 10 -89 135 -61 188 11 20 50 27 50
8 0 -18 65 -4 120 25 46 24 76 27 134 11 21 -6 21 -6 -2 14 -12 11 -28 21 -34
23 -8 3 0 20 21 46 18 23 38 39 43 36 6 -4 8 -2 4 4 -3 6 4 26 16 45 13 19 30
48 39 64 15 28 18 29 90 28 41 0 80 -4 87 -9z m-167 -2003 c13 -16 12 -17 -3
-4 -10 7 -18 15 -18 17 0 8 8 3 21 -13z"/>
<path d="M1660 9140 c-9 -6 -10 -10 -3 -10 6 0 15 5 18 10 8 12 4 12 -15 0z"/>
<path d="M1671 9119 c-22 -13 -36 -17 -40 -10 -4 7 -13 3 -23 -8 -16 -19 -15
-20 14 -30 26 -9 35 -8 49 5 19 17 75 12 64 -6 -3 -5 -12 -7 -20 -3 -11 4 -14
0 -9 -13 23 -63 58 -46 50 24 -6 65 -29 76 -85 41z"/>
<path d="M2004 9123 c3 -3 -5 -14 -17 -25 -16 -14 -17 -18 -5 -14 13 4 18 -2
20 -27 4 -39 36 -45 49 -9 5 13 5 22 -1 22 -6 0 -10 5 -10 10 0 15 31 12 50
-5 13 -12 23 -13 41 -6 13 5 17 10 9 11 -13 0 -13 1 0 10 12 8 9 10 -11 10
-15 0 -32 6 -38 14 -6 7 -30 14 -52 14 -23 1 -39 -2 -35 -5z"/>
<path d="M1770 9085 c7 -8 17 -15 22 -15 6 0 5 7 -2 15 -7 8 -17 15 -22 15 -6
0 -5 -7 2 -15z"/>
<path d="M1888 8893 c-9 -2 -19 -11 -22 -19 -4 -10 3 -14 27 -13 30 1 31 1 7
9 l-25 8 28 1 c15 1 27 6 27 11 0 10 -12 11 -42 3z"/>
<path d="M1780 8798 c0 -3 14 -18 31 -32 49 -42 127 -34 172 17 9 11 17 20 17
21 0 1 -49 1 -110 1 -60 0 -110 -3 -110 -7z m155 -28 c-3 -5 -18 -10 -33 -9
l-27 1 25 8 c35 11 42 11 35 0z"/>
<path d="M1847 8546 c-19 -50 34 -75 74 -35 11 11 27 18 35 15 8 -3 14 1 14 8
0 10 -13 13 -45 10 -25 -1 -45 2 -45 7 0 14 -27 11 -33 -5z"/>
<path d="M6938 9699 c7 -9 9 -25 5 -34 -5 -14 -3 -16 7 -10 7 5 11 4 8 -1 -6
-10 176 -196 186 -189 3 3 4 2 1 -2 -3 -3 3 -15 12 -27 10 -11 1 -6 -19 10
-21 16 -38 33 -38 38 0 4 -7 6 -14 3 -11 -4 -13 -1 -9 10 5 12 2 15 -10 10
-10 -4 -14 -2 -11 6 6 18 -41 61 -57 52 -8 -5 -10 -4 -5 3 9 14 -69 91 -90 88
-8 -1 -24 -10 -36 -20 -11 -10 -36 -25 -55 -33 -24 -10 -33 -19 -29 -29 3 -8
2 -13 -3 -10 -10 7 -39 -34 -45 -61 -1 -10 -5 -25 -8 -33 -16 -44 -27 -94 -22
-102 3 -4 0 -8 -6 -8 -6 0 -8 -4 -5 -10 8 -13 -17 -99 -54 -189 -17 -40 -31
-86 -31 -101 0 -16 -4 -32 -10 -35 -12 -7 -2 -95 13 -113 12 -15 13 -30 21
-205 4 -101 3 -112 -20 -155 -14 -25 -22 -52 -19 -60 2 -7 1 -11 -4 -8 -12 8
-41 -67 -41 -107 0 -27 12 -54 36 -86 2 -2 9 1 16 7 11 8 52 22 179 58 9 2 19
17 22 32 16 74 96 144 167 146 22 0 40 4 40 8 0 5 8 8 18 9 10 0 12 3 5 6 -8
3 -13 23 -13 46 0 38 -7 49 -70 117 -72 76 -106 133 -120 197 -7 30 -3 46 23
99 20 40 37 64 48 64 9 0 22 6 28 14 13 15 51 18 51 4 0 -4 -4 -8 -10 -8 -17
0 -11 -50 6 -57 19 -7 34 13 34 44 0 17 4 21 18 17 11 -4 8 3 -10 19 -18 17
-23 27 -15 30 7 3 -4 6 -23 6 -20 1 -46 -6 -59 -15 -23 -16 -23 -16 -16 7 4
13 12 30 17 37 13 15 57 16 94 2 24 -9 25 -9 14 5 -7 8 -30 20 -52 26 -35 9
-39 13 -33 32 3 12 8 36 11 52 2 17 11 47 20 67 14 31 23 38 55 43 21 4 51 6
66 5 15 -1 30 -1 33 0 17 9 91 7 127 -3 43 -11 53 -25 53 -78 0 -27 31 -64 44
-52 4 4 4 0 1 -10 -8 -18 78 -117 102 -117 7 0 13 -4 13 -10 0 -23 -28 -7 -70
40 l-45 51 -57 -17 c-32 -10 -58 -22 -58 -26 0 -10 8 -10 46 1 36 10 49 5 56
-25 5 -19 2 -21 -46 -17 -37 2 -46 1 -31 -6 12 -6 14 -10 6 -10 -7 -1 -22 -11
-32 -23 -23 -25 -25 -35 -4 -18 13 10 15 9 15 -11 0 -33 15 -53 34 -46 10 4
16 19 16 42 0 63 38 41 79 -47 12 -26 31 -50 42 -53 26 -8 25 -48 -3 -120 -16
-43 -43 -80 -101 -142 -79 -83 -80 -85 -78 -133 1 -41 -2 -50 -19 -55 -32 -10
-22 -32 13 -26 4 0 7 -3 7 -8 0 -4 -15 -13 -32 -19 l-33 -11 40 2 c35 2 40 5
37 25 -2 12 -1 22 2 22 24 0 118 -26 147 -41 41 -21 105 -82 114 -108 4 -13
23 -22 61 -30 31 -6 60 -9 64 -6 5 3 11 -1 14 -7 3 -7 4 -4 1 7 -2 11 -11 53
-20 93 -11 46 -21 70 -28 65 -6 -4 -8 0 -4 10 3 9 0 29 -8 44 -8 15 -15 36
-15 46 0 9 -4 17 -8 17 -4 0 -4 40 -1 89 6 67 14 101 35 140 18 36 28 73 32
119 4 59 2 69 -17 86 -11 11 -21 23 -21 29 0 5 -17 30 -39 56 -40 48 -48 73
-58 177 l-5 62 -44 6 c-24 3 -52 10 -61 16 -10 5 -35 16 -55 24 -58 23 -47 36
32 36 40 0 70 4 70 10 0 6 7 10 15 10 9 0 18 7 21 15 7 17 -14 47 -27 39 -5
-3 -6 1 -4 9 3 7 -6 26 -20 41 -14 15 -25 30 -25 34 0 4 -26 20 -57 35 -45 21
-74 27 -128 28 -38 1 -90 6 -115 11 -25 6 -65 10 -89 9 -29 -1 -50 4 -64 16
-16 13 -18 14 -9 2z m414 -393 c7 4 8 2 4 -5 -9 -13 -26 -5 -25 12 0 9 2 8 6
-1 2 -6 10 -9 15 -6z"/>
<path d="M10606 9485 c-65 -23 -65 -34 0 -28 38 3 77 -1 109 -11 27 -8 51 -13
54 -11 10 10 -34 45 -68 55 -45 12 -47 12 -95 -5z"/>
<path d="M4353 9438 c-20 -10 -38 -36 -30 -45 2 -2 23 4 47 12 49 17 98 19
135 5 39 -15 20 9 -21 26 -39 16 -100 17 -131 2z"/>
<path d="M4715 9441 c-12 -5 -27 -16 -34 -25 -13 -15 -11 -16 13 -6 38 14 86
13 136 -5 51 -18 62 -12 33 17 -24 23 -112 35 -148 19z"/>
<path d="M10260 9405 c-14 -8 -21 -14 -17 -15 5 0 1 -7 -7 -16 -25 -24 -9 -35
24 -16 23 13 32 14 42 4 9 -9 9 -12 -5 -12 -21 0 -22 -20 -2 -46 15 -19 15
-19 31 1 8 11 13 30 11 42 -3 19 -1 21 14 12 27 -14 24 6 -3 25 -12 9 -32 16
-43 17 -20 0 -20 0 0 9 l20 9 -20 0 c-11 0 -31 -6 -45 -14z"/>
<path d="M10615 9411 c16 -7 15 -9 -12 -14 -19 -4 -37 -16 -44 -29 -9 -19 -9
-21 2 -10 19 18 27 15 22 -10 -2 -13 2 -31 10 -42 12 -17 14 -17 30 -1 19 18
23 45 7 45 -5 0 -10 5 -10 10 0 18 33 11 57 -12 l23 -22 -2 29 c-3 31 -47 65
-83 64 -20 0 -20 -1 0 -8z"/>
<path d="M4440 9372 c0 -7 -4 -10 -10 -7 -15 9 -60 -25 -60 -46 0 -11 5 -19
10 -19 6 0 10 4 10 9 0 15 41 24 53 12 8 -8 8 -11 -1 -11 -15 0 -16 -32 0 -48
17 -17 38 4 38 38 0 24 3 27 23 23 20 -4 19 -3 -6 14 -15 11 -24 23 -20 28 5
4 2 5 -6 0 -8 -4 -17 -2 -22 6 -7 11 -9 11 -9 1z"/>
<path d="M4760 9370 c13 -10 12 -11 -5 -8 -12 3 -30 -5 -45 -20 -22 -22 -23
-24 -5 -20 16 4 20 -1 21 -24 2 -39 18 -55 39 -38 16 14 21 65 5 55 -5 -3 -10
-1 -10 4 0 16 23 13 46 -4 24 -18 34 -19 34 -2 0 19 -40 53 -70 62 -20 5 -22
4 -10 -5z"/>
<path d="M7325 9261 c-3 -5 -2 -12 3 -15 5 -3 9 1 9 9 0 17 -3 19 -12 6z"/>
<path d="M10495 9180 c-3 -5 1 -10 9 -10 9 0 16 5 16 10 0 6 -4 10 -9 10 -6 0
-13 -4 -16 -10z"/>
<path d="M10464 9159 c-9 -16 2 -22 21 -11 15 8 16 10 1 15 -8 3 -18 2 -22 -4z"/>
<path d="M4610 9120 c-12 -8 -11 -10 8 -10 12 0 22 -5 22 -12 0 -6 2 -9 5 -6
7 6 -5 38 -14 38 -3 0 -13 -5 -21 -10z"/>
<path d="M10304 9119 c-6 -8 -20 -33 -31 -56 -18 -38 -19 -43 -4 -43 9 0 36
14 60 30 29 20 57 30 80 30 20 0 45 0 56 0 67 2 117 -9 152 -33 22 -15 47 -27
56 -27 14 0 12 8 -12 53 l-28 52 -49 -1 c-27 0 -67 -2 -89 -4 -22 -2 -72 0
-110 5 -55 6 -73 4 -81 -6z"/>
<path d="M4503 9027 c44 -17 151 -20 185 -6 30 13 24 14 -88 14 -76 0 -112 -3
-97 -8z"/>
<path d="M4598 8923 c7 -3 16 -2 19 1 4 3 -2 6 -13 5 -11 0 -14 -3 -6 -6z"/>
<path d="M10340 8846 c0 -9 7 -16 16 -16 17 0 14 22 -4 28 -7 2 -12 -3 -12
-12z"/>
<path d="M4736 8842 c-3 -3 -5 -19 -5 -36 l2 -31 7 35 c6 29 7 23 8 -30 0 -46
-2 -58 -8 -40 -7 23 -8 23 -9 3 -1 -18 -8 -23 -38 -26 -31 -3 -29 -4 15 -5 47
-2 52 0 53 21 2 25 6 64 11 91 3 18 -23 31 -36 18z"/>
<path d="M7020 8824 c0 -18 40 -73 61 -84 38 -21 108 -6 140 28 29 31 38 62
18 62 -5 0 -8 -3 -6 -8 3 -4 -6 -21 -20 -37 -14 -17 -22 -24 -18 -17 5 9 1 10
-19 1 -37 -17 -95 -2 -128 33 -15 16 -28 26 -28 22z"/>
<path d="M7103 8813 c20 -2 54 -2 75 0 20 2 3 4 -38 4 -41 0 -58 -2 -37 -4z"/>
<path d="M4438 8798 c5 -5 16 -8 23 -6 8 3 3 7 -10 11 -17 4 -21 3 -13 -5z"/>
<path d="M10435 8775 c22 -8 47 -14 55 -14 25 1 -43 28 -70 28 -20 0 -17 -3
15 -14z"/>
<path d="M9543 8772 c-7 -4 -14 -17 -15 -27 -5 -36 13 -493 21 -520 6 -24 20
-32 106 -61 54 -19 100 -36 102 -38 4 -4 124 -347 149 -424 23 -73 47 -319 40
-407 -4 -44 -20 -154 -36 -245 -24 -138 -26 -167 -15 -176 12 -9 12 -19 0 -64
-13 -49 -13 -56 2 -72 9 -10 13 -18 8 -18 -4 0 4 -9 18 -20 31 -24 44 -26 26
-3 -13 15 -11 16 11 9 14 -4 31 -7 38 -6 6 0 23 0 37 0 81 -4 203 -4 293 -1
100 5 103 5 131 37 16 18 28 35 25 38 -2 3 -1 4 3 1 4 -3 39 25 77 62 l71 68
-70 -75 c-38 -41 -78 -80 -87 -88 -10 -7 -18 -17 -18 -21 0 -15 199 -2 370 24
48 7 84 11 123 14 17 1 41 8 51 16 17 13 18 18 7 41 -10 22 -9 29 1 35 16 10
16 13 -28 322 -21 151 -32 263 -28 285 19 111 50 222 96 347 28 77 54 145 58
150 4 6 17 40 29 76 l22 66 67 30 c37 17 82 36 100 43 42 16 52 42 52 131 0
39 3 68 8 66 4 -3 7 23 7 56 0 34 6 122 14 196 12 122 11 136 -3 147 -18 13
-72 5 -236 -35 -47 -12 -99 -21 -117 -21 -18 0 -43 -5 -57 -11 -19 -9 -51 -8
-138 5 -137 20 -128 20 -128 -1 0 -32 -47 -119 -81 -151 -70 -66 -197 -82
-295 -37 -67 30 -134 96 -168 164 l-26 51 -93 -2 c-115 -3 -235 8 -357 33
-101 20 -148 23 -167 11z m1427 -1535 c0 -2 -19 -21 -42 -42 l-43 -40 40 43
c36 39 45 47 45 39z m-90 -90 c0 -2 -17 -19 -37 -38 l-38 -34 34 38 c33 34 41
42 41 34z m-90 -90 c0 -1 -30 -32 -67 -67 l-68 -65 65 68 c60 62 70 72 70 64z
m-353 -315 c-10 -10 -14 -22 -10 -27 5 -4 2 -5 -5 -1 -11 6 -10 12 4 27 9 10
19 19 22 19 3 0 -2 -8 -11 -18z"/>
<path d="M4565 8749 c-9 -13 45 -23 58 -10 8 8 7 11 -3 12 -8 0 -23 2 -32 4
-10 2 -20 -1 -23 -6z"/>
<path d="M4670 8745 c0 -8 5 -15 10 -15 6 0 10 7 10 15 0 8 -4 15 -10 15 -5 0
-10 -7 -10 -15z"/>
<path d="M8164 8729 c-3 -6 0 -15 7 -20 9 -6 10 -12 4 -17 -5 -4 -25 -24 -43
-43 -28 -30 -31 -37 -17 -43 9 -3 13 -2 10 3 -3 5 -2 12 3 15 5 3 8 -9 7 -27
-2 -37 62 -167 83 -167 7 0 11 4 8 8 -3 5 1 9 9 9 11 0 12 -4 3 -14 -8 -10 -7
-18 7 -33 9 -10 14 -23 11 -28 -3 -5 1 -18 10 -30 l14 -21 40 21 c22 12 40 28
40 35 0 7 4 13 9 13 16 0 66 53 53 58 -7 2 -10 8 -6 13 3 5 14 -1 24 -13 19
-22 19 -22 20 -3 1 11 4 14 7 8 2 -7 9 -13 14 -13 13 0 -10 42 -32 58 -9 6
-20 26 -24 43 -4 16 -26 59 -50 95 -24 36 -47 74 -50 85 -8 23 -14 24 -42 4
-12 -8 -28 -12 -37 -9 -9 3 -16 1 -16 -5 0 -19 -18 -12 -25 9 -7 22 -30 27
-41 9z m46 -43 c0 -2 -7 -9 -15 -16 -13 -11 -14 -10 -9 4 5 14 24 23 24 12z
m10 -20 c0 -2 -8 -10 -17 -17 -16 -13 -17 -12 -4 4 13 16 21 21 21 13z m-50
-26 c0 -5 -5 -10 -11 -10 -5 0 -7 5 -4 10 3 6 8 10 11 10 2 0 4 -4 4 -10z
m117 -270 c-1 -12 -5 -16 -10 -11 -5 5 -6 14 -3 20 11 16 15 13 13 -9z"/>
<path d="M4915 8640 c3 -5 8 -10 11 -10 2 0 4 5 4 10 0 6 -5 10 -11 10 -5 0
-7 -4 -4 -10z"/>
<path d="M7154 8579 c-3 -6 -2 -14 4 -18 5 -3 11 -15 13 -25 2 -11 9 -19 14
-18 12 3 26 52 19 64 -8 12 -42 10 -50 -3z"/>
<path d="M5148 8553 c7 -3 16 -2 19 1 4 3 -2 6 -13 5 -11 0 -14 -3 -6 -6z"/>
<path d="M4980 8520 c-18 -12 -2 -12 25 0 13 6 15 9 5 9 -8 0 -22 -4 -30 -9z"/>
<path d="M7070 8516 c0 -2 7 -7 16 -10 8 -3 12 -2 9 4 -6 10 -25 14 -25 6z"/>
<path d="M4950 8381 c0 -5 7 -12 16 -15 14 -5 15 -4 4 9 -14 17 -20 19 -20 6z"/>
<path d="M4798 8363 c7 -3 16 -2 19 1 4 3 -2 6 -13 5 -11 0 -14 -3 -6 -6z"/>
<path d="M4558 8353 c7 -3 16 -2 19 1 4 3 -2 6 -13 5 -11 0 -14 -3 -6 -6z"/>
<path d="M7303 8245 c-74 -75 -288 -74 -359 1 l-22 23 -6 -27 c-3 -15 -9 -84
-12 -154 -6 -117 -5 -132 19 -210 41 -136 58 -209 64 -283 l5 -70 -33 -2 c-26
-2 -42 -13 -72 -48 -21 -25 -44 -45 -51 -45 -6 0 -22 -8 -36 -17 l-24 -17 60
-13 c118 -26 277 -36 397 -24 137 13 141 13 163 31 10 8 15 10 11 3 -4 -6 -3
-14 2 -17 5 -4 12 -2 16 4 3 5 17 10 30 10 13 0 26 4 29 9 7 11 -28 43 -38 34
-4 -4 -4 0 -1 9 4 10 -2 21 -15 31 -20 14 -21 24 -25 238 -4 259 -39 573 -63
568 -4 -1 -21 -16 -39 -34z"/>
<path d="M3805 8064 c2 -103 6 -189 9 -192 3 -3 1 -11 -5 -19 -9 -10 -7 -13
10 -13 11 0 21 4 21 8 0 5 10 14 23 21 65 34 123 71 132 85 8 12 -2 39 -38
109 -26 51 -47 98 -47 105 0 6 -4 12 -10 12 -5 0 -10 6 -10 14 0 19 -47 56
-71 56 -17 0 -18 -12 -14 -186z"/>
<path d="M5163 8194 c-3 -9 -3 -71 0 -138 5 -112 -2 -269 -17 -341 -7 -32 57
88 67 127 8 29 12 24 41 -53 47 -124 68 -174 79 -188 20 -24 133 -10 207 26
78 38 155 103 123 103 -11 0 -26 -6 -32 -14 -15 -17 -156 -62 -223 -71 l-48
-6 0 210 0 210 -30 44 c-44 65 -95 107 -131 107 -18 0 -32 -6 -36 -16z"/>
<path d="M8594 8145 c-30 -27 -39 -32 -28 -12 4 6 -4 2 -17 -10 -13 -12 -46
-31 -72 -43 -26 -12 -47 -23 -47 -26 0 -2 10 -20 23 -39 15 -25 28 -34 40 -31
15 4 16 2 6 -10 -15 -18 -7 -18 35 3 19 9 32 21 29 26 -3 6 -1 7 5 3 12 -7 75
27 67 37 -3 4 -2 5 1 2 4 -2 20 3 36 11 29 15 33 34 8 42 -8 3 -10 0 -5 -8 6
-9 3 -9 -14 -1 -11 7 -21 14 -21 17 0 3 5 2 10 -1 22 -13 30 6 15 36 -19 36
-36 37 -71 4z m36 -9 c-7 -7 -13 -7 -20 0 -6 6 -3 10 10 10 13 0 16 -4 10 -10z
m-155 -76 c-3 -5 -12 -10 -18 -10 -7 0 -6 4 3 10 19 12 23 12 15 0z m120 -30
c3 -5 -1 -10 -9 -10 -9 0 -16 5 -16 10 0 6 4 10 9 10 6 0 13 -4 16 -10z"/>
<path d="M4487 7989 c7 -7 15 -10 18 -7 3 3 -2 9 -12 12 -14 6 -15 5 -6 -5z"/>
<path d="M4465 7843 c-51 -13 -62 -42 -49 -134 l6 -44 82 7 c44 3 171 9 281
13 212 7 245 10 245 25 0 8 -195 75 -290 99 -19 5 -59 17 -89 25 -51 15 -142
19 -186 9z"/>
<path d="M3495 7819 c-6 -17 -2 -27 19 -42 23 -16 25 -22 14 -36 -12 -14 -11
-14 4 -3 15 12 23 10 58 -9 l40 -23 21 21 21 20 -32 7 c-17 3 -43 15 -57 26
-14 11 -32 20 -39 20 -7 0 -19 9 -27 21 l-15 21 -7 -23z"/>
<path d="M6665 7830 c-16 -7 -17 -9 -3 -9 9 -1 20 4 23 9 7 11 7 11 -20 0z"/>
<path d="M6660 7781 c0 -5 7 -24 15 -42 l14 -34 1 43 c0 31 -4 42 -15 42 -8 0
-15 -4 -15 -9z"/>
<path d="M4178 7767 c-38 -6 -68 -15 -68 -21 0 -13 86 -106 98 -106 17 0 44
40 40 58 -3 10 1 30 8 43 7 13 13 27 14 32 0 8 1 8 -92 -6z"/>
<path d="M4073 7701 c-10 -16 -7 -38 13 -118 19 -70 27 -126 28 -198 1 -96 -7
-214 -17 -245 -3 -8 -19 -113 -37 -233 -18 -120 -45 -264 -61 -320 -91 -313
-141 -628 -160 -1001 -5 -116 -19 -276 -31 -356 -11 -80 -24 -233 -28 -340 -8
-185 -28 -318 -70 -470 -20 -70 -16 -76 53 -89 75 -15 227 -70 227 -83 0 -5 4
-7 9 -3 5 3 12 1 16 -5 25 -40 72 61 126 269 25 94 32 148 39 286 11 235 32
308 170 588 43 89 83 180 89 202 22 84 71 461 71 545 l0 45 90 0 90 0 0 -48
c0 -76 29 -321 55 -457 21 -114 30 -139 98 -275 135 -273 177 -408 177 -586 0
-120 18 -235 55 -359 14 -47 34 -134 46 -195 24 -130 63 -218 119 -269 56 -50
77 -49 42 2 -10 15 -29 47 -42 72 -12 25 -36 71 -53 103 -16 32 -28 59 -26 61
19 18 154 76 166 72 8 -3 12 -2 9 3 -7 10 140 55 157 48 7 -3 28 -84 50 -198
21 -107 40 -204 42 -215 6 -30 31 -32 368 -40 215 -5 287 -4 287 4 0 7 -6 12
-13 12 -26 0 -100 58 -124 96 -19 32 -23 53 -23 119 0 97 22 232 53 340 13 44
29 100 35 125 30 125 126 271 188 286 16 4 35 33 69 100 l46 94 -40 132 c-22
73 -46 158 -54 188 -13 47 -54 188 -196 677 -19 65 -30 90 -38 82 -12 -12 -15
3 117 -669 55 -278 100 -509 100 -515 0 -6 -51 -10 -134 -10 l-134 0 -7 170
c-3 94 -13 334 -21 535 -9 201 -15 377 -14 393 0 15 -4 27 -10 27 -5 0 -10 -6
-10 -14 0 -8 -3 -22 -7 -32 -5 -13 -3 -15 8 -9 11 7 12 6 2 -6 -18 -23 -82
-791 -83 -1006 l0 -53 -36 0 -36 0 6 78 c26 292 82 840 92 897 l6 30 -37 -36
c-22 -21 -40 -52 -46 -75 -18 -73 -87 -448 -125 -676 l-38 -228 -29 0 c-15 0
-26 -3 -24 -7 3 -5 -26 -7 -64 -5 -44 2 -69 8 -69 15 1 28 130 403 259 747 28
74 49 135 47 137 -1 1 -21 -16 -43 -40 -30 -30 -58 -79 -101 -177 -33 -74 -69
-155 -80 -180 -11 -25 -53 -117 -92 -205 -39 -88 -81 -182 -94 -210 l-24 -50
-6 45 c-3 25 -14 110 -25 190 -11 80 -23 219 -26 310 -14 358 -75 764 -158
1048 -21 72 -22 84 -9 91 8 4 13 14 11 20 -3 9 -85 13 -299 15 -337 4 -544 21
-692 58 -30 7 -38 14 -38 31 0 13 8 32 18 43 9 11 41 49 71 84 30 36 66 76 80
90 l26 25 -47 5 c-26 3 -50 9 -54 13 -4 4 -6 32 -5 62 2 51 0 56 -24 65 -14 5
-28 17 -32 26 -3 8 -1 70 4 137 6 67 7 124 3 127 -8 5 -14 71 -11 123 0 16 7
27 15 27 14 0 30 29 21 38 -3 3 -5 1 -5 -5 0 -6 -11 -13 -24 -15 -19 -4 -35 6
-72 44 -27 26 -51 48 -54 48 -3 0 -11 -9 -17 -19z"/>
<path d="M4455 7411 c-2 -5 1 -72 7 -150 l12 -141 113 115 c62 63 113 121 113
129 0 18 -17 23 -105 31 -38 4 -85 10 -102 15 -18 5 -35 5 -38 1z"/>
<path d="M2148 7333 c7 -3 16 -2 19 1 4 3 -2 6 -13 5 -11 0 -14 -3 -6 -6z"/>
<path d="M4420 7090 c-11 -7 -12 -12 -4 -20 8 -8 13 -6 17 9 3 12 4 21 4 21
-1 0 -9 -5 -17 -10z"/>
<path d="M1903 7045 c0 -27 2 -38 4 -22 2 15 2 37 0 50 -2 12 -4 0 -4 -28z"/>
<path d="M7460 6985 c-97 -25 -208 -35 -398 -36 -103 -1 -168 -5 -145 -9 60
-9 73 -26 25 -33 -12 -2 -25 -6 -28 -10 -4 -4 -13 -2 -20 4 -15 13 -104 8
-104 -6 0 -6 31 -10 70 -11 38 0 72 -3 76 -6 12 -12 -6 -26 -43 -33 -21 -4
-44 -12 -52 -18 -12 -9 -13 -9 -7 1 5 9 -4 12 -38 12 -25 0 -47 -4 -50 -9 -3
-4 -34 -22 -69 -39 l-64 -30 -12 -64 c-6 -34 -14 -76 -18 -93 -5 -28 -4 -29
13 -15 15 12 14 10 -3 -15 -15 -20 -25 -59 -33 -120 -6 -49 -13 -107 -16 -127
-5 -35 -4 -38 18 -38 12 0 65 -11 116 -24 91 -22 92 -22 75 -2 -11 12 -5 10
15 -7 19 -15 46 -30 60 -33 45 -11 114 -51 100 -58 -7 -3 -4 -4 8 -1 12 3 38
-7 68 -26 26 -17 48 -30 50 -28 7 7 36 219 36 259 0 39 1 40 35 40 22 0 35 -5
35 -13 0 -25 29 -243 35 -270 7 -26 20 -35 27 -19 13 29 225 132 272 132 14 0
27 4 30 8 6 10 97 31 149 34 45 3 45 -1 16 193 -29 201 -52 306 -94 423 -42
114 -37 111 -135 87z m-780 -318 c0 -2 -10 -12 -22 -23 l-23 -19 19 23 c18 21
26 27 26 19z m-70 -252 c13 -14 21 -25 18 -25 -2 0 -15 11 -28 25 -13 14 -21
25 -18 25 2 0 15 -11 28 -25z m85 -85 c10 -11 16 -20 13 -20 -3 0 -13 9 -23
20 -10 11 -16 20 -13 20 3 0 13 -9 23 -20z"/>
<path d="M1680 6921 l-65 -4 60 -12 c57 -11 58 -13 34 -23 -16 -6 -57 -8 -103
-5 -66 5 -76 4 -76 -11 0 -13 12 -16 81 -16 60 0 80 -3 77 -12 -5 -15 -62 -27
-129 -27 -35 -1 -61 -10 -105 -36 -32 -19 -65 -35 -75 -35 -14 0 -21 -22 -38
-112 -57 -303 -73 -543 -69 -1033 3 -446 3 -453 -63 -590 -81 -171 -122 -305
-144 -473 -21 -158 -22 -152 23 -153 20 0 69 -9 107 -20 39 -10 78 -21 87 -23
25 -7 62 -28 70 -40 7 -11 8 -10 27 54 22 71 81 380 105 555 34 233 58 336
111 465 123 299 212 630 246 913 11 97 12 97 40 97 26 0 28 -3 34 -57 33 -294
129 -667 239 -925 50 -117 88 -263 111 -423 29 -200 65 -408 91 -518 l26 -108
162 4 161 5 -2 89 c-3 156 -63 383 -143 544 -76 151 -75 142 -72 624 l3 430
-173 -170 -173 -170 172 175 172 175 -15 150 c-18 182 -60 468 -75 510 -15 44
-120 92 -214 99 -38 2 -78 8 -87 11 -39 15 -14 25 62 25 68 0 80 3 80 16 0 15
-10 16 -75 11 -120 -9 -161 13 -57 31 l57 9 -70 3 c-126 5 -349 5 -415 1z
m450 -1234 c0 -2 -12 -14 -27 -28 l-28 -24 24 28 c23 25 31 32 31 24z"/>
<path d="M11010 6760 c-8 -5 -12 -12 -9 -15 4 -3 12 1 19 10 14 17 11 19 -10
5z"/>
<path d="M11025 6730 c-3 -5 -1 -10 4 -10 6 0 11 5 11 10 0 6 -2 10 -4 10 -3
0 -8 -4 -11 -10z"/>
<path d="M9846 6615 c-16 -59 -25 -114 -21 -127 5 -18 4 -20 -4 -8 -10 13 -11
13 -12 0 0 -8 -2 -22 -4 -30 -82 -349 -95 -412 -89 -422 2 -3 0 -9 -6 -13 -5
-3 -10 -13 -10 -21 0 -9 23 7 55 37 45 44 52 55 42 68 -9 11 -9 13 0 8 6 -4
14 -3 18 3 3 5 1 10 -4 10 -6 0 -11 18 -11 39 0 22 -5 41 -10 43 -7 2 -7 13
-1 33 6 17 15 56 22 88 8 39 15 53 21 45 6 -9 8 -7 6 7 -1 11 8 39 20 62 12
23 22 52 22 63 0 24 24 75 49 104 9 11 10 16 4 12 -20 -11 -15 15 5 31 9 8 12
12 6 9 -6 -3 -16 5 -22 19 -6 13 -20 28 -30 34 -18 9 -21 2 -46 -94z"/>
<path d="M10366 6671 c-4 -5 -2 -12 3 -15 5 -4 12 -2 15 3 4 5 2 12 -3 15 -5
4 -12 2 -15 -3z"/>
<path d="M11042 6660 c0 -14 2 -19 5 -12 2 6 2 18 0 25 -3 6 -5 1 -5 -13z"/>
<path d="M11057 6633 c-4 -3 -7 -13 -7 -22 1 -13 3 -13 11 2 11 19 8 33 -4 20z"/>
<path d="M10326 6618 c3 -5 10 -6 15 -3 13 9 11 12 -6 12 -8 0 -12 -4 -9 -9z"/>
<path d="M10006 6568 c3 -5 10 -6 15 -3 13 9 11 12 -6 12 -8 0 -12 -4 -9 -9z"/>
<path d="M10090 6551 c0 -6 4 -13 10 -16 6 -3 7 1 4 9 -7 18 -14 21 -14 7z"/>
<path d="M10246 6552 c-3 -5 1 -9 9 -9 8 0 12 4 9 9 -3 4 -7 8 -9 8 -2 0 -6
-4 -9 -8z"/>
<path d="M10281 6536 c-14 -15 -19 -26 -12 -31 6 -3 11 -1 11 6 0 7 7 21 17
31 24 27 10 22 -16 -6z"/>
<path d="M10169 6508 c-6 -20 -3 -45 7 -45 9 0 10 5 4 17 -5 10 -6 20 -3 24 3
3 3 6 0 6 -4 0 -7 -1 -8 -2z"/>
<path d="M10086 6488 c3 -5 10 -6 15 -3 13 9 11 12 -6 12 -8 0 -12 -4 -9 -9z"/>
<path d="M10217 6457 l-17 -32 20 24 c17 20 26 41 18 41 -2 0 -11 -15 -21 -33z"/>
<path d="M10084 6449 c-3 -6 -2 -15 3 -20 5 -5 9 -1 9 11 0 23 -2 24 -12 9z"/>
<path d="M10165 6399 c1 -10 4 -21 8 -24 4 -3 5 -2 2 1 -2 4 0 14 5 24 6 12 5
17 -4 17 -7 0 -12 -8 -11 -18z"/>
<path d="M10201 6331 c-2 -44 1 -51 33 -79 20 -17 38 -43 42 -59 4 -15 12 -31
17 -35 8 -4 7 -17 0 -41 -6 -19 -7 -40 -3 -47 11 -18 -1 -141 -16 -165 -6 -11
-15 -49 -19 -85 -10 -96 -32 -226 -43 -247 -14 -26 -32 -87 -32 -106 0 -29
-23 -67 -40 -67 -9 0 -26 10 -37 23 -26 27 -103 179 -103 201 0 9 -4 16 -10
16 -5 0 -10 8 -10 19 0 16 -43 121 -71 173 -5 10 -9 27 -9 38 0 11 -9 37 -20
57 -11 21 -20 46 -20 55 0 10 -4 18 -9 18 -13 0 -19 56 -8 77 6 10 6 15 2 11
-5 -4 -15 -2 -23 5 -13 10 -14 9 -8 -1 5 -8 -11 -30 -44 -63 -28 -27 -48 -54
-45 -59 3 -6 -1 -7 -9 -4 -19 7 -47 -84 -49 -161 -1 -29 -4 -52 -7 -50 -6 3
-61 -310 -60 -342 0 -22 222 -119 330 -144 19 -4 64 -15 100 -23 100 -23 125
-19 138 18 6 17 11 35 11 40 0 5 3 12 8 15 11 9 43 79 43 96 0 9 4 23 10 33
23 41 52 118 54 139 0 13 5 23 10 23 4 0 5 8 2 17 -4 10 -4 14 0 10 10 -9 76
193 69 211 -2 6 0 12 6 12 6 0 9 6 6 14 -9 22 10 32 53 28 27 -3 40 -9 40 -19
0 -8 5 -11 12 -7 7 4 8 3 4 -4 -10 -17 4 -83 17 -75 7 4 8 0 4 -11 -9 -23 64
-307 77 -299 5 3 6 1 2 -6 -7 -11 44 -181 78 -263 15 -36 19 -38 59 -38 153 2
401 76 456 138 9 10 24 21 35 25 11 5 16 13 12 23 -3 8 -2 13 3 10 4 -3 17 5
28 17 18 20 19 28 11 82 -5 33 -9 75 -8 94 0 18 -5 40 -11 47 -6 7 -8 17 -5
23 8 12 -26 281 -35 276 -3 -3 -4 6 -2 18 2 12 -5 65 -16 117 -10 52 -20 86
-20 74 -1 -11 -5 -24 -10 -30 -5 -5 -12 -40 -14 -79 -13 -173 -35 -253 -85
-309 -11 -12 -26 -34 -34 -51 -8 -16 -20 -29 -28 -27 -11 3 -11 0 1 -14 26
-33 60 -64 67 -63 18 3 32 -2 32 -12 0 -5 -4 -7 -10 -4 -23 14 -8 -16 16 -31
14 -9 23 -23 20 -30 -3 -8 0 -11 10 -7 10 3 12 12 8 27 -7 24 -5 22 20 -18 10
-16 13 -25 7 -22 -23 15 -10 -14 14 -30 14 -9 25 -23 25 -30 0 -8 -16 4 -36
26 -20 22 -40 37 -45 35 -4 -3 -15 7 -23 22 -15 30 -54 70 -65 66 -3 -2 -6 0
-6 5 -1 17 -17 32 -28 25 -7 -4 -21 -8 -32 -8 -11 0 -66 -45 -125 -103 -129
-126 -189 -150 -190 -79 0 10 -4 26 -10 36 -13 25 -13 184 0 251 5 30 15 88
20 128 12 85 26 126 40 117 5 -3 10 -4 10 -1 0 3 -10 10 -22 17 -18 9 -20 9
-15 -4 3 -9 -2 -21 -11 -29 -9 -7 -13 -8 -9 -1 4 6 4 18 1 27 -5 14 -9 14 -23
4 -13 -10 -14 -10 -4 2 10 11 8 17 -15 32 -15 10 -23 18 -18 18 5 0 1 9 -9 20
-10 11 -21 17 -26 14 -4 -2 -13 6 -20 18 -17 33 -51 68 -60 62 -4 -2 -13 6
-20 18 -21 42 -52 70 -61 56 -6 -10 -8 -10 -8 0 0 21 -3 26 -33 59 -16 18 -35
31 -41 30 -6 -1 -10 3 -9 8 1 10 -26 40 -37 40 -3 0 -4 11 -3 25 0 14 -1 19
-4 12 -4 -10 -8 -10 -21 0 -13 11 -14 11 -7 -1 5 -10 4 -12 -3 -7 -7 4 -12 14
-12 23 0 9 -3 13 -7 10 -3 -4 -11 -2 -18 3 -8 7 -12 -3 -14 -39z m987 -277
c-3 -14 -5 -12 -10 9 -3 19 -2 25 4 19 6 -6 8 -18 6 -28z m-1361 7 c0 -11 -5
-18 -9 -15 -4 3 -5 11 -1 19 7 21 12 19 10 -4z m-190 -563 c-3 -8 -6 -5 -6 6
-1 11 2 17 5 13 3 -3 4 -12 1 -19z m1000 -130 c-3 -8 -6 -5 -6 6 -1 11 2 17 5
13 3 -3 4 -12 1 -19z"/>
<path d="M10045 6351 c-3 -5 -2 -12 3 -15 5 -3 9 1 9 9 0 17 -3 19 -12 6z"/>
<path d="M11127 6353 c-4 -3 -7 -13 -7 -22 1 -13 3 -13 11 2 11 19 8 33 -4 20z"/>
<path d="M10295 6312 c-3 -9 -3 -13 1 -10 11 11 46 -12 41 -26 -4 -9 3 -12 19
-10 13 1 27 -3 31 -8 3 -7 1 -8 -5 -4 -24 15 -11 -14 14 -30 14 -10 23 -23 20
-31 -3 -8 -2 -11 3 -8 5 3 12 1 16 -5 3 -5 11 -10 17 -10 6 0 6 6 -2 15 -11
13 -10 14 4 9 10 -4 15 -13 11 -24 -4 -12 2 -24 16 -33 11 -9 19 -20 15 -25
-3 -5 7 -8 24 -6 17 2 30 -1 30 -7 0 -6 -4 -7 -10 -4 -22 13 -8 -15 16 -34 14
-11 23 -25 19 -32 -5 -8 -2 -8 11 -1 21 11 44 6 44 -10 0 -6 -6 -6 -15 2 -29
24 -15 0 23 -39 36 -38 61 -46 79 -26 4 4 3 5 -4 1 -8 -4 -13 19 -18 83 -11
135 -34 162 -165 191 -30 7 -64 17 -75 23 -11 6 -25 10 -32 9 -6 -1 -14 2 -18
8 -3 5 -15 10 -26 10 -10 0 -19 6 -19 13 0 7 -13 18 -29 24 -25 9 -31 8 -36
-5z m382 -334 c-3 -8 -6 -5 -6 6 -1 11 2 17 5 13 3 -3 4 -12 1 -19z"/>
<path d="M11137 6301 c-4 -17 -3 -21 5 -13 5 5 8 16 6 23 -3 8 -7 3 -11 -10z"/>
<path d="M9965 6271 c-3 -5 -2 -12 3 -15 5 -3 9 1 9 9 0 17 -3 19 -12 6z"/>
<path d="M11151 6234 c0 -11 3 -14 6 -6 3 7 2 16 -1 19 -3 4 -6 -2 -5 -13z"/>
<path d="M5982 6228 c-7 -7 -12 -17 -12 -24 0 -6 -41 -100 -90 -209 -50 -109
-89 -200 -87 -201 10 -10 87 89 102 131 22 61 38 82 24 31 -6 -21 -9 -40 -7
-42 3 -2 19 11 36 29 26 26 33 45 42 102 26 169 24 215 -8 183z"/>
<path d="M10751 5883 c-1 -17 16 -25 25 -12 4 7 3 9 -4 5 -5 -3 -13 0 -15 6
-4 9 -6 10 -6 1z"/>
<path d="M10726 5848 c3 -5 10 -6 15 -3 13 9 11 12 -6 12 -8 0 -12 -4 -9 -9z"/>
<path d="M10860 5766 c0 -2 7 -9 15 -16 9 -7 15 -8 15 -2 0 5 -7 12 -15 16 -8
3 -15 4 -15 2z"/>
<path d="M10886 5688 c3 -5 10 -6 15 -3 13 9 11 12 -6 12 -8 0 -12 -4 -9 -9z"/>
<path d="M10970 5590 c-16 -10 -13 -12 20 -12 33 0 36 2 20 12 -8 5 -17 10
-20 10 -3 0 -12 -5 -20 -10z"/>
<path d="M7034 4374 c-73 -21 -274 -46 -352 -42 -75 3 -77 2 -80 -22 -2 -14
-7 -29 -11 -35 -5 -5 -14 -32 -21 -60 -7 -27 -16 -54 -20 -60 -13 -17 -70
-166 -70 -181 0 -8 -7 -28 -15 -44 l-15 -29 98 2 c53 1 158 0 232 -2 172 -5
240 12 300 72 22 23 41 50 41 61 1 12 4 32 6 46 11 61 -6 213 -26 233 -6 6
-11 20 -11 32 0 36 -12 42 -56 29z"/>
<path d="M6212 4338 c1 -13 -4 -57 -11 -98 -14 -91 -6 -180 22 -240 l21 -45
17 135 c32 258 31 257 6 264 -41 11 -55 7 -55 -16z"/>
<path d="M7955 4120 c-3 -5 -2 -10 4 -10 5 0 13 5 16 10 3 6 2 10 -4 10 -5 0
-13 -4 -16 -10z"/>
<path d="M7912 4020 c0 -14 2 -19 5 -12 2 6 2 18 0 25 -3 6 -5 1 -5 -13z"/>
<path d="M3872 3980 c0 -14 2 -19 5 -12 2 6 2 18 0 25 -3 6 -5 1 -5 -13z"/>
<path d="M2581 3864 c0 -11 3 -14 6 -6 3 7 2 16 -1 19 -3 4 -6 -2 -5 -13z"/>
<path d="M3775 3741 c-3 -5 -2 -12 3 -15 5 -3 9 1 9 9 0 17 -3 19 -12 6z"/>
<path d="M9624 3679 c5 -20 -22 -62 -35 -54 -5 4 -9 -1 -9 -9 0 -8 -5 -26 -11
-39 -10 -22 -16 -23 -60 -19 -53 5 -58 0 -32 -32 15 -18 14 -17 -8 2 -14 12
-46 26 -70 30 -41 7 -44 9 -41 37 3 28 2 29 -13 14 -12 -12 -19 -44 -25 -115
-11 -142 -70 -300 -164 -437 -67 -99 -67 -99 49 -57 75 28 147 24 260 -15 146
-49 236 -19 235 78 -1 23 -11 96 -24 162 -17 90 -20 130 -14 160 5 22 10 76
11 120 2 70 -2 87 -26 135 -15 30 -25 48 -23 39z m-249 -159 c-3 -5 -10 -10
-16 -10 -5 0 -9 5 -9 10 0 6 7 10 16 10 8 0 12 -4 9 -10z m159 -5 c-4 -8 -10
-12 -15 -9 -14 8 -10 24 6 24 9 0 12 -6 9 -15z m41 -88 l70 -72 -66 64 c-37
34 -69 59 -73 53 -15 -24 -146 -22 -146 3 0 17 63 35 105 29 34 -4 51 -16 110
-77z m-97 -39 c3 -15 -51 -28 -114 -28 -43 0 -27 28 24 43 50 15 85 9 90 -15z
m-23 -80 c14 -6 25 -15 25 -19 0 -12 -92 -28 -128 -22 -45 7 -49 21 -10 38 41
17 79 19 113 3z m22 -74 c-3 -3 -12 -4 -19 -1 -8 3 -5 6 6 6 11 1 17 -2 13 -5z
m-15 -32 c14 -14 -23 -40 -72 -51 -40 -9 -47 -8 -67 11 -29 27 -29 32 0 46 24
13 124 9 139 -6z"/>
<path d="M3755 3636 c-11 -12 -28 -40 -38 -61 -13 -28 -21 -35 -27 -25 -14 22
-99 5 -135 -28 -28 -26 -29 -26 -7 -1 25 28 21 39 -15 39 -19 0 -23 5 -23 32
0 31 -1 31 -17 15 -12 -12 -18 -38 -21 -90 l-4 -72 29 28 c16 15 32 25 35 22
3 -3 18 -1 33 5 32 12 99 -4 92 -23 -5 -17 -73 -28 -117 -18 -52 11 -63 -2
-95 -112 -26 -90 -73 -192 -119 -260 -37 -53 -68 -117 -58 -117 5 0 37 12 73
26 54 22 75 26 134 21 39 -2 97 -14 130 -27 85 -31 129 -35 180 -16 65 25 73
52 49 184 -18 104 -21 171 -14 337 2 60 -1 91 -15 123 -9 23 -20 42 -24 41 -3
-1 -15 -11 -26 -23z m-235 -121 c-7 -9 -15 -13 -17 -11 -7 7 7 26 19 26 6 0 6
-6 -2 -15z m160 0 c0 -9 -6 -12 -16 -8 -13 5 -13 7 -2 14 17 11 18 11 18 -6z
m-53 -120 c8 -23 3 -25 -71 -32 -55 -5 -66 -3 -66 9 0 31 126 51 137 23z m-28
-86 c17 -6 31 -14 31 -18 0 -4 -23 -12 -52 -18 -40 -8 -61 -7 -88 2 l-35 13
35 16 c42 18 67 20 109 5z m-20 -95 c41 -9 40 -31 -4 -50 -48 -20 -89 -18
-110 6 -20 22 -20 22 10 38 23 13 58 15 104 6z"/>
<path d="M5397 3623 c-28 -67 -30 -84 -16 -194 10 -84 10 -120 1 -161 -7 -29
-17 -89 -22 -133 -14 -108 -3 -138 55 -161 50 -19 76 -16 194 20 46 14 107 26
137 26 67 0 180 -42 187 -71 5 -18 16 -19 218 -19 l212 0 -24 28 c-23 26 -23
26 8 -2 32 -29 33 -29 53 -11 17 16 20 31 20 115 0 54 -7 135 -15 181 -12 73
-12 92 0 144 21 87 19 128 -6 151 -20 17 -22 18 -32 3 -9 -15 -13 -14 -31 8
-15 17 -35 25 -72 29 -46 6 -52 4 -71 -20 -12 -14 -25 -26 -31 -26 -16 0 -22
-27 -22 -97 0 -78 -20 -150 -70 -258 -35 -75 -116 -186 -132 -182 -4 1 -23 27
-42 57 -102 161 -166 327 -166 428 0 34 -5 73 -12 89 -6 15 -11 31 -10 35 1 3
-6 12 -16 19 -12 9 -14 10 -6 1 6 -7 9 -24 6 -38 -5 -26 -7 -27 -130 -28 -66
-1 -73 1 -78 20 -3 12 -20 36 -38 53 l-33 32 -16 -38z m141 -102 c11 -7 11 -9
-1 -14 -9 -3 -18 1 -21 9 -6 16 2 18 22 5z m162 -12 c0 -6 -4 -7 -10 -4 -5 3
-10 11 -10 16 0 6 5 7 10 4 6 -3 10 -11 10 -16z m-47 -15 c26 -9 45 -20 42
-24 -8 -13 -77 -20 -114 -12 -44 10 -50 27 -14 40 38 14 33 14 86 -4z m20 -95
c59 -16 41 -34 -33 -32 -68 2 -75 5 -67 28 7 18 46 19 100 4z m26 -90 c38 -14
39 -24 3 -37 -29 -10 -132 5 -132 19 0 9 48 27 76 28 12 1 35 -4 53 -10z m20
-100 c17 -6 31 -14 31 -17 0 -17 -37 -42 -62 -42 -40 0 -98 26 -98 44 0 25 74
34 129 15z m401 -24 c13 -14 21 -25 18 -25 -2 0 -15 11 -28 25 -13 14 -21 25
-18 25 2 0 15 -11 28 -25z m66 -67 l29 -33 -32 29 c-18 17 -33 31 -33 33 0 8
8 1 36 -29z m89 -88 c10 -11 16 -20 13 -20 -3 0 -13 9 -23 20 -10 11 -16 20
-13 20 3 0 13 -9 23 -20z"/>
<path d="M11270 3632 c-23 -49 -28 -105 -18 -204 9 -86 8 -116 -12 -240 -22
-136 -22 -143 -5 -174 32 -60 106 -69 224 -27 108 38 214 38 294 1 72 -34 74
-22 12 72 -99 150 -165 324 -165 439 0 45 -6 83 -15 101 -20 39 -27 38 -20 -4
7 -33 6 -33 -37 -38 -23 -3 -70 -4 -103 -3 -58 3 -61 4 -77 37 -9 19 -28 42
-41 51 -23 15 -25 15 -37 -11z m144 -117 c-4 -8 -10 -15 -14 -15 -4 0 -10 7
-14 15 -4 10 1 15 14 15 13 0 18 -5 14 -15z m156 -2 c0 -10 -4 -14 -8 -8 -4 6
-11 13 -16 18 -5 4 -2 7 7 7 10 0 17 -8 17 -17z m-19 -24 c29 -15 23 -26 -18
-32 -46 -7 -115 4 -120 19 -10 30 89 39 138 13z m35 -110 c10 -16 -27 -22 -85
-13 -60 10 -77 33 -31 44 26 7 106 -15 116 -31z m-13 -70 c20 -5 37 -14 37
-19 0 -17 -68 -29 -107 -19 -68 18 -70 20 -38 35 37 16 59 17 108 3z m54 -75
c-3 -3 -12 -4 -19 -1 -8 3 -5 6 6 6 11 1 17 -2 13 -5z m-30 -26 c18 -7 33 -15
33 -18 0 -3 -13 -16 -29 -27 -30 -23 -69 -21 -119 6 -63 34 36 68 115 39z"/>
<path d="M7970 3583 c-32 -12 -70 -45 -64 -56 3 -7 -1 -4 -9 6 -19 23 -43 13
-55 -23 -7 -19 -6 -48 5 -96 12 -56 13 -86 4 -164 -6 -52 -13 -134 -16 -181
-4 -77 -2 -90 16 -113 l20 -26 225 0 c220 0 224 0 224 21 0 29 -17 57 -63 107
-74 82 -131 234 -142 385 -5 64 -10 87 -21 87 -7 0 -19 10 -25 23 -7 12 -17
25 -23 29 -13 9 -54 9 -76 1z"/>
<path d="M948 3513 c-9 -10 -19 -34 -23 -53 -4 -19 -12 -40 -17 -47 -6 -7 -5
-14 2 -18 14 -9 13 -65 -2 -65 -9 0 -9 -3 1 -9 11 -7 12 -13 4 -23 -6 -7 -7
-22 -4 -32 5 -13 1 -26 -11 -38 -10 -10 -18 -25 -18 -33 0 -8 -4 -15 -10 -15
-5 0 -10 -5 -10 -11 0 -5 4 -8 8 -5 5 3 7 -8 4 -23 -3 -21 2 -31 22 -45 25
-16 29 -16 72 3 l46 21 -4 55 c-1 30 1 55 6 55 4 0 6 20 5 44 -2 24 0 44 5 43
5 -1 12 9 16 23 4 14 21 51 37 82 17 32 27 55 22 52 -5 -3 -9 2 -9 10 0 18
-60 46 -100 46 -15 0 -34 -8 -42 -17z"/>
<path d="M2700 3510 c-38 -22 -40 -29 -22 -78 8 -23 16 -31 24 -26 7 4 10 4 6
-1 -4 -4 0 -21 8 -37 9 -17 13 -32 10 -36 -3 -3 -1 -11 5 -18 6 -7 13 -41 15
-76 9 -128 9 -128 76 -148 56 -17 86 42 56 110 -8 19 -14 47 -13 63 0 15 -2
27 -6 27 -11 0 -17 48 -10 83 4 18 4 39 0 47 -3 8 -13 35 -20 60 -13 43 -16
45 -54 47 -25 2 -53 -5 -75 -17z"/>
<path d="M703 2957 c-13 -18 -23 -43 -23 -55 0 -22 0 -22 228 -22 209 0 230 2
245 18 10 10 17 26 17 35 0 14 -3 14 -27 1 -38 -19 -55 -18 -137 12 -76 28
-182 37 -207 18 -8 -6 -29 -16 -48 -22 l-33 -12 6 30 c3 17 4 30 3 30 -1 0
-12 -15 -24 -33z"/>
<path d="M3030 2986 c0 -4 5 -16 11 -28 14 -26 8 -31 -26 -18 -19 7 -31 7 -40
0 -10 -8 -13 -6 -11 7 2 33 -68 38 -162 13 -45 -12 -82 -25 -82 -29 0 -4 10
-17 23 -29 19 -18 35 -22 93 -22 42 0 75 5 83 13 11 10 13 10 7 0 -6 -10 12
-13 73 -13 78 0 81 1 81 23 0 13 -11 38 -25 57 -14 19 -25 30 -25 26z"/>
<path d="M2590 2938 c0 -8 7 -24 16 -36 13 -19 24 -22 81 -22 65 0 66 0 48 20
-13 14 -31 20 -59 20 -23 0 -52 7 -64 16 -17 12 -22 12 -22 2z"/>
</g>
</svg>
